<svg xmlns="http://www.w3.org/2000/svg" xmlns:xlink="http://www.w3.org/1999/xlink" width="91" height="91" viewBox="0 0 91 91">
  <defs>
    <clipPath id="clip-path">
      <rect id="Rectángulo_375105" data-name="Rectángulo 375105" width="18.199" height="44.152" fill="none"/>
    </clipPath>
    <clipPath id="clip-path-2">
      <rect id="Rectángulo_375106" data-name="Rectángulo 375106" width="26.936" height="20.31" fill="none"/>
    </clipPath>
    <clipPath id="clip-path-3">
      <rect id="Rectángulo_377005" data-name="Rectángulo 377005" width="17.347" height="12.652" fill="#00f7ff"/>
    </clipPath>
    <clipPath id="clip-path-4">
      <path id="Trazado_822509" data-name="Trazado 822509" d="M2.706,12.652H0L5.967,0h1.38l5.985,12.652H10.609l-1.075-2.4H3.781ZM6.648,3.4,4.605,8.189h4.1Z" fill="#00f7ff"/>
    </clipPath>
    <clipPath id="clip-path-5">
      <rect id="Rectángulo_377004" data-name="Rectángulo 377004" width="2.581" height="12.634" fill="#00f7ff"/>
    </clipPath>
  </defs>
  <g id="Grupo_1073752" data-name="Grupo 1073752" transform="translate(-201.333 -287)">
    <rect id="Rectángulo_374757" data-name="Rectángulo 374757" width="91" height="91" rx="8" transform="translate(201.333 287)" fill="#3a3e44"/>
    <g id="Grupo_1073747" data-name="Grupo 1073747" transform="translate(-1023.062 108.592)">
      <path id="Trazado_113939" data-name="Trazado 113939" d="M36.562,0A36.562,36.562,0,1,1,0,36.562,36.562,36.562,0,0,1,36.562,0Z" transform="translate(1233.333 184.355)" fill="#ffe323"/>
      <g id="Grupo_1073096" data-name="Grupo 1073096" transform="translate(1247.516 188.858) rotate(9)">
        <g id="Grupo_1070743" data-name="Grupo 1070743" transform="translate(0 0)">
          <g id="Grupo_1073071" data-name="Grupo 1073071" transform="translate(0 0)">
            <g id="Grupo_1070738" data-name="Grupo 1070738" transform="translate(37.992 10.764)" style="mix-blend-mode: multiply;isolation: isolate">
              <g id="Grupo_1070737" data-name="Grupo 1070737">
                <g id="Grupo_1070736" data-name="Grupo 1070736" clip-path="url(#clip-path)">
                  <path id="Trazado_816502" data-name="Trazado 816502" d="M18.2,14.055a23.254,23.254,0,0,1-7.642,17.261l-.12.423,0,.015c-.02.067-.039.137-.059.209l0,.01c-.02.067-.039.137-.059.207l-.006.024c-.017.064-.035.128-.055.193,0,.015-.009.034-.012.049-.016.06-.034.121-.051.182,0,.022-.01.044-.016.064-.017.061-.035.122-.049.182-.007.024-.015.046-.02.07-.017.057-.031.121-.049.181-.007.025-.015.05-.021.076-.015.061-.031.12-.047.179-.006.027-.015.057-.022.083-.016.061-.034.125-.047.183-.009.029-.015.057-.022.086-.016.057-.031.117-.046.174-.01.035-.019.07-.029.1-.012.057-.026.112-.042.167s-.019.077-.029.116-.027.1-.04.158-.024.085-.034.127-.024.1-.036.151-.024.093-.035.139-.025.1-.036.144c-.776,3.133-1.517,6.869-1.342,9.144H1.5A1.5,1.5,0,0,1,0,42.658V1.5A1.5,1.5,0,0,1,1.5,0H13.587q.318.486.606.987a23.2,23.2,0,0,1,4,13.068" transform="translate(0.001 0)" fill="#8da4ba"/>
                </g>
              </g>
            </g>
            <path id="Trazado_816503" data-name="Trazado 816503" d="M0,29.155H27.164a117.352,117.352,0,0,1-2.3-13.649C24.471,11.066,27.738.745,27.738.745S-.034-2.289,1,3.888c1.072,6.421-1,25.267-1,25.267" transform="translate(19.123 39.503)" fill="#fff"/>
            <path id="Trazado_816504" data-name="Trazado 816504" d="M.2,18.343a18.922,18.922,0,0,0,1.511,5.5c.2.442.4.88.59,1.321h.675c-.3-.674-.616-1.336-.893-2.021A18.687,18.687,0,0,1,.816,18.26a40.485,40.485,0,0,1-.189-5.386c.021-1.177.066-2.36.2-3.53.066-.589.156-1.174.275-1.755a16.23,16.23,0,0,1,1.717-4.66c.291-.528.573-1.06.863-1.589.1-.187.5-1.142.778-1.181.071-.007.093-.118.022-.142C3.816-.2,3,1.589,2.755,1.988A16.34,16.34,0,0,0,.791,6.283,21.084,21.084,0,0,0,.177,9.753c-.092.923-.137,1.853-.154,2.781A40.75,40.75,0,0,0,.2,18.343" transform="translate(35.729 43.497)" fill="#4f5f70"/>
            <path id="Trazado_816505" data-name="Trazado 816505" d="M0,1.953A2.039,2.039,0,0,0,2.117,3.905,2.038,2.038,0,0,0,4.233,1.953,2.04,2.04,0,0,0,2.117,0,2.04,2.04,0,0,0,0,1.953" transform="translate(40.304 63.285)" fill="#4f5f70"/>
            <path id="Trazado_816506" data-name="Trazado 816506" d="M0,1.953A2.037,2.037,0,0,0,2.114,3.905,2.039,2.039,0,0,0,4.231,1.953,2.04,2.04,0,0,0,2.114,0,2.038,2.038,0,0,0,0,1.953" transform="translate(39.182 59.223)" fill="#4f5f70"/>
            <path id="Trazado_816507" data-name="Trazado 816507" d="M0,1.953A2.04,2.04,0,0,0,2.116,3.906,2.041,2.041,0,0,0,4.233,1.953,2.04,2.04,0,0,0,2.116,0,2.04,2.04,0,0,0,0,1.953" transform="translate(38.788 55.009)" fill="#4f5f70"/>
            <path id="Trazado_816508" data-name="Trazado 816508" d="M0,1.953A2.041,2.041,0,0,0,2.116,3.908,2.039,2.039,0,0,0,4.231,1.953,2.038,2.038,0,0,0,2.116,0,2.04,2.04,0,0,0,0,1.953" transform="translate(38.948 50.786)" fill="#4f5f70"/>
            <path id="Trazado_816509" data-name="Trazado 816509" d="M0,1.953A2.041,2.041,0,0,0,2.117,3.905,2.039,2.039,0,0,0,4.233,1.953,2.038,2.038,0,0,0,2.117,0,2.04,2.04,0,0,0,0,1.953" transform="translate(39.755 46.647)" fill="#4f5f70"/>
            <g id="Grupo_1070741" data-name="Grupo 1070741" transform="translate(19.926 39.504)" opacity="0.6" style="mix-blend-mode: multiply;isolation: isolate">
              <g id="Grupo_1070740" data-name="Grupo 1070740">
                <g id="Grupo_1070739" data-name="Grupo 1070739" clip-path="url(#clip-path-2)">
                  <path id="Trazado_816510" data-name="Trazado 816510" d="M0,20.31C.436,14.507.778,7.37.2,3.888-.837-2.29,26.936.746,26.936.746s-.8,2.532-1.562,5.626A52.74,52.74,0,0,1,3.746,19.283Q1.878,19.851,0,20.31" transform="translate(0 -0.001)" fill="#d7e0e9"/>
                </g>
              </g>
            </g>
            <path id="Trazado_816511" data-name="Trazado 816511" d="M0,1.955A2.039,2.039,0,0,0,2.116,3.908,2.039,2.039,0,0,0,4.231,1.955,2.04,2.04,0,0,0,2.116,0,2.04,2.04,0,0,0,0,1.955" transform="translate(40.864 42.56)" fill="#4f5f70"/>
            <path id="Trazado_816512" data-name="Trazado 816512" d="M0,23.32A23.322,23.322,0,1,0,23.321,0,23.322,23.322,0,0,0,0,23.32" transform="translate(7.314 1.5)" fill="#d7e0e9"/>
            <path id="Trazado_816513" data-name="Trazado 816513" d="M45.113,31.011C46,25.182,52.4,19.245,50.242,13.639,48.2,8.344,44.094,3.442,38.783,1.491A30.851,30.851,0,0,0,26.059.128a43.568,43.568,0,0,0-7,1.124A18.88,18.88,0,0,0,6.54,11.245a14.023,14.023,0,0,0-1.667,8.79,8.142,8.142,0,0,1-1.159,6.5C2.69,28.074.024,33.123.005,33.275c-.164,1.341,3.621,1.67,4.336,2.187C6.154,37,3.513,38.225,3.6,39.814c.062,1.1,1.985.8,1.02,1.824-.477.507-.766.765-.259,1.3.935.387.92,2.108.763,2.884-.014,1.755-1.03,5.307,1.164,6.589,4,2.342,35.6-.288,38.821-21.4" transform="translate(1.334 1.499)" fill="#d7e0e9"/>
            <path id="Trazado_816514" data-name="Trazado 816514" d="M0,14.428A14.428,14.428,0,1,1,14.428,28.855,14.427,14.427,0,0,1,0,14.428" transform="translate(16.208 10.392)" fill="#4f5f70"/>
            <path id="Trazado_816518" data-name="Trazado 816518" d="M0,23.32A23.325,23.325,0,0,0,35.665,43.111a3.159,3.159,0,0,0-.061-1.666c-.572-1.822-2.317-2.746-5.19-2.746a33.282,33.282,0,0,0-8.041,1.325,13.63,13.63,0,0,1-3.444.477c-5.861,0-8.728-4.818-11.034-8.691-1.95-3.279-2.748-9.557-.5-15.21a13.334,13.334,0,0,1,8.848-8.26,20.36,20.36,0,0,1,5.626-.752,52.205,52.205,0,0,1,8.143.878l.892.141c.45.071,1.007.189,1.656.329a26.735,26.735,0,0,0,5.32.758A5.886,5.886,0,0,0,41.591,8.6a7.5,7.5,0,0,0-.537-.737A23.505,23.505,0,0,0,0,23.32" transform="translate(7.314 1.5)" fill="#4f5f70"/>
            <path id="Trazado_816519" data-name="Trazado 816519" d="M3.807,42.07c.068,1.162,2.1.848,1.08,1.931-.5.537-.809.807-.273,1.376a1.458,1.458,0,0,1,.77,1.051,4,4,0,0,1,.111.737,4.982,4.982,0,0,1-.075,1.261c-.015,1.854-1.087,5.611,1.232,6.966.953.559,4.382.46,8.5-.01q.347-.039.7-.082c5.617-.684,12.285-2.011,15.669-3.295,6.561-2.491,11.429-6.037,10.562-8.8S36.7,40.59,29.907,42.369c-8.917,2.337-12.644-3.9-15.451-8.612-3.838-6.449-2.675-21.5,8.866-24.762,5.157-1.456,9.739-.588,15.034.245,2.646.42,8.727,2.393,10.4-.361C47.56,6.726,41.852-.116,29.9,0c-.23,0-.463.007-.7.015-.539.016-1.088.049-1.654.093a47.337,47.337,0,0,0-7.4,1.19A19.963,19.963,0,0,0,6.914,11.865a14.8,14.8,0,0,0-1.762,9.293l0,.032c.052.308.1.608.128.9a8.182,8.182,0,0,1-1.356,5.937C2.845,29.659.023,35,.006,35.16c-.177,1.416,3.828,1.765,4.585,2.314,1.915,1.62-.878,2.918-.783,4.6" fill="#fff"/>
            <path id="Trazado_816521" data-name="Trazado 816521" d="M0,.112A4,4,0,0,1,.112.85,7.721,7.721,0,0,1,2.573.863,8.6,8.6,0,0,1,8.887,6.541a14.572,14.572,0,0,0,.878,2.527c.23-.026.464-.054.7-.082a4.336,4.336,0,0,1-.519-1.146A13.7,13.7,0,0,0,8.435,4.077,8.783,8.783,0,0,0,1.115,0,9.787,9.787,0,0,0,0,.112" transform="translate(5.384 46.316)" fill="#4f5f70"/>
            <path id="Trazado_816522" data-name="Trazado 816522" d="M0,21.191c.052.308.1.606.128.9a5.318,5.318,0,0,0,1.926-1.207,15.348,15.348,0,0,0,3.254-4.752c.879-2.015,1.611-4.1,2.605-6.059a8.093,8.093,0,0,1,3.6-4.022c2.877-1.376,6.2-1.2,9.138-2.388a7.758,7.758,0,0,0,3.779-3.1c.115-.182.219-.371.32-.564-.23,0-.463.007-.7.015-.037.055-.072.111-.11.166a7.081,7.081,0,0,1-2.6,2.411c-2.906,1.466-6.286,1.229-9.295,2.366A7.819,7.819,0,0,0,8.43,7.565a25.7,25.7,0,0,0-2.771,5.56C4.5,15.983,2.953,19.889,0,21.191" transform="translate(5.155 0.001)" fill="#4f5f70"/>
            <g id="Grupo_1073211" data-name="Grupo 1073211" transform="translate(20.053 19.611) rotate(-9)">
              <g id="Grupo_1073204" data-name="Grupo 1073204" clip-path="url(#clip-path-3)">
                <g id="Grupo_1073201" data-name="Grupo 1073201">
                  <g id="Grupo_1073200" data-name="Grupo 1073200" clip-path="url(#clip-path-4)">
                    <rect id="Rectángulo_377002" data-name="Rectángulo 377002" width="13.333" height="12.652" fill="#00f7ff"/>
                  </g>
                </g>
                <g id="Grupo_1073203" data-name="Grupo 1073203" transform="translate(14.766 0.018)">
                  <g id="Grupo_1073202" data-name="Grupo 1073202" clip-path="url(#clip-path-5)">
                    <rect id="Rectángulo_377003" data-name="Rectángulo 377003" width="2.581" height="12.634" transform="translate(0 0)" fill="#00f7ff"/>
                  </g>
                </g>
              </g>
            </g>
          </g>
        </g>
      </g>
    </g>
  </g>
</svg>
