<svg xmlns="http://www.w3.org/2000/svg" xmlns:xlink="http://www.w3.org/1999/xlink" width="77" height="77" viewBox="0 0 77 77">
  <defs>
    <clipPath id="clip-path">
      <path id="path5664" d="M0-682.665H50.7v50.7H0Z" transform="translate(0 682.665)"/>
    </clipPath>
  </defs>
  <g id="Grupo_1071343" data-name="Grupo 1071343" transform="translate(-1040 -2153)">
    <path id="Trazado_815435" data-name="Trazado 815435" d="M38.5,0A38.5,38.5,0,1,1,0,38.5,38.5,38.5,0,0,1,38.5,0Z" transform="translate(1040 2153)" fill="#ebffff"/>
    <g id="g5658" transform="translate(1053.149 2848.314)">
      <g id="g5660" transform="translate(0 -682.665)">
        <g id="g5662" transform="translate(0 0)" clip-path="url(#clip-path)">
          <g id="g5712" transform="translate(0.743 41.344)">
            <path id="path5714" d="M-385.326-61.715h-29.528A1.386,1.386,0,0,1-416.24-63.1V-65.28a1.386,1.386,0,0,1,1.386-1.386h46.444a1.386,1.386,0,0,1,1.386,1.386V-63.1a1.386,1.386,0,0,1-1.386,1.386h-13.673" transform="translate(416.24 66.667)" fill="none" stroke="#000" stroke-linecap="round" stroke-linejoin="round" stroke-miterlimit="10" stroke-width="1.2"/>
          </g>
          <g id="g5716" transform="translate(4.06 11.637)">
            <path id="path5718" d="M0-57.606v-2.641a1.981,1.981,0,0,1,1.981-1.981H6.733" transform="translate(0.001 62.228)" fill="none" stroke="#000" stroke-linecap="round" stroke-linejoin="round" stroke-miterlimit="10" stroke-width="1.2"/>
          </g>
          <g id="g5720" transform="translate(4.06 11.636)">
            <path id="path5722" d="M-446.815,0h4.752a1.98,1.98,0,0,1,1.981,1.981V27.727a1.981,1.981,0,0,1-1.981,1.981h-38.62a1.98,1.98,0,0,1-1.981-1.981V7.8" transform="translate(482.663)" fill="none" stroke="#000" stroke-linecap="round" stroke-linejoin="round" stroke-miterlimit="10" stroke-width="1.2"/>
          </g>
          <g id="g5724" transform="translate(7.031 14.607)">
            <path id="path5726" d="M-409.788,0h3.762V23.766h-36.639V0h3.763" transform="translate(442.666)" fill="none" stroke="#000" stroke-linecap="round" stroke-linejoin="round" stroke-miterlimit="10" stroke-width="1.2"/>
          </g>
          <g id="g5728" transform="translate(10.794 9.431)">
            <path id="path5730" d="M-181.442,0V18.346h-14a.555.555,0,0,1-.555-.555V.555A.555.555,0,0,1-195.445,0h1.972" transform="translate(195.999)" fill="none" stroke="#000" stroke-linecap="round" stroke-linejoin="round" stroke-miterlimit="10" stroke-width="1.2"/>
          </g>
          <g id="g5732" transform="translate(25.351 9.431)">
            <path id="path5734" d="M0,0V18.346H14a.555.555,0,0,0,.555-.555V.555A.555.555,0,0,0,14,0H12.031" fill="none" stroke="#000" stroke-linecap="round" stroke-linejoin="round" stroke-miterlimit="10" stroke-width="1.2"/>
          </g>
          <g id="g5736" transform="translate(13.321 4.407)">
            <path id="path5738" d="M-149.952-291.295l-11.657-4.031a.555.555,0,0,1-.373-.524v-18.26a.555.555,0,0,1,.736-.524l11.294,3.906Z" transform="translate(161.982 314.665)" fill="none" stroke="#000" stroke-linecap="round" stroke-linejoin="round" stroke-miterlimit="10" stroke-width="1.2"/>
          </g>
          <g id="g5740" transform="translate(25.351 4.407)">
            <path id="path5742" d="M-74.288-23.378l-5.96,2.061V-1.883l11.657-4.031a.555.555,0,0,0,.374-.524V-24.7a.555.555,0,0,0-.736-.524l-2.339.809" transform="translate(80.248 25.254)" fill="none" stroke="#000" stroke-linecap="round" stroke-linejoin="round" stroke-miterlimit="10" stroke-width="1.2"/>
          </g>
          <g id="g5744" transform="translate(21.093 41.344)">
            <path id="path5746" d="M-92.289-29.623h-6.292a1.112,1.112,0,0,1-1.112-1.112V-32h8.516v1.265A1.112,1.112,0,0,1-92.289-29.623Z" transform="translate(99.693 32)" fill="none" stroke="#000" stroke-linecap="round" stroke-linejoin="round" stroke-miterlimit="10" stroke-width="1.2"/>
          </g>
          <g id="g5748" transform="translate(15.596 31.381)">
            <path id="path5750" d="M0,0H19.511" fill="none" stroke="#000" stroke-linecap="round" stroke-linejoin="round" stroke-miterlimit="10" stroke-width="1.2"/>
          </g>
          <g id="g5752" transform="translate(15.596 34.531)">
            <path id="path5754" d="M0,0H12.653" fill="none" stroke="#000" stroke-linecap="round" stroke-linejoin="round" stroke-miterlimit="10" stroke-width="1.2"/>
          </g>
        </g>
      </g>
    </g>
  </g>
</svg>
