<svg xmlns="http://www.w3.org/2000/svg" width="26.571" height="36.584" viewBox="0 0 26.571 36.584">
  <g id="machine-learning_1_" data-name="machine-learning (1)" transform="translate(-76.606 -9.005)">
    <g id="Grupo_1072213" data-name="Grupo 1072213" transform="translate(77.124 9.523)">
      <path id="Trazado_820602" data-name="Trazado 820602" d="M109.139,234.035c0,7.051-25.534,7.051-25.534,0a12.767,12.767,0,0,1,25.534,0Z" transform="translate(-83.605 -206.067)" fill="#e4e8eb" fill-rule="evenodd"/>
      <path id="Trazado_820603" data-name="Trazado 820603" d="M136.82,48.778h3.243v4.157H136.82a.768.768,0,0,1-.766-.766V49.544A.768.768,0,0,1,136.82,48.778Zm12.991,0h3.243a.768.768,0,0,1,.766.766v2.625a.768.768,0,0,1-.766.766h-3.243Z" transform="translate(-132.17 -46.351)" fill="#cad0d7" fill-rule="evenodd"/>
      <path id="Trazado_820604" data-name="Trazado 820604" d="M177.872,16.006h8.721a1.543,1.543,0,0,1,1.54,1.54v8.721a1.543,1.543,0,0,1-1.54,1.54h-8.721a1.543,1.543,0,0,1-1.54-1.54V17.546A1.543,1.543,0,0,1,177.872,16.006Z" transform="translate(-169.465 -16.006)" fill="#e4e8eb" fill-rule="evenodd"/>
      <path id="Trazado_820605" data-name="Trazado 820605" d="M121.9,247.43l9.931,2.9,9.931-2.9-1.739,16.67-8.192,1.739-8.192-1.739Z" transform="translate(-119.063 -230.291)" fill="#78f0f4" fill-rule="evenodd"/>
      <path id="Trazado_820606" data-name="Trazado 820606" d="M133.449,335.637a1.469,1.469,0,0,1,1.465,1.465v.676a1.465,1.465,0,1,1-2.929,0V337.1A1.469,1.469,0,0,1,133.449,335.637Zm-18.124,0a1.469,1.469,0,0,1,1.465,1.465v.676a1.465,1.465,0,1,1-2.929,0V337.1A1.469,1.469,0,0,1,115.326,335.637Z" transform="translate(-111.62 -311.966)" fill="#cad0d7" fill-rule="evenodd"/>
    </g>
    <path id="Trazado_820607" data-name="Trazado 820607" d="M100.1,28.991a13.251,13.251,0,0,1,3.077,8.5,3.656,3.656,0,0,1-1.285,2.712,9.152,9.152,0,0,1-3.147,1.775L98.6,43.385a.517.517,0,0,1-.407.453h0L90,45.578a.515.515,0,0,1-.224,0l-8.183-1.737a.518.518,0,0,1-.409-.476l-.144-1.384A9.15,9.15,0,0,1,77.891,40.2a3.656,3.656,0,0,1-1.285-2.712,13.25,13.25,0,0,1,3.077-8.5l-.237-2.277a.518.518,0,0,1,.683-.542l1.955.571a13.282,13.282,0,0,1,15.616,0l1.979-.578a.518.518,0,0,1,.658.549Zm-7.336-16.16a1.2,1.2,0,1,1-1.2,1.2A1.2,1.2,0,0,1,92.764,12.831Zm-5.744,0a1.2,1.2,0,1,1-1.2,1.2A1.2,1.2,0,0,1,87.02,12.831ZM81.11,32.7a1.989,1.989,0,0,1,1.7,1.963v.676a1.989,1.989,0,0,1-1.236,1.837l.6,5.732,7.2,1.528V29.947l-8.819-2.573Zm-.56,4.6a1.989,1.989,0,0,1-1.7-1.963v-.676a1.989,1.989,0,0,1,1.236-1.837l-.243-2.334a12.175,12.175,0,0,0-2.2,7,2.66,2.66,0,0,0,.953,1.955,7.535,7.535,0,0,0,2.322,1.381Zm.28-3.586a.95.95,0,0,0-.946.946v.676a.946.946,0,1,0,1.892,0v-.676A.95.95,0,0,0,80.83,33.713Zm18.87-.89a1.989,1.989,0,0,1,1.236,1.837v.676a1.989,1.989,0,0,1-1.7,1.963l-.368,3.529a7.534,7.534,0,0,0,2.322-1.381,2.66,2.66,0,0,0,.953-1.955,12.176,12.176,0,0,0-2.2-7Zm-1.493,4.349a1.989,1.989,0,0,1-1.236-1.837v-.676a1.989,1.989,0,0,1,1.7-1.963l.555-5.322L90.41,29.947V44.432l7.2-1.528Zm.747-3.459a.95.95,0,0,0-.946.946v.676a.946.946,0,0,0,1.892,0v-.676A.95.95,0,0,0,98.953,33.713ZM83.373,27.12l6.519,1.9,6.519-1.9a12.261,12.261,0,0,0-13.038,0ZM91.424,17.5a.518.518,0,0,1,0,1.037H88.36a.518.518,0,1,1,0-1.037ZM85.531,9.005a2.061,2.061,0,0,0-2.058,2.058v.369h-1.7a1.287,1.287,0,0,0-1.284,1.284v2.625a1.287,1.287,0,0,0,1.284,1.284h1.7v3.158a2.061,2.061,0,0,0,2.058,2.058h8.721a2.061,2.061,0,0,0,2.058-2.058V16.626h1.7a1.287,1.287,0,0,0,1.284-1.284V12.717a1.287,1.287,0,0,0-1.284-1.284h-1.7v-.369a2.061,2.061,0,0,0-2.058-2.058H85.531Zm10.78,3.464h1.7a.25.25,0,0,1,.248.248v2.625a.25.25,0,0,1-.248.248h-1.7Zm-12.838,3.12h-1.7a.25.25,0,0,1-.248-.248V12.717a.25.25,0,0,1,.248-.248h1.7Zm10.78-5.547H85.531a1.024,1.024,0,0,0-1.021,1.021v8.721a1.024,1.024,0,0,0,1.021,1.021h8.721a1.024,1.024,0,0,0,1.021-1.021V11.063A1.024,1.024,0,0,0,94.253,10.042Z" fill-rule="evenodd"/>
  </g>
</svg>
