<svg xmlns="http://www.w3.org/2000/svg" width="68.734" height="68.646" viewBox="0 0 68.734 68.646">
  <g id="ventas-y-marketing" transform="translate(-14.943 -15.088)">
    <path id="Trazado_821228" data-name="Trazado 821228" d="M183.731,53.593s1.037,3.848,4.021,4.027c0,0-3.984,1.376-4.051,4.317,0,0-.784-4.126-3.931-4.274,0,0,3.665-.555,3.961-4.07Z" transform="translate(-114.723 -26.8)" fill="#d6df58"/>
    <path id="Trazado_821229" data-name="Trazado 821229" d="M182.657,61.348a.456.456,0,0,1-.447-.37c-.007-.038-.759-3.775-3.5-3.9a.456.456,0,0,1-.047-.906c.134-.021,3.314-.552,3.575-3.657a.456.456,0,0,1,.894-.081c.01.035.991,3.534,3.609,3.691a.456.456,0,0,1,.122.886c-.037.013-3.686,1.311-3.745,3.9a.456.456,0,0,1-.418.444ZM180.3,56.567a5.313,5.313,0,0,1,2.308,2.7,6.484,6.484,0,0,1,2.722-2.562,5.568,5.568,0,0,1-2.535-2.652A4.9,4.9,0,0,1,180.3,56.567Z" transform="translate(-113.679 -25.756)" fill="#3a312a"/>
    <path id="Trazado_821230" data-name="Trazado 821230" d="M164.676,70.573s.733,2.722,2.844,2.848c0,0-2.818.973-2.866,3.053,0,0-.555-2.918-2.78-3.023a3.332,3.332,0,0,0,2.8-2.879Z" transform="translate(-102.267 -38.619)" fill="#d6df58"/>
    <path id="Trazado_821231" data-name="Trazado 821231" d="M163.61,75.886a.456.456,0,0,1-.447-.371c0-.025-.518-2.566-2.354-2.653a.456.456,0,0,1-.047-.906,2.857,2.857,0,0,0,2.416-2.466.456.456,0,0,1,.894-.081c.006.024.678,2.408,2.431,2.512a.456.456,0,0,1,.122.886c-.025.009-2.519.9-2.559,2.633a.456.456,0,0,1-.418.444Zm-1.375-3.5a3.9,3.9,0,0,1,1.353,1.605,4.766,4.766,0,0,1,1.632-1.512,4.07,4.07,0,0,1-1.5-1.588A3.635,3.635,0,0,1,162.236,72.382Z" transform="translate(-101.223 -37.574)" fill="#3a312a"/>
    <path id="Trazado_821232" data-name="Trazado 821232" d="M164.676,43.915s.733,2.722,2.844,2.848c0,0-2.818.973-2.866,3.053,0,0-.555-2.918-2.78-3.023a3.332,3.332,0,0,0,2.8-2.879Z" transform="translate(-102.267 -20.064)" fill="#d6df58"/>
    <path id="Trazado_821233" data-name="Trazado 821233" d="M163.61,49.228a.456.456,0,0,1-.447-.371c0-.025-.518-2.566-2.354-2.653a.456.456,0,0,1-.047-.906,2.857,2.857,0,0,0,2.416-2.466.456.456,0,0,1,.894-.081c.006.024.678,2.408,2.432,2.513a.456.456,0,0,1,.122.886c-.025.009-2.519.9-2.559,2.633a.456.456,0,0,1-.418.444Zm-1.375-3.5a3.9,3.9,0,0,1,1.353,1.605,4.766,4.766,0,0,1,1.632-1.512,4.071,4.071,0,0,1-1.5-1.589A3.636,3.636,0,0,1,162.236,45.724Z" transform="translate(-101.223 -19.02)" fill="#3a312a"/>
    <path id="Trazado_821234" data-name="Trazado 821234" d="M159.892,182.542h5.761v17.287h-5.761Z" transform="translate(-100.888 -116.552)" fill="#00ffc1"/>
    <path id="Trazado_821235" data-name="Trazado 821235" d="M164.61,199.241h-5.761a.456.456,0,0,1-.456-.456V181.5a.456.456,0,0,1,.456-.456h5.761a.456.456,0,0,1,.456.456v17.288A.456.456,0,0,1,164.61,199.241Zm-5.305-.912h4.849V181.953H159.3Z" transform="translate(-99.844 -115.507)" fill="#3a312a"/>
    <path id="Trazado_821236" data-name="Trazado 821236" d="M196.009,164.427v-9.584h-5.761V180.55h5.761V164.427Z" transform="translate(-122.016 -97.272)" fill="#ffe93e"/>
    <path id="Trazado_821237" data-name="Trazado 821237" d="M194.966,179.963H189.2a.456.456,0,0,1-.456-.456V153.8a.456.456,0,0,1,.456-.456h5.761a.456.456,0,0,1,.456.456v9.583a.456.456,0,1,1-.912,0v-9.127h-4.849v24.795h4.849V168.12a.456.456,0,0,1,.912,0v11.386A.456.456,0,0,1,194.966,179.963Z" transform="translate(-120.973 -96.229)" fill="#3a312a"/>
    <path id="Trazado_821238" data-name="Trazado 821238" d="M220.6,127.145h5.761v34.127H220.6Z" transform="translate(-143.144 -77.994)" fill="#fff"/>
    <path id="Trazado_821239" data-name="Trazado 821239" d="M225.321,160.684H219.56a.456.456,0,0,1-.456-.456V126.1a.456.456,0,0,1,.456-.456h5.761a.456.456,0,0,1,.456.456v34.127a.456.456,0,0,1-.456.456Zm-5.305-.912h4.849V126.558h-4.849Z" transform="translate(-142.1 -76.951)" fill="#3a312a"/>
    <path id="Trazado_821240" data-name="Trazado 821240" d="M57.012,187.6V179.3a9.142,9.142,0,0,0-9.15-9.144H41.813v-5.124H31.648v5.124H25.6a9.15,9.15,0,0,0-9.159,9.144V187.6Z" transform="translate(-1.044 -104.368)" fill="#f6e2c6"/>
    <path id="Trazado_821241" data-name="Trazado 821241" d="M55.968,187.009H15.4a.456.456,0,0,1-.456-.456v-8.293a9.618,9.618,0,0,1,9.615-9.6h5.59v-4.668a.456.456,0,0,1,.456-.456H40.769a.456.456,0,0,1,.456.456v4.668h5.593a9.614,9.614,0,0,1,9.606,9.6v8.293a.456.456,0,0,1-.456.456ZM15.855,186.1H55.512v-7.837a8.7,8.7,0,0,0-8.694-8.688H40.769a.456.456,0,0,1-.456-.456v-4.668H31.06v4.668a.456.456,0,0,1-.456.456H24.558a8.705,8.705,0,0,0-8.7,8.688V186.1Z" transform="translate(0 -103.324)" fill="#3a312a"/>
    <path id="Trazado_821242" data-name="Trazado 821242" d="M57.012,191.038v8.293H16.443v-8.293a9.15,9.15,0,0,1,9.159-9.144h6.688l4.435,5.888,4.438-5.888h6.7A9.142,9.142,0,0,1,57.012,191.038Z" transform="translate(-1.044 -116.101)" fill="#8bc0d7"/>
    <path id="Trazado_821243" data-name="Trazado 821243" d="M55.968,198.742H15.4a.456.456,0,0,1-.456-.456v-8.293a9.618,9.618,0,0,1,9.615-9.6h6.688a.456.456,0,0,1,.364.182l4.071,5.4,4.074-5.405a.456.456,0,0,1,.364-.181h6.7a9.614,9.614,0,0,1,9.606,9.6v8.293a.456.456,0,0,1-.456.456Zm-40.113-.912H55.512v-7.837a8.7,8.7,0,0,0-8.694-8.688H40.346l-4.3,5.707a.456.456,0,0,1-.728,0l-4.3-5.706h-6.46a8.705,8.705,0,0,0-8.7,8.688v7.837Z" transform="translate(0 -115.057)" fill="#3a312a"/>
    <path id="Trazado_821244" data-name="Trazado 821244" d="M57.012,191.038v8.293H16.443v-8.293a9.15,9.15,0,0,1,9.159-9.144h6.688l4.435,5.888,4.438-5.888h6.7A9.142,9.142,0,0,1,57.012,191.038Z" transform="translate(-1.044 -116.101)" fill="#eb6e7a"/>
    <path id="Trazado_821245" data-name="Trazado 821245" d="M55.968,198.742H15.4a.456.456,0,0,1-.456-.456v-8.293a9.618,9.618,0,0,1,9.615-9.6h6.688a.456.456,0,0,1,.364.182l4.071,5.4,4.074-5.405a.456.456,0,0,1,.364-.181h6.7a9.614,9.614,0,0,1,9.606,9.6v8.293a.456.456,0,0,1-.456.456Zm-40.113-.912H55.512v-7.837a8.7,8.7,0,0,0-8.694-8.688H40.346l-4.3,5.707a.456.456,0,0,1-.728,0l-4.3-5.706h-6.46a8.705,8.705,0,0,0-8.7,8.688v7.837Z" transform="translate(0 -115.057)" fill="#3a312a"/>
    <path id="Trazado_821246" data-name="Trazado 821246" d="M41.589,193.478v5.855h9.1L44.684,181.9H43.1a8.873,8.873,0,0,0-1.514.128v11.454Z" transform="translate(-18.546 -116.103)" fill="#87796f"/>
    <path id="Trazado_821247" data-name="Trazado 821247" d="M49.649,198.746h-9.1a.456.456,0,0,1-.456-.456v-5.855a.456.456,0,0,1,.912,0v5.4H49.01l-5.7-16.524H42.059a8.553,8.553,0,0,0-1.058.065v6.064a.456.456,0,0,1-.912,0v-6.457a.457.457,0,0,1,.378-.45,9.37,9.37,0,0,1,1.591-.134h1.581a.456.456,0,0,1,.431.307l6.01,17.436a.456.456,0,0,1-.431.6Z" transform="translate(-17.502 -115.059)" fill="#3a312a"/>
    <path id="Trazado_821248" data-name="Trazado 821248" d="M103.906,182.026v17.309H94.8l6.01-17.436h1.59A8.771,8.771,0,0,1,103.906,182.026Z" transform="translate(-55.581 -116.103)" fill="#87796f"/>
    <path id="Trazado_821249" data-name="Trazado 821249" d="M102.862,198.746H93.755a.456.456,0,0,1-.431-.6l6.01-17.436a.456.456,0,0,1,.431-.307h1.59a9.255,9.255,0,0,1,1.586.134.456.456,0,0,1,.378.449V198.29A.456.456,0,0,1,102.862,198.746Zm-8.468-.912h8.012v-16.46a8.508,8.508,0,0,0-1.052-.064H100.09Z" transform="translate(-54.537 -115.059)" fill="#3a312a"/>
    <path id="Trazado_821250" data-name="Trazado 821250" d="M78.732,206.69l1.059-5.409H74.548l1.059,5.409Z" transform="translate(-41.486 -129.594)" fill="#87796f"/>
    <path id="Trazado_821251" data-name="Trazado 821251" d="M77.689,206.1H74.564a.456.456,0,0,1-.447-.368l-1.059-5.409a.456.456,0,0,1,.447-.544h5.243a.456.456,0,0,1,.447.544l-1.059,5.409A.457.457,0,0,1,77.689,206.1Zm-2.749-.912h2.374l.88-4.5H74.059Z" transform="translate(-40.443 -128.55)" fill="#3a312a"/>
    <path id="Trazado_821252" data-name="Trazado 821252" d="M79.86,225.212H74.723l1.006-6.131h3.125Z" transform="translate(-41.608 -141.984)" fill="#87796f"/>
    <path id="Trazado_821253" data-name="Trazado 821253" d="M78.816,224.624H73.679a.456.456,0,0,1-.45-.53l1.006-6.131a.456.456,0,0,1,.45-.382H77.81a.456.456,0,0,1,.45.382l1.006,6.131a.456.456,0,0,1-.45.53Zm-4.6-.912h4.064l-.857-5.219h-2.35Z" transform="translate(-40.564 -140.939)" fill="#3a312a"/>
    <path id="Trazado_821254" data-name="Trazado 821254" d="M61.314,182.156l-3.259,2.451-6.284-8.341,3.259-2.458Z" transform="translate(-25.633 -110.473)" fill="#eb6e7a"/>
    <path id="Trazado_821255" data-name="Trazado 821255" d="M57.011,184.02a.455.455,0,0,1-.364-.182L50.362,175.5a.456.456,0,0,1,.09-.638L53.71,172.4a.456.456,0,0,1,.639.09l6.284,8.347a.455.455,0,0,1-.09.638l-3.259,2.451A.45.45,0,0,1,57.011,184.02Zm-5.646-8.707,5.736,7.613,2.53-1.9L53.9,173.4Z" transform="translate(-24.588 -109.43)" fill="#3a312a"/>
    <path id="Trazado_821256" data-name="Trazado 821256" d="M92.713,176.267l-6.284,8.341-3.264-2.451,6.29-8.347Z" transform="translate(-47.483 -110.473)" fill="#eb6e7a"/>
    <path id="Trazado_821257" data-name="Trazado 821257" d="M85.383,184.02a.454.454,0,0,1-.274-.091l-3.265-2.451a.455.455,0,0,1-.09-.639l6.29-8.347a.456.456,0,0,1,.639-.09l3.259,2.457a.456.456,0,0,1,.09.638l-6.284,8.341A.455.455,0,0,1,85.383,184.02Zm-2.625-3,2.535,1.9,5.736-7.613L88.5,173.405Z" transform="translate(-46.438 -109.43)" fill="#3a312a"/>
    <path id="Trazado_821258" data-name="Trazado 821258" d="M28.131,101.412a3.538,3.538,0,1,1-3.538-3.536A3.536,3.536,0,0,1,28.131,101.412Z" transform="translate(-4.255 -57.622)" fill="#f7e3c7" fill-rule="evenodd"/>
    <path id="Trazado_821259" data-name="Trazado 821259" d="M23.549,104.359a3.992,3.992,0,1,1,3.994-3.992A4,4,0,0,1,23.549,104.359Zm0-7.071a3.08,3.08,0,1,0,3.082,3.08,3.084,3.084,0,0,0-3.082-3.08Z" transform="translate(-3.211 -56.578)" fill="#3a312a"/>
    <path id="Trazado_821260" data-name="Trazado 821260" d="M129.705,101.412a3.538,3.538,0,1,1-3.538-3.536A3.536,3.536,0,0,1,129.705,101.412Z" transform="translate(-74.952 -57.622)" fill="#f7e3c7" fill-rule="evenodd"/>
    <path id="Trazado_821261" data-name="Trazado 821261" d="M125.124,104.359a3.992,3.992,0,1,1,3.994-3.992A4,4,0,0,1,125.124,104.359Zm0-7.071a3.08,3.08,0,1,0,3.082,3.08,3.084,3.084,0,0,0-3.082-3.08Z" transform="translate(-73.909 -56.578)" fill="#3a312a"/>
    <path id="Trazado_821262" data-name="Trazado 821262" d="M63.255,67.972c0,8.656-8.341,21.944-15.682,21.944-7.007,0-15.682-13.287-15.682-21.944a15.682,15.682,0,0,1,31.365,0Z" transform="translate(-11.795 -25.899)" fill="#f7e3c7"/>
    <path id="Trazado_821263" data-name="Trazado 821263" d="M46.528,89.328c-3.36,0-7.414-2.962-10.844-7.923-3.266-4.724-5.294-10.271-5.294-14.477a16.138,16.138,0,0,1,32.276,0c0,4.254-1.98,9.8-5.168,14.475-3.434,5.037-7.433,7.925-10.971,7.925Zm0-37.618A15.239,15.239,0,0,0,31.3,66.928c0,4.031,1.967,9.379,5.132,13.959,3.26,4.715,7.033,7.529,10.094,7.529,3.184,0,7-2.814,10.217-7.527,3.09-4.531,5.009-9.881,5.009-13.961A15.239,15.239,0,0,0,46.528,51.71Z" transform="translate(-10.751 -24.855)" fill="#3a312a"/>
    <path id="Trazado_821264" data-name="Trazado 821264" d="M63.292,99.776a1.531,1.531,0,1,1-1.531-1.53,1.53,1.53,0,0,1,1.531,1.53Z" transform="translate(-31.521 -57.88)" fill="#3a312a"/>
    <path id="Trazado_821265" data-name="Trazado 821265" d="M99.721,99.776a1.531,1.531,0,1,1-1.531-1.53A1.53,1.53,0,0,1,99.721,99.776Z" transform="translate(-56.877 -57.88)" fill="#3a312a"/>
    <path id="Trazado_821266" data-name="Trazado 821266" d="M51.8,113.73c0,1.088-1.181,1.97-2.637,1.97s-2.637-.882-2.637-1.97,1.181-1.97,2.637-1.97S51.8,112.642,51.8,113.73Z" transform="translate(-21.985 -67.286)" fill="#f59689"/>
    <path id="Trazado_821267" data-name="Trazado 821267" d="M108.357,113.73c0,1.088-1.18,1.97-2.637,1.97s-2.637-.882-2.637-1.97,1.181-1.97,2.637-1.97,2.637.882,2.637,1.97Z" transform="translate(-61.348 -67.286)" fill="#f59689"/>
    <path id="Trazado_821268" data-name="Trazado 821268" d="M72.512,138.924a4.887,4.887,0,0,1-4.745-2.956.456.456,0,1,1,.823-.392,3.991,3.991,0,0,0,3.922,2.436,4.1,4.1,0,0,0,3.906-2.4.456.456,0,1,1,.854.32A5.025,5.025,0,0,1,72.512,138.924Z" transform="translate(-36.736 -83.681)" fill="#3a312a"/>
    <path id="Trazado_821269" data-name="Trazado 821269" d="M64.822,128.988a3.96,3.96,0,0,0-2.953,1.05,3.96,3.96,0,0,0-2.953-1.05c-2.8,0-6.485,2.32-6.485,4.661,0,.423,1.1-.464,2.288-.888,1.024-.365,3.157-.138,4.2-.138a3.96,3.96,0,0,0,2.953-1.05,3.96,3.96,0,0,0,2.953,1.05c1.041,0,3.173-.227,4.2.138,1.189.423,2.288,1.311,2.288.888C71.308,131.308,67.621,128.988,64.822,128.988Z" transform="translate(-26.093 -79.277)" fill="#87796f"/>
    <g id="Grupo_1072534" data-name="Grupo 1072534" transform="translate(19.45 36.519)">
      <path id="Trazado_821270" data-name="Trazado 821270" d="M70.163,133.174a2.626,2.626,0,0,1-1.043-.416,9.924,9.924,0,0,0-1.3-.612A10.508,10.508,0,0,0,64.741,132c-.357.016-.7.03-.964.03a4.843,4.843,0,0,1-2.953-.875,4.844,4.844,0,0,1-2.953.875c-.268,0-.606-.015-.964-.03a10.478,10.478,0,0,0-3.081.142,9.9,9.9,0,0,0-1.3.612c-.645.345-1,.535-1.335.334a.552.552,0,0,1-.264-.488c0-2.635,3.911-5.117,6.941-5.117a4.843,4.843,0,0,1,2.953.875,4.844,4.844,0,0,1,2.953-.875c3.031,0,6.941,2.481,6.941,5.117a.554.554,0,0,1-.556.57ZM57.873,128.4c-2.3,0-5.413,1.758-5.949,3.648l.177-.094a10.6,10.6,0,0,1,1.422-.667,10.68,10.68,0,0,1,3.426-.194c.348.015.676.029.924.029a3.6,3.6,0,0,0,2.6-.886.456.456,0,0,1,.7,0,3.6,3.6,0,0,0,2.6.886c.249,0,.577-.014.925-.029a10.663,10.663,0,0,1,3.426.194,10.633,10.633,0,0,1,1.422.667l.164.087c-.533-1.674-3.253-3.641-5.935-3.641a3.6,3.6,0,0,0-2.6.886.472.472,0,0,1-.7,0,3.6,3.6,0,0,0-2.6-.886Z" transform="translate(-44.498 -114.752)" fill="#3a312a"/>
      <path id="Trazado_821271" data-name="Trazado 821271" d="M92.851,96.452a6.2,6.2,0,0,1-6.191-6.191c0-3.012,2.2-4.671,6.191-4.671s6.191,1.659,6.191,4.671A6.2,6.2,0,0,1,92.851,96.452Zm0-9.95c-3.5,0-5.279,1.265-5.279,3.759a5.279,5.279,0,1,0,10.557,0C98.13,87.767,96.354,86.5,92.851,86.5Z" transform="translate(-69.366 -85.591)" fill="#3a312a"/>
      <path id="Trazado_821272" data-name="Trazado 821272" d="M80.588,100.331H77.737a.456.456,0,0,1,0-.912h2.851a.456.456,0,1,1,0,.912Z" transform="translate(-62.838 -95.216)" fill="#3a312a"/>
      <path id="Trazado_821273" data-name="Trazado 821273" d="M33.348,95.347a.391.391,0,0,1-.046,0l-3.123-.315a.456.456,0,1,1,.091-.907l3.123.315a.456.456,0,0,1-.045.91Z" transform="translate(-29.768 -91.527)" fill="#3a312a"/>
      <path id="Trazado_821274" data-name="Trazado 821274" d="M124.386,95.35a.456.456,0,0,1-.053-.909l3.12-.371a.456.456,0,1,1,.108.906l-3.12.371A.477.477,0,0,1,124.386,95.35Z" transform="translate(-95.307 -91.49)" fill="#3a312a"/>
      <path id="Trazado_821275" data-name="Trazado 821275" d="M45.74,96.452a6.2,6.2,0,0,1-6.191-6.191c0-3.012,2.2-4.671,6.191-4.671s6.191,1.659,6.191,4.671A6.2,6.2,0,0,1,45.74,96.452Zm0-9.95c-3.5,0-5.279,1.265-5.279,3.759a5.279,5.279,0,0,0,10.558,0C51.018,87.767,49.242,86.5,45.74,86.5Z" transform="translate(-36.576 -85.591)" fill="#3a312a"/>
    </g>
    <path id="Trazado_821276" data-name="Trazado 821276" d="M46.911,40.917c-8.965,0-16.232,6.944-16.232,15.511a6.6,6.6,0,0,0,.469,2.426c.144.4,2.468-.873,2.666-1.012a8.44,8.44,0,0,0,2.4-2.684,9.159,9.159,0,0,0,.626-1.317c.535-1.409,1.989-5.33,3.465-5.022a34.1,34.1,0,0,0,13.206,0c1.476-.308,2.93,3.613,3.465,5.022a9.127,9.127,0,0,0,.626,1.317,7.079,7.079,0,0,0,4.737,3.669c.005-.1.13-.133.224-.167.672-.244.578-1.694.578-2.233,0-8.566-7.268-15.511-16.232-15.511Z" transform="translate(-10.953 -17.978)" fill="#87796f"/>
    <path id="Trazado_821277" data-name="Trazado 821277" d="M30.238,58.336a.654.654,0,0,1-.2-.026.564.564,0,0,1-.367-.345,7.02,7.02,0,0,1-.5-2.581c0-8.8,7.486-15.967,16.688-15.967S62.554,46.58,62.554,55.383l0,.175c.011.754.032,2.156-.879,2.487l-.008,0a.465.465,0,0,1-.082.088.454.454,0,0,1-.355.1,7.482,7.482,0,0,1-5.066-3.892,9.609,9.609,0,0,1-.658-1.384l-.034-.088c-1.607-4.238-2.515-4.731-2.912-4.649a34.565,34.565,0,0,1-13.392,0c-.4-.083-1.3.411-2.912,4.648l-.034.089a9.614,9.614,0,0,1-.658,1.383,8.923,8.923,0,0,1-2.535,2.829,8.748,8.748,0,0,1-2.794,1.165Zm31.515-.53h0ZM45.867,40.329c-8.7,0-15.776,6.754-15.776,15.055a5.914,5.914,0,0,0,.353,2.017,11.762,11.762,0,0,0,2.065-.977,8.007,8.007,0,0,0,2.27-2.539,8.735,8.735,0,0,0,.595-1.25l.034-.089c1.05-2.768,2.339-5.549,3.951-5.218a33.638,33.638,0,0,0,13.02,0c1.608-.335,2.9,2.449,3.951,5.218l.033.088a8.714,8.714,0,0,0,.595,1.251,6.728,6.728,0,0,0,4.177,3.4,1.055,1.055,0,0,1,.212-.1c.133-.048.319-.312.3-1.623l0-.188C61.642,47.082,54.565,40.329,45.867,40.329Z" transform="translate(-9.909 -16.934)" fill="#3a312a"/>
    <path id="Trazado_821278" data-name="Trazado 821278" d="M55.224,16.588A40.454,40.454,0,0,0,47.212,20.8c-2.517,1.809-4.3,3.555-4.3,5.36,0,4.449,5.512,8.055,12.311,8.055s12.311-3.607,12.311-8.055S55.376,16.588,55.224,16.588Z" transform="translate(-19.468 -1.044)" fill="#87796f"/>
    <path id="Trazado_821279" data-name="Trazado 821279" d="M54.18,33.631c-7.04,0-12.767-3.818-12.767-8.511,0-1.755,1.342-3.468,4.489-5.73a37.756,37.756,0,0,1,8.279-4.3,39.28,39.28,0,0,1,6.447,3.185c4.193,2.519,6.32,4.823,6.32,6.847C66.947,29.812,61.22,33.631,54.18,33.631ZM54.165,16.02a42.391,42.391,0,0,0-7.731,4.11c-2.842,2.042-4.109,3.581-4.109,4.989,0,4.19,5.318,7.6,11.855,7.6s11.855-3.409,11.855-7.6C66.035,21.341,55.606,16.56,54.165,16.02Z" transform="translate(-18.424 0)" fill="#3a312a"/>
    <path id="Trazado_821280" data-name="Trazado 821280" d="M132.989,192.6v7.837h-4.56V192.6a8.643,8.643,0,0,0-2.17-5.736v-2.727A8.7,8.7,0,0,1,132.989,192.6Z" transform="translate(-77.478 -117.662)" fill="#d04e5d"/>
    <path id="Trazado_821281" data-name="Trazado 821281" d="M117.5,183.462v2a8.662,8.662,0,0,0-2.514-1.489l.2-.571h1.265a8.453,8.453,0,0,1,1.052.064Z" transform="translate(-69.634 -117.147)" fill="#695b51"/>
  </g>
</svg>
