<svg xmlns="http://www.w3.org/2000/svg" xmlns:xlink="http://www.w3.org/1999/xlink" width="133.056" height="132.146" viewBox="0 0 133.056 132.146">
  <defs>
    <clipPath id="clip-path">
      <rect id="Rectángulo_376236" data-name="Rectángulo 376236" width="133.056" height="132.146" transform="translate(0 -12)" fill="#bec2c8"/>
    </clipPath>
    <clipPath id="clip-path-2">
      <rect id="Rectángulo_376235" data-name="Rectángulo 376235" width="133.056" height="126.095" transform="translate(0 -6.616)" fill="#bec2c8"/>
    </clipPath>
    <clipPath id="clip-path-3">
      <rect id="Rectángulo_376230" data-name="Rectángulo 376230" width="133.056" height="120.146" fill="#bec2c8"/>
    </clipPath>
    <clipPath id="clip-path-4">
      <rect id="Rectángulo_376232" data-name="Rectángulo 376232" width="14.251" height="8.87" fill="#bec2c8"/>
    </clipPath>
    <clipPath id="clip-path-5">
      <rect id="Rectángulo_376231" data-name="Rectángulo 376231" width="24.328" height="18.284" fill="#bec2c8"/>
    </clipPath>
    <clipPath id="clip-path-6">
      <rect id="Rectángulo_376233" data-name="Rectángulo 376233" width="5.504" height="5.119" fill="#bec2c8"/>
    </clipPath>
    <clipPath id="clip-path-7">
      <rect id="Rectángulo_376234" data-name="Rectángulo 376234" width="15.686" height="8.278" fill="#bec2c8"/>
    </clipPath>
  </defs>
  <g id="Grupo_1072564" data-name="Grupo 1072564" transform="translate(-1236.757 -3178.544)">
    <g id="Grupo_1072562" data-name="Grupo 1072562">
      <g id="Grupo_1072541" data-name="Grupo 1072541" transform="translate(1236.757 3190.544)">
        <g id="Grupo_1072558" data-name="Grupo 1072558" clip-path="url(#clip-path)">
          <g id="Grupo_1072557" data-name="Grupo 1072557" transform="translate(0 0.338)">
            <g id="Grupo_1072556" data-name="Grupo 1072556" transform="translate(0 0)" clip-path="url(#clip-path-2)">
              <g id="Grupo_1072543" data-name="Grupo 1072543" transform="translate(0 -0.338)" opacity="0.5" style="mix-blend-mode: multiply;isolation: isolate">
                <g id="Grupo_1072542" data-name="Grupo 1072542">
                  <g id="Grupo_1072541-2" data-name="Grupo 1072541" clip-path="url(#clip-path-3)">
                    <path id="Trazado_821337" data-name="Trazado 821337" d="M100.618,100C77.8,122.82,47.765,128.378,24.944,105.557-6.018,74.6-9.331,51.974,21.63,21.012,57.5-14.856,65.545,1.374,110.968,23.952,151.1,43.9,129.75,70.867,100.618,100" transform="translate(0 0.001)" fill="#bec2c8"/>
                  </g>
                </g>
              </g>
              <g id="Grupo_1072549" data-name="Grupo 1072549" transform="translate(12.96 8.06)" opacity="0.5" style="mix-blend-mode: multiply;isolation: isolate">
                <g id="Grupo_1072548" data-name="Grupo 1072548">
                  <g id="Grupo_1072547" data-name="Grupo 1072547" clip-path="url(#clip-path-4)">
                    <path id="Trazado_821339" data-name="Trazado 821339" d="M156.927,108.628a3.575,3.575,0,0,0,3.022,1.723,7.58,7.58,0,0,0,3.5-.865,27.187,27.187,0,0,0,5.782-3.853,4.99,4.99,0,0,0,1.437-1.626,1.806,1.806,0,0,0-.241-2.035,2.488,2.488,0,0,0-1.761-.487c-2.7.009-14.056,2.751-11.739,7.142" transform="translate(-156.618 -101.487)" fill="#bec2c8"/>
                  </g>
                </g>
              </g>
              <g id="Grupo_1072560" data-name="Grupo 1072560" transform="translate(-9 -10)">
                <g id="Grupo_1072546" data-name="Grupo 1072546" transform="translate(91.777 3.384)" opacity="0.5" style="mix-blend-mode: multiply;isolation: isolate">
                  <g id="Grupo_1072545" data-name="Grupo 1072545">
                    <g id="Grupo_1072544" data-name="Grupo 1072544" clip-path="url(#clip-path-5)">
                      <path id="Trazado_821338" data-name="Trazado 821338" d="M1131.743,62.932c.52.294,1.293.532,1.615.029a.969.969,0,0,0,.071-.725,4.977,4.977,0,0,0-1.778-2.443c-3.186-2.874-6.387-5.741-9.787-8.362-1.716-1.323-3.48-2.585-5.312-3.743-1.318-.834-3.644-2.78-5.29-2.716-3.033.117-2.4,3.779-.707,5.077,2.385,1.829,5.446,2.758,7.943,4.466,4.327,2.96,8.677,5.835,13.245,8.418" transform="translate(-1109.138 -44.97)" fill="#bec2c8"/>
                    </g>
                  </g>
                </g>
                <g id="Grupo_1072552" data-name="Grupo 1072552" transform="translate(83.808 4.06)" opacity="0.5" style="mix-blend-mode: multiply;isolation: isolate">
                  <g id="Grupo_1072551" data-name="Grupo 1072551">
                    <g id="Grupo_1072550" data-name="Grupo 1072550" clip-path="url(#clip-path-6)">
                      <path id="Trazado_821340" data-name="Trazado 821340" d="M1014.273,53.279a1.214,1.214,0,0,0-1.191.04.868.868,0,0,0-.236.821,2.209,2.209,0,0,0,.386.8,14.607,14.607,0,0,0,.9,1.171,5.847,5.847,0,0,0,2.788,2.082,1.259,1.259,0,0,0,.923-.038,1.158,1.158,0,0,0,.483-1.112c-.1-1.606-2.705-3.275-4.055-3.764" transform="translate(-1012.827 -53.143)" fill="#bec2c8"/>
                    </g>
                  </g>
                </g>
              </g>
              <g id="Grupo_1072555" data-name="Grupo 1072555" transform="translate(87.92 109.917)" opacity="0.5" style="mix-blend-mode: multiply;isolation: isolate">
                <g id="Grupo_1072554" data-name="Grupo 1072554">
                  <g id="Grupo_1072553" data-name="Grupo 1072553" clip-path="url(#clip-path-7)">
                    <path id="Trazado_821341" data-name="Trazado 821341" d="M1076.6,1333.2a8.083,8.083,0,0,0-3.168-.686c-1.734-.136-3.66-.215-5,.888l-.495-.012a28.838,28.838,0,0,0-3,1.825,6.093,6.093,0,0,0-2.1,2.126,2.417,2.417,0,0,0,.314,2.8,3.564,3.564,0,0,0,3.022.453,61.087,61.087,0,0,0,8.838-2.115c1.4-.447,3.005-1.207,3.2-2.662a2.755,2.755,0,0,0-1.6-2.618" transform="translate(-1062.527 -1332.44)" fill="#bec2c8"/>
                  </g>
                </g>
              </g>
            </g>
          </g>
        </g>
      </g>
      <g id="Grupo_1072542-2" data-name="Grupo 1072542" transform="translate(3.33 5)">
        <path id="Trazado_821331" data-name="Trazado 821331" d="M13.141,0,8.356,4.786,3.571,0,0,3.572,4.785,8.357,0,13.142l3.571,3.571,4.785-4.785,4.785,4.785,3.571-3.571L11.927,8.357l4.785-4.785Z" transform="translate(1349.771 3197.451)" fill="#4bf0f6"/>
        <g id="opinion-del-cliente" transform="translate(1239.331 3187.544)">
          <g id="Grupo_1072572" data-name="Grupo 1072572" transform="translate(30.881 0.741)">
            <ellipse id="Elipse_10457" data-name="Elipse 10457" cx="4.498" cy="4.498" rx="4.498" ry="4.498" transform="translate(21.969 22.529)" fill="#f8af23"/>
            <ellipse id="Elipse_10458" data-name="Elipse 10458" cx="4.498" cy="4.498" rx="4.498" ry="4.498" transform="translate(53.106 22.529)" fill="#f87023"/>
            <path id="Trazado_821342" data-name="Trazado 821342" d="M31.194,161.53H99.849V138.8a25.2,25.2,0,0,0-25.2-25.2H56.4a25.2,25.2,0,0,0-25.2,25.2V161.53Z" transform="translate(-23.486 -65.901)" fill="#63bce7"/>
            <g id="Grupo_1072566" data-name="Grupo 1072566" transform="translate(43.91 47.693)">
              <path id="Trazado_821343" data-name="Trazado 821343" d="M31.193,113.594h7.249a25.2,25.2,0,0,1,25.2,25.2V161.53H56.4V138.8A25.2,25.2,0,0,0,31.193,113.594Z" transform="translate(-31.193 -113.594)" fill="#6377e7"/>
            </g>
            <path id="Trazado_821344" data-name="Trazado 821344" d="M93.82,103.711a6.672,6.672,0,0,0,6.672-6.672V91.6a6.672,6.672,0,1,0-13.344,0v5.437A6.672,6.672,0,0,0,93.82,103.711Z" transform="translate(-51.785 -51.404)" fill="#f8af23"/>
            <path id="Trazado_821345" data-name="Trazado 821345" d="M91.432,92.061V97.5a6.669,6.669,0,0,1-4.284,6.224V85.837A6.669,6.669,0,0,1,91.432,92.061Z" transform="translate(-42.724 -51.863)" fill="#f87023"/>
            <path id="Trazado_821346" data-name="Trazado 821346" d="M99.8,133.43H27.1v41.426H99.8Z" transform="translate(-21.417 -75.933)" fill="#f8af23"/>
            <g id="Grupo_1072567" data-name="Grupo 1072567" transform="translate(71.136 57.497)">
              <path id="Trazado_821347" data-name="Trazado 821347" d="M34.352,133.43H27.1v41.426h7.249Z" transform="translate(-27.103 -133.43)" fill="#f8d323"/>
            </g>
            <path id="Trazado_821348" data-name="Trazado 821348" d="M23,222.527H92.269a6.781,6.781,0,0,0,5.375-2.647l2.025-2.633H15.6l2.025,2.633A6.782,6.782,0,0,0,23,222.527Z" transform="translate(-15.599 -118.325)" fill="#f8af23"/>
            <g id="Grupo_1072568" data-name="Grupo 1072568" transform="translate(69.422 98.922)">
              <path id="Trazado_821349" data-name="Trazado 821349" d="M20.973,219.88,23,217.247h7.249l-2.025,2.633a6.781,6.781,0,0,1-5.375,2.647H15.6A6.781,6.781,0,0,0,20.973,219.88Z" transform="translate(-15.598 -217.247)" fill="#e29e1c"/>
            </g>
            <ellipse id="Elipse_10459" data-name="Elipse 10459" cx="3.859" cy="3.859" rx="3.859" ry="3.859" transform="translate(38.177 74.148)" fill="#afafaf"/>
            <path id="Trazado_821350" data-name="Trazado 821350" d="M84.717,66.975a15.569,15.569,0,0,0,15.569-15.569V43.5a15.569,15.569,0,1,0-31.137,0v7.908A15.569,15.569,0,0,0,84.717,66.975Z" transform="translate(-42.681 -22.576)" fill="#f8af23"/>
            <g id="Grupo_1072569" data-name="Grupo 1072569" transform="translate(38.411 5.354)">
              <path id="Trazado_821351" data-name="Trazado 821351" d="M81.093,51.406V43.5a15.572,15.572,0,0,0-11.944-15.14A15.566,15.566,0,0,1,88.342,43.5v7.908a15.566,15.566,0,0,1-19.193,15.14,15.572,15.572,0,0,0,11.944-15.14Z" transform="translate(-69.149 -27.93)" fill="#f87023"/>
            </g>
            <path id="Trazado_821352" data-name="Trazado 821352" d="M100.285,41.974H97.938L93.675,35.3,69.148,40.182V32.666a15.569,15.569,0,1,1,31.137,0Z" transform="translate(-42.681 -17.097)" fill="#707070"/>
            <g id="Grupo_1072570" data-name="Grupo 1072570" transform="translate(38.411 0)">
              <path id="Trazado_821353" data-name="Trazado 821353" d="M69.149,17.526a15.566,15.566,0,0,1,19.193,15.14v9.308H85.994L81.731,35.3l-.639.127V32.666A15.571,15.571,0,0,0,69.149,17.526Z" transform="translate(-69.149 -17.097)" fill="#5b5b5b"/>
            </g>
            <g id="Grupo_1072571" data-name="Grupo 1072571" transform="translate(34.2 28.034)">
              <ellipse id="Elipse_10460" data-name="Elipse 10460" cx="1.534" cy="1.534" rx="1.534" ry="1.534" transform="translate(12.602)" fill="#3f3679"/>
              <ellipse id="Elipse_10461" data-name="Elipse 10461" cx="1.534" cy="1.534" rx="1.534" ry="1.534" transform="translate(0)" fill="#3f3679"/>
            </g>
          </g>
          <path id="Trazado_821354" data-name="Trazado 821354" d="M151.5,61.028h39.236a3.124,3.124,0,0,0,3.124-3.124V25.188a3.124,3.124,0,0,0-3.124-3.124H151.5a3.124,3.124,0,0,0-3.124,3.124V57.9A3.124,3.124,0,0,0,151.5,61.028Z" transform="translate(-144.532 -18.868)" fill="#cecece"/>
          <g id="Grupo_1072573" data-name="Grupo 1072573" transform="translate(3.844 3.196)">
            <path id="Trazado_821355" data-name="Trazado 821355" d="M222.539,22.064h7.249a3.124,3.124,0,0,0-3.124,3.124V57.9a3.124,3.124,0,0,0,3.124,3.124h-7.249a3.124,3.124,0,0,1-3.124-3.124V25.188a3.124,3.124,0,0,1,3.124-3.124Z" transform="translate(-219.415 -22.064)" fill="#e2e2e2"/>
          </g>
          <path id="Trazado_821356" data-name="Trazado 821356" d="M148.377,25.186a3.121,3.121,0,0,1,3.121-3.121h39.24a3.121,3.121,0,0,1,3.121,3.121v5.432H148.377V25.186Z" transform="translate(-144.533 -18.869)" fill="#f8af23"/>
          <g id="Grupo_1072574" data-name="Grupo 1072574" transform="translate(3.845 3.196)">
            <path id="Trazado_821357" data-name="Trazado 821357" d="M222.54,22.064h7.249a3.121,3.121,0,0,0-3.121,3.121v5.432h-7.249V25.186A3.121,3.121,0,0,1,222.54,22.064Z" transform="translate(-219.419 -22.064)" fill="#f8d323"/>
          </g>
          <g id="Grupo_1072576" data-name="Grupo 1072576" transform="translate(7.99 6.047)">
            <g id="Grupo_1072575" data-name="Grupo 1072575" transform="translate(23.358 0)">
              <ellipse id="Elipse_10462" data-name="Elipse 10462" cx="1.425" cy="1.425" rx="1.425" ry="1.425" transform="translate(10.982)" fill="#f46275"/>
              <ellipse id="Elipse_10463" data-name="Elipse 10463" cx="1.425" cy="1.425" rx="1.425" ry="1.425" transform="translate(5.491)" fill="#f46275"/>
              <ellipse id="Elipse_10464" data-name="Elipse 10464" cx="1.425" cy="1.425" rx="1.425" ry="1.425" transform="translate(0)" fill="#f46275"/>
            </g>
            <path id="Trazado_821358" data-name="Trazado 821358" d="M192,30.881h18.448a.884.884,0,0,0,.881-.881v-.41a.883.883,0,0,0-.881-.881H192a.884.884,0,0,0-.881.881V30A.884.884,0,0,0,192,30.881Z" transform="translate(-191.122 -28.276)" fill="#f46275"/>
          </g>
          <g id="Grupo_1072577" data-name="Grupo 1072577" transform="translate(7.807 20.903)">
            <path id="Trazado_821359" data-name="Trazado 821359" d="M160.4,58.4l-.789,1.6a.9.9,0,0,1-.68.494l-1.763.256a.9.9,0,0,0-.5,1.541l1.276,1.244a.9.9,0,0,1,.26.8l-.3,1.757a.9.9,0,0,0,1.311.952l1.577-.829a.9.9,0,0,1,.841,0l1.577.829a.9.9,0,0,0,1.311-.952l-.3-1.757a.9.9,0,0,1,.26-.8l1.276-1.244a.9.9,0,0,0-.5-1.541l-1.763-.256a.9.9,0,0,1-.68-.494l-.789-1.6A.9.9,0,0,0,160.4,58.4Z" transform="translate(-128.469 -57.892)" fill="#f8af23"/>
            <path id="Trazado_821360" data-name="Trazado 821360" d="M188.651,58.4l-.789,1.6a.9.9,0,0,1-.68.494l-1.763.256a.9.9,0,0,0-.5,1.541l1.276,1.244a.9.9,0,0,1,.26.8l-.3,1.757a.9.9,0,0,0,1.311.952l1.577-.829a.9.9,0,0,1,.841,0l1.577.829a.9.9,0,0,0,1.311-.952l-.3-1.757a.9.9,0,0,1,.26-.8L194,62.285a.9.9,0,0,0-.5-1.541l-1.763-.256a.9.9,0,0,1-.68-.494l-.789-1.6A.9.9,0,0,0,188.651,58.4Z" transform="translate(-170.682 -57.892)" fill="#f8af23"/>
            <path id="Trazado_821361" data-name="Trazado 821361" d="M216.9,58.4l-.789,1.6a.9.9,0,0,1-.68.494l-1.763.256a.9.9,0,0,0-.5,1.541l1.276,1.244a.9.9,0,0,1,.26.8l-.3,1.757a.9.9,0,0,0,1.311.952l1.577-.829a.9.9,0,0,1,.841,0l1.577.829a.9.9,0,0,0,1.311-.952l-.3-1.757a.9.9,0,0,1,.26-.8l1.276-1.244a.9.9,0,0,0-.5-1.541l-1.763-.256a.9.9,0,0,1-.68-.494l-.789-1.6A.9.9,0,0,0,216.9,58.4Z" transform="translate(-212.894 -57.892)" fill="#f8af23"/>
          </g>
          <g id="Grupo_1072578" data-name="Grupo 1072578" transform="translate(0 0)">
            <path id="Trazado_821362" data-name="Trazado 821362" d="M8.561,237.4h8.9a.741.741,0,1,1,0,1.483h-8.9a.741.741,0,1,1,0-1.483Z" transform="translate(100.595 -127.777)" fill="#3f3679"/>
            <path id="Trazado_821363" data-name="Trazado 821363" d="M227.918,237.4h8.9a.741.741,0,1,1,0,1.483h-8.9a.741.741,0,1,1,0-1.483Z" transform="translate(-227.177 -127.777)" fill="#3f3679"/>
            <path id="Trazado_821364" data-name="Trazado 821364" d="M36.763,237.4H126.2a.741.741,0,1,1,0,1.483H36.762a.741.741,0,1,1,0-1.483Z" transform="translate(-22.083 -127.777)" fill="#3f3679"/>
            <path id="Trazado_821365" data-name="Trazado 821365" d="M8.561,121.283a.741.741,0,0,1,0-1.483H41.644a7.447,7.447,0,0,1-1.5-1.454l-2.025-2.633a.741.741,0,0,1,.588-1.193h4.944V95.29H34.406a.742.742,0,0,1-.741-.741V58.5H14.788a3.869,3.869,0,0,1-3.864-3.865V21.915a3.867,3.867,0,0,1,3.862-3.862H54.027a3.867,3.867,0,0,1,3.862,3.862V54.634A3.869,3.869,0,0,1,54.025,58.5H35.148V93.806h8.5V73.835a.742.742,0,0,1,.741-.741H51.3a25.826,25.826,0,0,1,20.314-9.8h1.834a7.412,7.412,0,0,1-.124-1.317V59.689a16.365,16.365,0,0,1-8.534-11.1,5.233,5.233,0,0,1-.363-10.4V31.907a16.31,16.31,0,1,1,32.62,0v6.274a5.235,5.235,0,0,1-.363,10.4,16.364,16.364,0,0,1-8.534,11.1v2.284a7.412,7.412,0,0,1-.124,1.317H89.86a25.8,25.8,0,0,1,20.308,9.8h6.917a.742.742,0,0,1,.741.741V114.52h4.944a.741.741,0,0,1,.588,1.193l-2.025,2.633a7.431,7.431,0,0,1-1.5,1.453h6.046a.741.741,0,0,1,0,1.483H8.561ZM14.788,19.535a2.385,2.385,0,0,0-2.382,2.382V26.6h44V21.916a2.385,2.385,0,0,0-2.382-2.382Zm41.619,35.1V28.088h-44V54.634a2.385,2.385,0,0,0,2.382,2.382H54.024A2.385,2.385,0,0,0,56.406,54.634Zm5-11.268a3.76,3.76,0,0,0,3.13,3.7,16.351,16.351,0,0,1-.114-1.9V39.683A3.762,3.762,0,0,0,61.41,43.365ZM95.563,31.907a14.827,14.827,0,1,0-29.654,0V38.52l23.641-4.7a.739.739,0,0,1,.77.328l4.044,6.33h1.2V31.907Zm4.5,11.458a3.757,3.757,0,0,0-3.016-3.68v5.483a16.453,16.453,0,0,1-.114,1.9A3.759,3.759,0,0,0,100.062,43.365Zm-4.5,1.8V41.957H93.957a.742.742,0,0,1-.625-.342l-3.99-6.246L65.909,40.032V45.17a14.827,14.827,0,1,0,29.654,0ZM80.736,61.479a16.214,16.214,0,0,1-5.931-1.121v1.616a5.931,5.931,0,1,0,11.862,0V60.358A16.218,16.218,0,0,1,80.736,61.479Zm9.123,3.294H87.6a7.407,7.407,0,0,1-13.721,0H71.613a24.332,24.332,0,0,0-18.376,8.321h55.006a24.312,24.312,0,0,0-18.383-8.321Zm26.484,9.8H45.128V114.52h71.216Zm-.973,45.223a6.079,6.079,0,0,0,4.788-2.358L121.266,116H40.207l1.107,1.439A6.08,6.08,0,0,0,46.1,119.8Z" transform="translate(-7.82 -15.597)" fill="#3f3679"/>
            <path id="Trazado_821366" data-name="Trazado 821366" d="M95.941,165.621a4.6,4.6,0,1,1-4.6,4.6A4.605,4.605,0,0,1,95.941,165.621Zm0,7.717a3.117,3.117,0,1,0-3.117-3.117A3.121,3.121,0,0,0,95.941,173.338Z" transform="translate(-23.025 -91.473)" fill="#3f3679"/>
            <path id="Trazado_821367" data-name="Trazado 821367" d="M99.889,83.366a.742.742,0,0,1-.741-.741V80.055a.741.741,0,0,1,1.483,0v2.569A.742.742,0,0,1,99.889,83.366Z" transform="translate(-26.973 -47.822)" fill="#3f3679"/>
            <path id="Trazado_821368" data-name="Trazado 821368" d="M94.578,92.442a.741.741,0,0,1,1.115-.978,2.377,2.377,0,0,0,3.584,0,.741.741,0,1,1,1.115.978,3.86,3.86,0,0,1-5.814,0Z" transform="translate(-24.569 -53.84)" fill="#3f3679"/>
            <path id="Trazado_821369" data-name="Trazado 821369" d="M82.743,69.219h4.348a.741.741,0,0,1,0,1.483H82.743a.741.741,0,0,1,0-1.483Z" transform="translate(-5.701 -42.717)" fill="#3f3679"/>
            <path id="Trazado_821370" data-name="Trazado 821370" d="M112.587,70.7h-4.348a.741.741,0,0,1,0-1.483h4.348a.741.741,0,1,1,0,1.483Z" transform="translate(-43.798 -42.717)" fill="#3f3679"/>
            <path id="Trazado_821371" data-name="Trazado 821371" d="M157.431,30.667A2.167,2.167,0,1,1,159.6,28.5,2.17,2.17,0,0,1,157.431,30.667Zm0-2.851a.684.684,0,1,0,.684.684A.685.685,0,0,0,157.431,27.816Z" transform="translate(-113.675 -21.027)" fill="#3f3679"/>
            <path id="Trazado_821372" data-name="Trazado 821372" d="M168.541,30.667a2.167,2.167,0,1,1,2.167-2.167A2.17,2.17,0,0,1,168.541,30.667Zm0-2.851a.684.684,0,1,0,.684.684A.685.685,0,0,0,168.541,27.816Z" transform="translate(-130.276 -21.027)" fill="#3f3679"/>
            <path id="Trazado_821373" data-name="Trazado 821373" d="M179.65,30.667a2.167,2.167,0,1,1,2.167-2.167A2.17,2.17,0,0,1,179.65,30.667Zm0-2.851a.684.684,0,1,0,.684.684A.685.685,0,0,0,179.65,27.816Z" transform="translate(-146.876 -21.027)" fill="#3f3679"/>
            <path id="Trazado_821374" data-name="Trazado 821374" d="M209.692,30.864H191.244a1.624,1.624,0,0,1-1.622-1.622v-.41a1.624,1.624,0,0,1,1.622-1.623h18.448a1.624,1.624,0,0,1,1.622,1.623v.41A1.624,1.624,0,0,1,209.692,30.864Zm.139-2.033a.144.144,0,0,0-.139-.14H191.244a.144.144,0,0,0-.139.14v.41a.143.143,0,0,0,.139.139h18.448a.143.143,0,0,0,.139-.139Z" transform="translate(-182.372 -21.47)" fill="#3f3679"/>
            <path id="Trazado_821375" data-name="Trazado 821375" d="M156.3,59.252,158.065,59a.164.164,0,0,0,.123-.089l.788-1.6a1.633,1.633,0,0,1,1.474-.917h0a1.634,1.634,0,0,1,1.475.916l.789,1.6a.161.161,0,0,0,.121.088l1.764.256a1.645,1.645,0,0,1,.911,2.806L164.235,63.3a.163.163,0,0,0-.046.143l.3,1.757a1.643,1.643,0,0,1-2.387,1.734l-1.578-.83a.162.162,0,0,0-.15,0l-1.577.829a1.645,1.645,0,0,1-2.387-1.734l.3-1.756a.162.162,0,0,0-.047-.144l-1.276-1.244a1.645,1.645,0,0,1,.912-2.806ZM156.425,61,157.7,62.24a1.645,1.645,0,0,1,.473,1.456l-.3,1.756a.162.162,0,0,0,.235.171l1.577-.829a1.643,1.643,0,0,1,1.532,0l1.577.83a.162.162,0,0,0,.235-.171l-.3-1.757a1.645,1.645,0,0,1,.473-1.456L164.478,61a.162.162,0,0,0-.089-.277l-1.764-.256a1.644,1.644,0,0,1-1.238-.9l-.789-1.6a.162.162,0,0,0-.291,0h0l-.789,1.6a1.646,1.646,0,0,1-1.239.9l-1.762.256a.153.153,0,0,0-.132.111A.151.151,0,0,0,156.425,61Z" transform="translate(-119.903 -36.23)" fill="#3f3679"/>
            <path id="Trazado_821376" data-name="Trazado 821376" d="M187.048,66.935a1.645,1.645,0,0,1-2.387-1.734l.3-1.756a.162.162,0,0,0-.047-.144l-1.276-1.244a1.645,1.645,0,0,1,.912-2.806L186.314,59a.164.164,0,0,0,.123-.089l.788-1.6a1.633,1.633,0,0,1,1.474-.917h0a1.634,1.634,0,0,1,1.475.916l.789,1.6a.161.161,0,0,0,.121.088l1.764.256a1.645,1.645,0,0,1,.911,2.806L192.485,63.3a.162.162,0,0,0-.046.143l.3,1.757a1.643,1.643,0,0,1-2.387,1.734l-1.578-.83a.162.162,0,0,0-.15,0Zm2.418-2.142,1.577.83a.162.162,0,0,0,.235-.171l-.3-1.757a1.645,1.645,0,0,1,.473-1.456L192.727,61a.162.162,0,0,0-.089-.277l-1.764-.256a1.644,1.644,0,0,1-1.238-.9l-.789-1.6a.162.162,0,0,0-.291,0h0l-.789,1.6a1.646,1.646,0,0,1-1.239.9l-1.762.256a.153.153,0,0,0-.132.111.151.151,0,0,0,.041.166l1.276,1.244a1.645,1.645,0,0,1,.473,1.456l-.3,1.756a.162.162,0,0,0,.235.171l1.577-.829a1.643,1.643,0,0,1,1.532,0Z" transform="translate(-162.115 -36.229)" fill="#3f3679"/>
            <path id="Trazado_821377" data-name="Trazado 821377" d="M220.735,63.3a.162.162,0,0,0-.046.143l.3,1.757a1.643,1.643,0,0,1-2.387,1.734l-1.578-.83a.162.162,0,0,0-.15,0l-1.577.829a1.645,1.645,0,0,1-2.387-1.734l.3-1.756a.162.162,0,0,0-.047-.144l-1.276-1.244a1.645,1.645,0,0,1,.912-2.806L214.564,59a.164.164,0,0,0,.123-.089l.788-1.6a1.633,1.633,0,0,1,1.474-.917h0a1.634,1.634,0,0,1,1.475.916l.789,1.6a.161.161,0,0,0,.121.088l1.764.256a1.645,1.645,0,0,1,.911,2.806Zm.282-2.472a.152.152,0,0,0-.13-.111l-1.764-.256a1.644,1.644,0,0,1-1.238-.9l-.789-1.6a.162.162,0,0,0-.291,0h0l-.789,1.6a1.646,1.646,0,0,1-1.239.9l-1.762.256a.153.153,0,0,0-.132.111.151.151,0,0,0,.041.166l1.276,1.244a1.645,1.645,0,0,1,.473,1.456l-.3,1.756a.162.162,0,0,0,.235.171l1.577-.829a1.643,1.643,0,0,1,1.532,0l1.577.83a.162.162,0,0,0,.235-.171l-.3-1.757a1.645,1.645,0,0,1,.473-1.456L220.977,61A.151.151,0,0,0,221.018,60.829Z" transform="translate(-204.327 -36.229)" fill="#3f3679"/>
          </g>
        </g>
        <g id="Grupo_1072539" data-name="Grupo 1072539" transform="translate(-1 321.729)">
          <g id="Trazado_821329" data-name="Trazado 821329" transform="translate(1245.948 2936.5)" fill="none">
            <path d="M15.609,0A15.609,15.609,0,1,1,0,15.609,15.609,15.609,0,0,1,15.609,0Z" stroke="none"/>
            <path d="M 15.60876655578613 3 C 12.24084663391113 3 9.074506759643555 4.311540603637695 6.693027496337891 6.693031311035156 C 4.31153678894043 9.07451057434082 2.999996185302734 12.2408504486084 2.999996185302734 15.60878086090088 C 2.999996185302734 18.97671127319336 4.31153678894043 22.14305114746094 6.693027496337891 24.5245304107666 C 9.074506759643555 26.90602111816406 12.24084663391113 28.21755981445312 15.60876655578613 28.21755981445312 C 18.97668647766113 28.21755981445312 22.14302635192871 26.90602111816406 24.52450561523438 24.5245304107666 C 26.90599632263184 22.14305114746094 28.21753692626953 18.97671127319336 28.21753692626953 15.60878086090088 C 28.21753692626953 12.2408504486084 26.90599632263184 9.07451057434082 24.52450561523438 6.693031311035156 C 22.14302635192871 4.311540603637695 18.97668647766113 3 15.60876655578613 3 M 15.60876655578613 0 C 24.22924613952637 0 31.21753692626953 6.988290786743164 31.21753692626953 15.60878086090088 C 31.21753692626953 24.22927093505859 24.22924613952637 31.21756172180176 15.60876655578613 31.21756172180176 C 6.988286972045898 31.21756172180176 -3.814697265625e-06 24.22927093505859 -3.814697265625e-06 15.60878086090088 C -3.814697265625e-06 6.988290786743164 6.988286972045898 0 15.60876655578613 0 Z" stroke="none" fill="#fff"/>
          </g>
          <line id="Línea_3785" data-name="Línea 3785" y1="25.838" x2="22.489" transform="translate(1244.092 2947.085)" fill="none" stroke="#78f0f4" stroke-linecap="round" stroke-miterlimit="10" stroke-width="2" stroke-dasharray="5 7"/>
        </g>
      </g>
    </g>
  </g>
</svg>
