<svg xmlns="http://www.w3.org/2000/svg" width="77" height="77" viewBox="0 0 77 77">
  <g id="Grupo_1071341" data-name="Grupo 1071341" transform="translate(-200 -2153)">
    <path id="Trazado_815435" data-name="Trazado 815435" d="M38.5,0A38.5,38.5,0,1,1,0,38.5,38.5,38.5,0,0,1,38.5,0Z" transform="translate(200 2153)" fill="#ebffff"/>
    <g id="estudio_3_" data-name="estudio (3)" transform="translate(200.585 2153.085)">
      <path id="Trazado_816748" data-name="Trazado 816748" d="M58.187,37.915H50.2l-.41-2.05a5.114,5.114,0,1,0-4.761,0l-.41,2.05H43.334a5.881,5.881,0,0,0-2.128-2.638,4.393,4.393,0,0,0-.666-4.568,2.54,2.54,0,0,0,.3-1.195V28.053a2.56,2.56,0,0,0-1.461-2.31V22.209A6.216,6.216,0,0,0,33.167,16H30.61v1.461h2.557a4.754,4.754,0,0,1,4.748,4.748V25.5h-.731a.731.731,0,0,0-.731-.731h-.013a1.835,1.835,0,0,1-1.566-.887l-1.447-2.411a.731.731,0,0,0-1.253,0l-.064.106a6.608,6.608,0,0,1-5.637,3.192H24.766a.731.731,0,0,0-.731.731h-.731V22.209a4.754,4.754,0,0,1,4.748-4.748h1.1V16h-1.1a6.216,6.216,0,0,0-6.209,6.209v3.534a2.56,2.56,0,0,0-1.461,2.31v1.461a2.542,2.542,0,0,0,.3,1.195,4.393,4.393,0,0,0-.667,4.567,5.858,5.858,0,0,0-2.326,6.451l-.064.024-.016.006a2.557,2.557,0,0,0-1.139,3.848l4.777,7.234a4.36,4.36,0,0,0-.862,2.608H18.932a25.49,25.49,0,0,1,.469-4.241l-1.433-.284a26.953,26.953,0,0,0-.5,4.525h-.74a.73.73,0,0,0-.731.731V59.1a.73.73,0,0,0,.731.731H30.61V58.369H17.461V56.908H58.369v1.461h-26.3V59.83H59.1a.731.731,0,0,0,.731-.731V56.178a.731.731,0,0,0-.731-.731H51.795V53.986h6.392a1.646,1.646,0,0,0,1.644-1.644V44.49H58.369v7.853a.183.183,0,0,1-.183.183H51.541L50.322,45.82a.731.731,0,0,0-.719-.6H45.22a.73.73,0,0,0-.719.6l-1.219,6.705H36.637a.183.183,0,0,1-.183-.183V39.559a.183.183,0,0,1,.183-.183h21.55a.183.183,0,0,1,.183.183v3.47H59.83v-3.47a1.646,1.646,0,0,0-1.644-1.644Zm-10.8-2.922a2.192,2.192,0,1,1,.057,0h-.057Zm.028-7.305a3.654,3.654,0,0,1,3.579,4.383,3.653,3.653,0,0,0-7.158,0,3.654,3.654,0,0,1,3.579-4.383Zm-9.131-.731a1.1,1.1,0,0,1,1.1,1.1v1.461a1.1,1.1,0,0,1-1.1,1.1h-1.1V26.958Zm-11.806-.731A8.083,8.083,0,0,0,32.76,23.2l.862,1.436a3.306,3.306,0,0,0,2.1,1.516V31a3.813,3.813,0,0,1-1.8,3.252l-1.772,1.108a2.9,2.9,0,0,1-3.086.007l-1.749-1.082A3.811,3.811,0,0,1,25.5,31.025v-4.8Zm7.01,12.251L30.61,42.5l-2.874-4.024.394-1.969.164.1a4.356,4.356,0,0,0,4.629-.011l.165-.1ZM21.844,28.053a1.1,1.1,0,0,1,1.1-1.1h1.1V30.61h-1.1a1.1,1.1,0,0,1-1.1-1.1ZM21.32,36.2a.73.73,0,0,0,.278-1.054,2.928,2.928,0,0,1,.115-3.387,2.541,2.541,0,0,0,1.227.314h1.2a5.257,5.257,0,0,0,2.408,3.458l.258.16L26.3,38.223a13.749,13.749,0,0,0-5.314,4.995l-.175-.336-.014-.025A2.557,2.557,0,0,0,19.2,41.65,4.391,4.391,0,0,1,21.32,36.2Zm-3.654,8.571a1.1,1.1,0,0,1,.486-1.655l.016-.006a1.1,1.1,0,0,1,1.352.463l4,7.676a4.366,4.366,0,0,0-1.2.567L17.681,44.79l-.015-.022Zm4.178,10.679a2.922,2.922,0,1,1,5.844,0Zm22.646-1.4,1.34-7.371h3.164l1.34,7.371v1.4H44.49Zm-7.853-.066h6.392v1.461H29.149a4.389,4.389,0,0,0-4.075-4.372l-3.3-6.344a12.877,12.877,0,0,1,4.99-5.1l3.255,4.557a.731.731,0,0,0,1.189,0l3.255-4.557q.269.142.534.3V52.342A1.646,1.646,0,0,0,36.637,53.986ZM35.4,38.476q-.237-.133-.478-.253l-.511-2.553.283-.177a5.262,5.262,0,0,0,2.382-3.422h1.2a2.541,2.541,0,0,0,1.227-.314,2.927,2.927,0,0,1,.115,3.387A.731.731,0,0,0,39.9,36.2a4.41,4.41,0,0,1,1.811,1.717H36.637a1.64,1.64,0,0,0-1.236.561Zm10.71-.561.311-1.557a5.144,5.144,0,0,0,1.978,0l.311,1.557Z"/>
      <path id="Trazado_816749" data-name="Trazado 816749" d="M352,192h1.461v1.461H352Z" transform="translate(-305.319 -159.929)"/>
      <path id="Trazado_816750" data-name="Trazado 816750" d="M352,296h5.113v1.461H352Z" transform="translate(-305.319 -254.432)"/>
      <path id="Trazado_816751" data-name="Trazado 816751" d="M312,296h2.191v1.461H312Z" transform="translate(-268.971 -254.432)"/>
    </g>
  </g>
</svg>
