<svg xmlns="http://www.w3.org/2000/svg" width="77" height="77" viewBox="0 0 77 77">
  <g id="Grupo_1071342" data-name="Grupo 1071342" transform="translate(-620 -2153)">
    <path id="Trazado_815435" data-name="Trazado 815435" d="M38.5,0A38.5,38.5,0,1,1,0,38.5,38.5,38.5,0,0,1,38.5,0Z" transform="translate(620 2153)" fill="#ebffff"/>
    <g id="conferencia" transform="translate(634.103 2167.103)">
      <path id="Trazado_816803" data-name="Trazado 816803" d="M47.795,1H23.643V6.222L19.883,9.23a3.788,3.788,0,0,1-2.357.827h0a5.285,5.285,0,1,0-7.336.041A5.289,5.289,0,0,0,5.529,15.34v3.774H1V37.228H4.019v2.267h1.51V36.476a.756.756,0,0,1,.755-.755h7.548a.756.756,0,0,1,.755.755v3.019H16.1V36.476a2.26,2.26,0,0,0-1.515-2.127c0-.046.005-.091.005-.137a4.5,4.5,0,0,0-.14-1.1,2.608,2.608,0,0,0,1.273.341,2.644,2.644,0,0,0,2.642-2.641V20.624h5.283v3.019h8.926l-3.461,4.038,1.146.982,4.3-5.019h.408v4.529h1.51V23.643h.408l4.3,5.019,1.146-.982-3.461-4.038h5.907V35.719H43.127a2.246,2.246,0,0,0-.638-.937c.011-.19.023-.38.023-.571a4.529,4.529,0,0,0-9.057,0,2.267,2.267,0,0,0-2.264,2.264v3.019H32.7V36.476a.756.756,0,0,1,.755-.755H41a.756.756,0,0,1,.755.755v3.019h1.51V37.228h3.019V23.643h1.51ZM37.983,31.193A3.022,3.022,0,0,1,41,34.212H34.964A3.022,3.022,0,0,1,37.983,31.193ZM10.057,6.283a3.774,3.774,0,1,1,3.774,3.774A3.778,3.778,0,0,1,10.057,6.283Zm-5.9,29.436H2.51v-15.1H5.529a3.022,3.022,0,0,0,3.019,3.019H9.3v6.108a4.532,4.532,0,0,0-3.774,4.461c0,.046,0,.091.005.137A2.262,2.262,0,0,0,4.159,35.719Zm5.9-4.526a3.022,3.022,0,0,1,3.019,3.019H7.038A3.022,3.022,0,0,1,10.057,31.193ZM16.85,18.323v12.49a1.132,1.132,0,0,1-2.264,0v-8.68h-1.51v8.68c0,.012,0,.023,0,.036a4.515,4.515,0,0,0-2.268-1.1V16.85H9.3v5.283H8.548a1.511,1.511,0,0,1-1.51-1.51V15.34a3.778,3.778,0,0,1,3.774-3.774h6.714a5.309,5.309,0,0,0,3.3-1.157l5.747-4.6a1.29,1.29,0,0,1,.805-.282h.256a1.291,1.291,0,0,1,.814,2.292L17.686,16.565a2.258,2.258,0,0,0-.836,1.758Zm21.888-6.757V8.548h4.529v4.529H34.209v-1.51Zm-1.51-1.51H28.091L29.4,8.993a2.792,2.792,0,0,0,1.034-2.174,2.763,2.763,0,0,0-.33-1.291h7.123ZM18.359,19.114v-.791a.752.752,0,0,1,.279-.586l5-4.066v5.443Zm27.926,3.019H25.152V12.445l1.081-.879H32.7v3.019H44.776V7.038H38.738V4.019H27.379a2.807,2.807,0,0,0-1.749.614l-.479.382V2.51H46.285Z" transform="translate(0 0)"/>
      <path id="Trazado_816804" data-name="Trazado 816804" d="M15.561,53.666c0-.046.005-.091.005-.137a4.529,4.529,0,1,0-9.057,0c0,.046,0,.091.005.137A2.26,2.26,0,0,0,5,55.793v3.774H17.076V55.793A2.26,2.26,0,0,0,15.561,53.666ZM11.038,50.51a3.022,3.022,0,0,1,3.019,3.019H8.019A3.022,3.022,0,0,1,11.038,50.51Zm4.529,7.548H6.51V55.793a.756.756,0,0,1,.755-.755h7.548a.756.756,0,0,1,.755.755Z" transform="translate(-0.981 -11.772)"/>
      <path id="Trazado_816805" data-name="Trazado 816805" d="M33.561,53.666c0-.046.005-.091.005-.137a4.529,4.529,0,1,0-9.057,0c0,.046,0,.091.005.137A2.26,2.26,0,0,0,23,55.793v3.774H35.076V55.793A2.26,2.26,0,0,0,33.561,53.666ZM29.038,50.51a3.022,3.022,0,0,1,3.019,3.019H26.019A3.022,3.022,0,0,1,29.038,50.51Zm4.529,7.548H24.51V55.793a.756.756,0,0,1,.755-.755h7.548a.756.756,0,0,1,.755.755Z" transform="translate(-5.395 -11.772)"/>
      <path id="Trazado_816806" data-name="Trazado 816806" d="M51.561,53.666c0-.046.005-.091.005-.137a4.529,4.529,0,1,0-9.057,0c0,.046,0,.091.005.137A2.26,2.26,0,0,0,41,55.793v3.774H53.076V55.793A2.26,2.26,0,0,0,51.561,53.666ZM47.038,50.51a3.022,3.022,0,0,1,3.019,3.019H44.019A3.022,3.022,0,0,1,47.038,50.51Zm4.529,7.548H42.51V55.793a.756.756,0,0,1,.755-.755h7.548a.756.756,0,0,1,.755.755Z" transform="translate(-9.81 -11.772)"/>
      <path id="Trazado_816807" data-name="Trazado 816807" d="M34.3,44.1c.011-.19.023-.38.023-.571a4.529,4.529,0,1,0-9.057,0A2.267,2.267,0,0,0,23,45.8v3.019h1.51V45.8a.756.756,0,0,1,.755-.755h7.548a.756.756,0,0,1,.755.755v3.019h1.51V45.8A2.25,2.25,0,0,0,34.3,44.1Zm-4.506-3.59a3.022,3.022,0,0,1,3.019,3.019H26.774A3.022,3.022,0,0,1,29.793,40.513Z" transform="translate(-5.395 -9.32)"/>
      <path id="Trazado_816808" data-name="Trazado 816808" d="M35,21h1.51v1.51H35Z" transform="translate(-8.338 -4.905)"/>
      <path id="Trazado_816809" data-name="Trazado 816809" d="M39,21H54.1v1.51H39Z" transform="translate(-9.319 -4.905)"/>
      <path id="Trazado_816810" data-name="Trazado 816810" d="M35,25H53.114v1.51H35Z" transform="translate(-8.338 -5.886)"/>
    </g>
  </g>
</svg>
