<svg xmlns="http://www.w3.org/2000/svg" xmlns:xlink="http://www.w3.org/1999/xlink" width="77" height="77" viewBox="0 0 77 77">
  <defs>
    <filter id="Elipse_8305" x="0" y="0" width="77" height="77" filterUnits="userSpaceOnUse">
      <feOffset dy="3" input="SourceAlpha"/>
      <feGaussianBlur stdDeviation="3" result="blur"/>
      <feFlood flood-opacity="0.161"/>
      <feComposite operator="in" in2="blur"/>
      <feComposite in="SourceGraphic"/>
    </filter>
    <clipPath id="clip-path">
      <path id="path591" d="M0-682.665H43.351v43.351H0Z" transform="translate(0 682.665)" fill="#12263f"/>
    </clipPath>
  </defs>
  <g id="Grupo_1071821" data-name="Grupo 1071821" transform="translate(-266 -3880.579)">
    <g transform="matrix(1, 0, 0, 1, 266, 3880.58)" filter="url(#Elipse_8305)">
      <circle id="Elipse_8305-2" data-name="Elipse 8305" cx="29.5" cy="29.5" r="29.5" transform="translate(9 6)" fill="#78f0f4"/>
    </g>
    <g id="Grupo_1071820" data-name="Grupo 1071820" transform="translate(59.225 17.069)">
      <g id="flechas" transform="translate(220.89 3883.244)">
        <path id="Trazado_820118" data-name="Trazado 820118" d="M12.5,75.942A1.942,1.942,0,0,1,14.442,74H60.329a1.942,1.942,0,0,1,1.942,1.942V86.625a1.942,1.942,0,0,1-1.942,1.942H14.442A1.942,1.942,0,0,1,12.5,86.625Zm6.8,0H14.442V86.625H60.329V75.942h-5.1v4.37a.971.971,0,1,1-1.942,0v-4.37h-3.4v2.913a.971.971,0,1,1-1.942,0V75.942H44.062v2.913a.971.971,0,1,1-1.942,0V75.942h-3.4v4.37a.971.971,0,0,1-1.942,0v-4.37H32.894v2.913a.971.971,0,1,1-1.942,0V75.942H27.067v2.913a.971.971,0,1,1-1.942,0V75.942H21.24v4.37a.971.971,0,1,1-1.942,0Z" transform="translate(-12.5 -50.45)" fill="#12263f" fill-rule="evenodd"/>
      </g>
      <g id="velocimetro_1_" data-name="velocimetro (1)" transform="translate(224.1 3868.727)">
        <g id="g585" transform="translate(0 0)">
          <g id="g587">
            <g id="g589" clip-path="url(#clip-path)">
              <g id="g595" transform="translate(5.983 14.414)">
                <path id="path597" d="M-457.28-219.638a15.29,15.29,0,0,0-4.481-10.406h0a15.287,15.287,0,0,0-10.834-4.488h0q-.17,0-.338,0h.011l-.1,0,.067,0q-.171,0-.342.012h.008a15.287,15.287,0,0,0-10.133,4.471h0a15.287,15.287,0,0,0-4.481,10.407.377.377,0,0,1-.378.365h10.171a6.032,6.032,0,0,1,4.164-6.807l9.945-3.074a.536.536,0,0,1,.67.671l-2.846,9.21h9.281A.377.377,0,0,1-457.28-219.638Z" transform="translate(488.288 234.531)" fill="none" stroke="#12263f" stroke-linecap="round" stroke-linejoin="round" stroke-miterlimit="10" stroke-width="1.5"/>
              </g>
              <g id="g599" transform="translate(21.335 14.414)">
                <path id="path601" d="M-5.021,0c-.122,0-.237,0-.34,0C-5.248,0-5.135,0-5.021,0Z" transform="translate(5.361)" fill="none" stroke="#12263f" stroke-linecap="round" stroke-linejoin="round" stroke-miterlimit="10" stroke-width="1.5"/>
              </g>
              <g id="g603" transform="translate(21.308 14.418)">
                <path id="path605" d="M-.4,0h0Z" transform="translate(0.423)" fill="none" stroke="#12263f" stroke-linecap="round" stroke-linejoin="round" stroke-miterlimit="10" stroke-width="1.5"/>
              </g>
              <g id="g607" transform="translate(20.967 14.419)">
                <path id="path609" d="M-5.038,0c-.2,0-.342.012-.342.012Q-5.21,0-5.038,0Z" transform="translate(5.38)" fill="none" stroke="#12263f" stroke-linecap="round" stroke-linejoin="round" stroke-miterlimit="10" stroke-width="1.5"/>
              </g>
              <g id="g611" transform="translate(21.676 8.691)">
                <path id="path613" d="M-219.448-90.906a21,21,0,0,0-14.881-6.164v5.723h0a15.287,15.287,0,0,1,10.834,4.488l2.195-2.195Z" transform="translate(234.329 97.07)" fill="none" stroke="#12263f" stroke-linecap="round" stroke-linejoin="round" stroke-miterlimit="10" stroke-width="1.5"/>
              </g>
              <g id="g615" transform="translate(6.795 8.691)">
                <path id="path617" d="M0-90.9H0l4.047,4.047h0a15.289,15.289,0,0,1,10.834-4.488v-5.723A20.991,20.991,0,0,0,0-90.9Z" transform="translate(0 97.064)" fill="none" stroke="#12263f" stroke-linecap="round" stroke-linejoin="round" stroke-miterlimit="10" stroke-width="1.5"/>
              </g>
              <g id="g619" transform="translate(0.636 14.854)">
                <path id="path621" d="M0-212.793a.38.38,0,0,0,.379.389H5.345a.377.377,0,0,0,.378-.365A15.288,15.288,0,0,1,10.2-223.175l-4.047-4.047A20.992,20.992,0,0,0,0-212.793Z" transform="translate(0.001 227.222)" fill="none" stroke="#12263f" stroke-linecap="round" stroke-linejoin="round" stroke-miterlimit="10" stroke-width="1.5"/>
              </g>
              <g id="g623" transform="translate(32.51 14.854)">
                <path id="path625" d="M-59.68,0l-4.047,4.047h0a15.29,15.29,0,0,1,4.481,10.406.377.377,0,0,0,.378.366H-53.9a.38.38,0,0,0,.379-.389A21.007,21.007,0,0,0-59.68,0Z" transform="translate(63.727)" fill="none" stroke="#12263f" stroke-linecap="round" stroke-linejoin="round" stroke-miterlimit="10" stroke-width="1.5"/>
              </g>
              <g id="g627" transform="translate(19.435 26.117)">
                <path id="path629" d="M-69.432-16.306a2.6,2.6,0,0,0-.291-.348,2.587,2.587,0,0,0-3.659,0,2.587,2.587,0,0,0,0,3.659,2.587,2.587,0,0,0,3.659,0,2.6,2.6,0,0,0,.291-.348" transform="translate(74.14 17.411)" fill="none" stroke="#12263f" stroke-linecap="round" stroke-linejoin="round" stroke-miterlimit="10" stroke-width="1.5"/>
              </g>
              <g id="g631" transform="translate(16.066 19.768)">
                <path id="path633" d="M-109.691-217.129a5.978,5.978,0,0,0,4.356-4.083l3.074-9.945a.536.536,0,0,0-.671-.67l-9.945,3.074a6.03,6.03,0,0,0-2.483,10.025,5.979,5.979,0,0,0,2.705,1.569" transform="translate(117.129 231.852)" fill="none" stroke="#12263f" stroke-linecap="round" stroke-linejoin="round" stroke-miterlimit="10" stroke-width="1.5"/>
              </g>
            </g>
          </g>
        </g>
      </g>
    </g>
  </g>
</svg>
