<svg xmlns="http://www.w3.org/2000/svg" xmlns:xlink="http://www.w3.org/1999/xlink" width="398.75" height="221.96" viewBox="0 0 398.75 221.96">
  <defs>
    <clipPath id="clip-path">
      <rect id="Rectángulo_348331" data-name="Rectángulo 348331" width="48" height="110" transform="translate(110) rotate(90)" fill="#cb03e0" opacity="0.58"/>
    </clipPath>
    <clipPath id="clip-path-2">
      <rect id="trabajo-equipo-oficina-nueva-york-noche-lectura-documentos-negocios-juntos-e-informe-contabilidad-profesional-hombre-negro-auditoria-financiera-que-mu" width="387" height="200.824" rx="12" transform="translate(1023.5 412.597)" fill="#cb03e0" opacity="0.49"/>
    </clipPath>
  </defs>
  <g id="Grupo_1070673" data-name="Grupo 1070673" transform="translate(-1018.75 -403.461)">
    <g id="Grupo_1070672" data-name="Grupo 1070672">
      <g id="Grupo_1070649" data-name="Grupo 1070649" transform="translate(1020 412.597)">
        <rect id="trabajo-equipo-oficina-nueva-york-noche-lectura-documentos-negocios-juntos-e-informe-contabilidad-profesional-hombre-negro-auditoria-financiera-que-mu-2" data-name="trabajo-equipo-oficina-nueva-york-noche-lectura-documentos-negocios-juntos-e-informe-contabilidad-profesional-hombre-negro-auditoria-financiera-que-mu" width="387" height="200.824" rx="12" transform="translate(3.5 0)" fill="#fff7bf"/>
        <line id="Línea_141" data-name="Línea 141" x2="106" transform="translate(0 192.609)" fill="none" stroke="#ffe323" stroke-linecap="round" stroke-miterlimit="10" stroke-width="2.5" stroke-dasharray="5 7"/>
        <g id="Enmascarar_grupo_68" data-name="Enmascarar grupo 68" transform="translate(285.5 164.824)" clip-path="url(#clip-path)">
          <path id="Trazado_737287" data-name="Trazado 737287" d="M40.989,0A40.989,40.989,0,1,0,81.978,40.989,40.989,40.989,0,0,0,40.989,0Zm0,69.056A28.067,28.067,0,1,1,69.056,40.989,28.067,28.067,0,0,1,40.989,69.056Z" transform="translate(96.191 6.488) rotate(90)" fill="#ffe323"/>
        </g>
        <g id="Grupo_1015070" data-name="Grupo 1015070" transform="translate(262.912 22.893)">
          <g id="Grupo_80127" data-name="Grupo 80127" transform="translate(0 17.951)">
            <path id="Trazado_113527" data-name="Trazado 113527" d="M1004.1,925.862a2.782,2.782,0,1,1-2.782-2.782A2.781,2.781,0,0,1,1004.1,925.862Z" transform="translate(-998.54 -923.08)" fill="#78f0f4"/>
            <path id="Trazado_113528" data-name="Trazado 113528" d="M1034.9,925.862a2.782,2.782,0,1,1-2.782-2.782A2.781,2.781,0,0,1,1034.9,925.862Z" transform="translate(-1010.91 -923.08)" fill="#78f0f4"/>
            <path id="Trazado_113529" data-name="Trazado 113529" d="M1065.7,925.862a2.782,2.782,0,1,1-2.782-2.782A2.781,2.781,0,0,1,1065.7,925.862Z" transform="translate(-1023.28 -923.08)" fill="#78f0f4"/>
            <path id="Trazado_113530" data-name="Trazado 113530" d="M1096.515,925.862a2.782,2.782,0,1,1-2.782-2.782A2.781,2.781,0,0,1,1096.515,925.862Z" transform="translate(-1035.654 -923.08)" fill="#78f0f4"/>
            <path id="Trazado_113531" data-name="Trazado 113531" d="M1127.315,925.862a2.783,2.783,0,1,1-2.783-2.782A2.781,2.781,0,0,1,1127.315,925.862Z" transform="translate(-1048.024 -923.08)" fill="#78f0f4"/>
            <path id="Trazado_113532" data-name="Trazado 113532" d="M1158.115,925.862a2.782,2.782,0,1,1-2.782-2.782A2.781,2.781,0,0,1,1158.115,925.862Z" transform="translate(-1060.393 -923.08)" fill="#78f0f4"/>
            <path id="Trazado_113533" data-name="Trazado 113533" d="M1188.925,925.862a2.782,2.782,0,1,1-2.783-2.782A2.781,2.781,0,0,1,1188.925,925.862Z" transform="translate(-1072.768 -923.08)" fill="#78f0f4"/>
            <path id="Trazado_113534" data-name="Trazado 113534" d="M1219.725,925.862a2.783,2.783,0,1,1-2.782-2.782A2.781,2.781,0,0,1,1219.725,925.862Z" transform="translate(-1085.137 -923.08)" fill="#78f0f4"/>
          </g>
          <g id="Grupo_80128" data-name="Grupo 80128" transform="translate(0)">
            <path id="Trazado_113527-2" data-name="Trazado 113527" d="M1004.1,925.862a2.782,2.782,0,1,1-2.782-2.782A2.781,2.781,0,0,1,1004.1,925.862Z" transform="translate(-998.54 -923.08)" fill="#78f0f4"/>
            <path id="Trazado_113528-2" data-name="Trazado 113528" d="M1034.9,925.862a2.782,2.782,0,1,1-2.782-2.782A2.781,2.781,0,0,1,1034.9,925.862Z" transform="translate(-1010.91 -923.08)" fill="#78f0f4"/>
            <path id="Trazado_113529-2" data-name="Trazado 113529" d="M1065.7,925.862a2.782,2.782,0,1,1-2.782-2.782A2.781,2.781,0,0,1,1065.7,925.862Z" transform="translate(-1023.28 -923.08)" fill="#78f0f4"/>
            <path id="Trazado_113530-2" data-name="Trazado 113530" d="M1096.515,925.862a2.782,2.782,0,1,1-2.782-2.782A2.781,2.781,0,0,1,1096.515,925.862Z" transform="translate(-1035.654 -923.08)" fill="#78f0f4"/>
            <path id="Trazado_113531-2" data-name="Trazado 113531" d="M1127.315,925.862a2.783,2.783,0,1,1-2.783-2.782A2.781,2.781,0,0,1,1127.315,925.862Z" transform="translate(-1048.024 -923.08)" fill="#78f0f4"/>
            <path id="Trazado_113532-2" data-name="Trazado 113532" d="M1158.115,925.862a2.782,2.782,0,1,1-2.782-2.782A2.781,2.781,0,0,1,1158.115,925.862Z" transform="translate(-1060.393 -923.08)" fill="#78f0f4"/>
            <path id="Trazado_113533-2" data-name="Trazado 113533" d="M1188.925,925.862a2.782,2.782,0,1,1-2.783-2.782A2.781,2.781,0,0,1,1188.925,925.862Z" transform="translate(-1072.768 -923.08)" fill="#78f0f4"/>
            <path id="Trazado_113534-2" data-name="Trazado 113534" d="M1219.725,925.862a2.783,2.783,0,1,1-2.782-2.782A2.781,2.781,0,0,1,1219.725,925.862Z" transform="translate(-1085.137 -923.08)" fill="#78f0f4"/>
          </g>
        </g>
      </g>
      <path id="Trazado_816189" data-name="Trazado 816189" d="M40.713,0,25.889,14.825,11.064,0,0,11.065,14.824,25.889,0,40.713,11.064,51.778,25.889,36.954,40.713,51.778,51.777,40.714,36.953,25.889,51.777,11.065Z" transform="translate(1030.668 403.46)" fill="#78f0f4"/>
    </g>
    <g id="Enmascarar_grupo_90" data-name="Enmascarar grupo 90" clip-path="url(#clip-path-2)">
      <g id="_2434" data-name="2434" transform="translate(1077.253 401.342)">
        <g id="Lines" transform="translate(11.787 12.748)">
          <g id="Grupo_1070651" data-name="Grupo 1070651">
            <path id="Trazado_816117" data-name="Trazado 816117" d="M36.2,172.79H33.064A12.685,12.685,0,0,0,20.38,185.474v69.6a12.685,12.685,0,0,0,12.684,12.684H76.072a12.685,12.685,0,0,0,12.684-12.684h0" transform="translate(-20.38 -85.6)" fill="none" stroke="#263238" stroke-linecap="round" stroke-linejoin="round" stroke-width="1.1" stroke-dasharray="0 4.41"/>
            <path id="Trazado_816118" data-name="Trazado 816118" d="M132.5,38.577V28.01c0-3.3,3.476-5.97,7.768-5.97H196.2c4.292,0,7.768,2.672,7.768,5.97l.63,17.7" transform="translate(-67.653 -17.061)" fill="none" stroke="#263238" stroke-linecap="round" stroke-linejoin="round" stroke-width="1.1" stroke-dasharray="0 4.41"/>
          </g>
        </g>
        <g id="Shadow" transform="translate(16.206 217.614)">
          <g id="Grupo_1070652" data-name="Grupo 1070652">
            <ellipse id="Elipse_9147" data-name="Elipse 9147" cx="110.77" cy="15.477" rx="110.77" ry="15.477" fill="#92e3a9"/>
            <ellipse id="Elipse_9148" data-name="Elipse 9148" cx="110.77" cy="15.477" rx="110.77" ry="15.477" fill="#fff" opacity="0.5"/>
          </g>
        </g>
        <g id="Window" transform="translate(12.335 39.862)">
          <g id="Grupo_1070653" data-name="Grupo 1070653" transform="translate(93 8)">
            <path id="Trazado_816119" data-name="Trazado 816119" d="M247.84,81.766V185.908a12.834,12.834,0,0,1-12.834,12.834H51.834A12.834,12.834,0,0,1,39,185.908V81.766c0-.307.012-.607.04-.908A12.832,12.832,0,0,1,51.84,68.92H235.005a12.836,12.836,0,0,1,12.8,11.938c.023.3.04.6.04.908Z" transform="translate(-39 -68.92)" fill="#fff" stroke="#263238" stroke-linecap="round" stroke-linejoin="round" stroke-width="1.1"/>
            <path id="Trazado_816120" data-name="Trazado 816120" d="M49.8,97.89h197v96.2a12.036,12.036,0,0,1-12.03,12.03H61.83a12.036,12.036,0,0,1-12.03-12.03V97.89Z" transform="translate(-43.554 -81.134)" fill="#263238"/>
            <path id="Trazado_816121" data-name="Trazado 816121" d="M246.8,97.88v96.207a11.966,11.966,0,0,1-11.9,12.024H61.7a11.966,11.966,0,0,1-11.9-12.024V97.88H246.806Z" transform="translate(-43.554 -81.13)" fill="#fff" opacity="0.2"/>
            <path id="Trazado_816122" data-name="Trazado 816122" d="M247.824,80.868H39.06a12.832,12.832,0,0,1,12.8-11.938H235.025A12.836,12.836,0,0,1,247.824,80.868Z" transform="translate(-39.025 -68.924)" fill="#78f0f4" stroke="#263238" stroke-miterlimit="10" stroke-width="1.1"/>
            <path id="Trazado_816123" data-name="Trazado 816123" d="M80.106,77.593a2.273,2.273,0,1,1-2.273-2.273A2.273,2.273,0,0,1,80.106,77.593Z" transform="translate(-54.415 -71.618)" fill="#263238"/>
            <path id="Trazado_816124" data-name="Trazado 816124" d="M96.726,77.593a2.273,2.273,0,1,1-2.273-2.273A2.273,2.273,0,0,1,96.726,77.593Z" transform="translate(-61.422 -71.618)" fill="#263238"/>
            <circle id="Elipse_9149" data-name="Elipse 9149" cx="2.273" cy="2.273" r="2.273" transform="translate(40.371 3.702)" fill="#263238"/>
            <path id="Trazado_816125" data-name="Trazado 816125" d="M246.8,97.89v96.2a12.032,12.032,0,0,1-12.03,12.03H61.83a12.033,12.033,0,0,1-11.8-9.7h-.006v-.035a12.134,12.134,0,0,1-.226-2.3V97.89h197Z" transform="translate(-43.554 -81.134)" fill="none" stroke="#263238" stroke-miterlimit="10" stroke-width="1.1"/>
            <path id="Trazado_816126" data-name="Trazado 816126" d="M373.465,119.294a12.112,12.112,0,0,0-2.672-1.1l-1.076-4.829h-4.592l-1.07,4.829a11.668,11.668,0,0,0-2.678,1.1l-4.147-2.655-3.245,3.245,2.608,4.147a11.728,11.728,0,0,0-1.1,2.678l-4.829,1.07v4.592l4.829,1.076a11.688,11.688,0,0,0,1.1,2.7l-2.655,4.17,3.245,3.245,4.17-2.655a11.792,11.792,0,0,0,2.678,1.11l1.07,4.824h4.592l1.076-4.824a12.018,12.018,0,0,0,2.672-1.11l.208.133V119.155l-.191.121Zm-6.038,16.75a5.934,5.934,0,1,1,5.934-5.934A5.931,5.931,0,0,1,367.427,136.044Z" transform="translate(-170.404 -87.657)" fill="#263238"/>
            <path id="Trazado_816127" data-name="Trazado 816127" d="M195.472,117.422v-9.688l-10.185-2.256a26.325,26.325,0,0,0-2.331-5.651l1.232-1.938H136.125l1.186,1.891a25.183,25.183,0,0,0-2.325,5.645L124.8,107.693v9.682l10.185,2.273a25.265,25.265,0,0,0,2.325,5.691l-5.593,8.8,6.854,6.848,8.791-5.593a25.953,25.953,0,0,0,5.651,2.342l2.256,10.168h9.688l2.279-10.168a26.105,26.105,0,0,0,5.633-2.342l8.8,5.593,6.848-6.848-5.558-8.8a26.53,26.53,0,0,0,2.331-5.639l10.185-2.273Zm-35.281,7.669a12.51,12.51,0,1,1,12.51-12.51A12.511,12.511,0,0,1,160.191,125.091Z" transform="translate(-75.175 -81.134)" fill="#263238"/>
            <path id="Trazado_816128" data-name="Trazado 816128" d="M99.605,222.169l.411-7.681-7.964-2.244a21.845,21.845,0,0,0-1.631-4.569l4.812-6.755L90.08,195.2l-7.212,4.078a21.414,21.414,0,0,0-4.39-2.1L77.1,189.011,69.42,188.6,67.2,196.587a20.369,20.369,0,0,0-4.569,1.619l-6.75-4.812-5.732,5.153,4.083,7.218a19.866,19.866,0,0,0-2.105,4.384l-2.331.382v10.4l1.689.48A20.29,20.29,0,0,0,53.116,226l-3.326,4.65.226,3.985v.023h.006l3.424,3.811,7.224-4.078a19.922,19.922,0,0,0,4.4,2.123l1.313,7.843h0l.064.33,7.681.411.2-.735h0l2.019-7.253a20.739,20.739,0,0,0,4.592-1.619l6.738,4.806,5.732-5.148-4.072-7.224a20.129,20.129,0,0,0,2.082-4.378l8.178-1.377Zm-20.405-12a9.948,9.948,0,1,0-.74,14.043A9.95,9.95,0,0,0,79.2,210.168Z" transform="translate(-43.549 -119.38)" fill="#263238"/>
            <path id="Trazado_816129" data-name="Trazado 816129" d="M215.632,208.582a15.761,15.761,0,0,0,.468-3.638l5.523-2.9-1.527-5.6-6.235.289a15.338,15.338,0,0,0-2.238-2.892l1.845-5.963-5.032-2.886-4.211,4.6a16.264,16.264,0,0,0-3.626-.463l-2.915-5.529-5.593,1.521.295,6.241a15.565,15.565,0,0,0-2.9,2.238l-5.963-1.839-2.886,5.026,4.621,4.2a15.086,15.086,0,0,0-.457,3.626l-5.535,2.915,1.527,5.6,6.241-.295a15.058,15.058,0,0,0,2.233,2.9l-1.857,5.934,5.032,2.886,4.187-4.558a15.1,15.1,0,0,0,3.632.457l2.909,5.529,5.593-1.521-.243-5.333-.04-.914a15.277,15.277,0,0,0,2.927-2.238l5.963,1.851,2.464-4.3.422-.729-4.615-4.2Zm-13.227,3.4a7.5,7.5,0,1,1,5.263-9.2A7.5,7.5,0,0,1,202.4,211.982Z" transform="translate(-98.141 -117.268)" fill="#263238"/>
            <path id="Trazado_816130" data-name="Trazado 816130" d="M311.965,216.746l1.278-7.687-7.785-3.135a20.759,20.759,0,0,0-1.116-4.8l5.6-6.241-4.534-6.339-7.727,3.279a20.423,20.423,0,0,0-4.17-2.591l-.451-8.381-7.692-1.272-3.152,7.75a21.5,21.5,0,0,0-4.777,1.122l-6.258-5.6-6.333,4.534,3.285,7.721a20.964,20.964,0,0,0-2.342,3.638c-.087.179-.179.359-.26.538l-8.375.468-1.278,7.681,1.261.509,6.518,2.626a20.348,20.348,0,0,0,1.116,4.777l-5.6,6.258,4.534,6.333,7.727-3.291a19.967,19.967,0,0,0,4.164,2.608l.434,8.346,7.687,1.272,3.146-7.692a20.316,20.316,0,0,0,4.789-1.122l6.246,5.61,6.339-4.54-3.285-7.727a20.383,20.383,0,0,0,2.637-4.193l8.375-.457Zm-21.573-.347a10.069,10.069,0,1,1,2.325-14.049A10.072,10.072,0,0,1,290.392,216.4Z" transform="translate(-130.442 -115.577)" fill="#263238"/>
          </g>
        </g>
        <g id="Window-2" data-name="Window" transform="translate(-124.983 52.773)">
          <g id="Grupo_1070653-2" data-name="Grupo 1070653" transform="translate(93 8)">
            <path id="Trazado_816119-2" data-name="Trazado 816119" d="M125.868,74.263v43.319a5.339,5.339,0,0,1-5.338,5.338H44.338A5.339,5.339,0,0,1,39,117.582V74.263c0-.128,0-.253.017-.378a5.337,5.337,0,0,1,5.324-4.966H120.53a5.339,5.339,0,0,1,5.324,4.966c.01.125.017.25.017.378Z" transform="translate(-39 -68.92)" fill="#fff" stroke="#263238" stroke-linecap="round" stroke-linejoin="round" stroke-width="1.1"/>
            <path id="Trazado_816120-2" data-name="Trazado 816120" d="M49.8,97.89h81.943v40.015a5.006,5.006,0,0,1-5,5H54.8a5.006,5.006,0,0,1-5-5V97.89Z" transform="translate(-47.202 -90.92)" fill="#263238"/>
            <path id="Trazado_816121-2" data-name="Trazado 816121" d="M131.743,97.88V137.9a4.977,4.977,0,0,1-4.949,5H54.749a4.977,4.977,0,0,1-4.949-5V97.88h81.946Z" transform="translate(-47.202 -90.913)" fill="#fff" opacity="0.2"/>
            <path id="Trazado_816122-2" data-name="Trazado 816122" d="M125.9,73.9H39.06a5.337,5.337,0,0,1,5.324-4.966h76.189A5.339,5.339,0,0,1,125.9,73.9Z" transform="translate(-39.046 -68.928)" fill="#78f0f4" stroke="#263238" stroke-miterlimit="10" stroke-width="1.1"/>
            <path id="Trazado_816123-2" data-name="Trazado 816123" d="M77.451,76.265a.945.945,0,1,1-.945-.945A.946.946,0,0,1,77.451,76.265Z" transform="translate(-66.764 -73.78)" fill="#263238"/>
            <path id="Trazado_816124-2" data-name="Trazado 816124" d="M94.071,76.265a.945.945,0,1,1-.945-.945A.946.946,0,0,1,94.071,76.265Z" transform="translate(-79.386 -73.78)" fill="#263238"/>
            <circle id="Elipse_9149-2" data-name="Elipse 9149" cx="0.945" cy="0.945" r="0.945" transform="translate(16.792 1.54)" fill="#263238"/>
            <path id="Trazado_816125-2" data-name="Trazado 816125" d="M131.743,97.89v40.015a5,5,0,0,1-5,5H54.8a5.005,5.005,0,0,1-4.908-4.035h0v-.014a5.047,5.047,0,0,1-.094-.958V97.89h81.943Z" transform="translate(-47.202 -90.92)" fill="none" stroke="#263238" stroke-miterlimit="10" stroke-width="1.1"/>
            <path id="Trazado_816126-2" data-name="Trazado 816126" d="M360.146,115.828a5.038,5.038,0,0,0-1.111-.46l-.447-2.009h-1.91l-.445,2.009a4.854,4.854,0,0,0-1.114.46l-1.725-1.1-1.35,1.35,1.085,1.725a4.878,4.878,0,0,0-.46,1.114l-2.009.445v1.91l2.009.447a4.861,4.861,0,0,0,.46,1.124l-1.1,1.735,1.35,1.35,1.735-1.1a4.9,4.9,0,0,0,1.114.462l.445,2.006h1.91l.447-2.006a5,5,0,0,0,1.112-.462l.087.055v-9.1l-.079.051Zm-2.512,6.967a2.468,2.468,0,1,1,2.468-2.468A2.467,2.467,0,0,1,357.634,122.8Z" transform="translate(-275.681 -102.669)" fill="#263238"/>
            <path id="Trazado_816127-2" data-name="Trazado 816127" d="M154.2,106.014v-4.03l-4.237-.938a10.949,10.949,0,0,0-.97-2.35l.512-.806H129.511l.493.787a10.475,10.475,0,0,0-.967,2.348l-4.237.943V106l4.237.945a10.509,10.509,0,0,0,.967,2.367l-2.326,3.659,2.851,2.848,3.657-2.326a10.8,10.8,0,0,0,2.35.974l.938,4.229h4.03l.948-4.229a10.858,10.858,0,0,0,2.343-.974l3.659,2.326,2.848-2.848-2.312-3.659a11.035,11.035,0,0,0,.97-2.346l4.237-.945Zm-14.675,3.19a5.2,5.2,0,1,1,5.2-5.2A5.2,5.2,0,0,1,139.521,109.2Z" transform="translate(-104.158 -90.92)" fill="#263238"/>
            <path id="Trazado_816128-2" data-name="Trazado 816128" d="M70.511,202.563l.171-3.195-3.313-.933a9.086,9.086,0,0,0-.678-1.9l2-2.81-2.144-2.379-3,1.7a8.908,8.908,0,0,0-1.826-.873l-.573-3.4-3.195-.171-.924,3.322a8.472,8.472,0,0,0-1.9.674l-2.808-2-2.384,2.144,1.7,3a8.263,8.263,0,0,0-.876,1.824l-.97.159v4.328l.7.2a8.44,8.44,0,0,0,.678,1.905L49.79,206.09l.094,1.658v.01h0l1.424,1.585,3-1.7a8.286,8.286,0,0,0,1.831.883l.546,3.262h0l.026.137,3.195.171.084-.306h0l.84-3.017a8.627,8.627,0,0,0,1.91-.674l2.8,2,2.384-2.141-1.694-3a8.373,8.373,0,0,0,.866-1.821l3.4-.573Zm-8.488-4.992a4.138,4.138,0,1,0-.308,5.841A4.139,4.139,0,0,0,62.023,197.571Z" transform="translate(-47.194 -159.808)" fill="#263238"/>
            <path id="Trazado_816129-2" data-name="Trazado 816129" d="M194.4,193.985a6.556,6.556,0,0,0,.195-1.513l2.3-1.208-.635-2.331-2.593.12a6.38,6.38,0,0,0-.931-1.2l.767-2.48-2.093-1.2-1.751,1.913a6.765,6.765,0,0,0-1.508-.192l-1.213-2.3-2.326.633.123,2.6a6.474,6.474,0,0,0-1.205.931l-2.48-.765-1.2,2.091,1.922,1.747a6.275,6.275,0,0,0-.19,1.508l-2.3,1.213.635,2.331,2.6-.123a6.263,6.263,0,0,0,.929,1.205l-.772,2.468,2.093,1.2,1.742-1.9a6.279,6.279,0,0,0,1.511.19l1.21,2.3,2.326-.633-.1-2.218-.017-.38a6.354,6.354,0,0,0,1.217-.931l2.48.77,1.025-1.79.176-.3-1.92-1.749Zm-5.5,1.415a3.118,3.118,0,1,1,2.189-3.828A3.119,3.119,0,0,1,188.893,195.4Z" transform="translate(-145.524 -156.003)" fill="#263238"/>
            <path id="Trazado_816130-2" data-name="Trazado 816130" d="M279.209,195.04l.532-3.2-3.238-1.3a8.634,8.634,0,0,0-.464-2l2.331-2.6-1.886-2.637-3.214,1.364a8.493,8.493,0,0,0-1.735-1.078l-.188-3.486-3.2-.529-1.311,3.224a8.944,8.944,0,0,0-1.987.467l-2.6-2.331-2.634,1.886,1.366,3.212A8.721,8.721,0,0,0,260,187.55c-.036.075-.075.149-.108.224l-3.484.195-.532,3.195.524.212,2.711,1.092a8.466,8.466,0,0,0,.464,1.987l-2.331,2.6,1.886,2.634,3.214-1.369a8.305,8.305,0,0,0,1.732,1.085l.18,3.472,3.2.529,1.309-3.2a8.45,8.45,0,0,0,1.992-.467l2.6,2.334,2.637-1.889-1.366-3.214a8.478,8.478,0,0,0,1.1-1.744l3.484-.19Zm-8.974-.144a4.188,4.188,0,1,1,.967-5.844A4.189,4.189,0,0,1,270.235,194.9Z" transform="translate(-203.703 -152.958)" fill="#263238"/>
          </g>
        </g>
        <g id="Graphics" transform="translate(21.548 24.442)">
          <g id="Grupo_1070661" data-name="Grupo 1070661">
            <g id="Grupo_1070660" data-name="Grupo 1070660" transform="translate(10.904)">
              <path id="Trazado_816133" data-name="Trazado 816133" d="M275.289,51.306V85.152a9.034,9.034,0,0,1-9.04,9.04H188.29a9.038,9.038,0,0,1-9.04-9.04V51.306a9.043,9.043,0,0,1,9.04-9.046h77.959A9.039,9.039,0,0,1,275.289,51.306Z" transform="translate(-179.25 -42.26)" fill="#fff" stroke="#222221" stroke-miterlimit="10" stroke-width="1.1"/>
              <path id="Trazado_816134" data-name="Trazado 816134" d="M275.289,51.306v.769H179.25v-.769a9.043,9.043,0,0,1,9.04-9.046h77.959A9.039,9.039,0,0,1,275.289,51.306Z" transform="translate(-179.25 -42.26)" fill="#78f0f4" stroke="#263238" stroke-miterlimit="10" stroke-width="1.1"/>
              <path id="Trazado_816135" data-name="Trazado 816135" d="M201.927,51.825a1.386,1.386,0,1,1,0-1.961A1.382,1.382,0,0,1,201.927,51.825Z" transform="translate(-187.814 -45.295)" fill="#263238"/>
              <path id="Trazado_816136" data-name="Trazado 816136" d="M213.047,51.827a1.386,1.386,0,1,1,0-1.961A1.382,1.382,0,0,1,213.047,51.827Z" transform="translate(-192.503 -45.297)" fill="#263238"/>
              <path id="Trazado_816137" data-name="Trazado 816137" d="M224.167,51.825a1.386,1.386,0,1,1,0-1.961A1.382,1.382,0,0,1,224.167,51.825Z" transform="translate(-197.191 -45.295)" fill="#263238"/>
              <rect id="Rectángulo_375032" data-name="Rectángulo 375032" width="31.394" height="27.137" transform="translate(6.125 16.044)" fill="none" stroke="#263238" stroke-linecap="round" stroke-linejoin="round" stroke-width="1.1" stroke-dasharray="0 4.41"/>
              <g id="Grupo_1070659" data-name="Grupo 1070659" transform="translate(42.36 16.044)">
                <rect id="Rectángulo_375033" data-name="Rectángulo 375033" width="36.131" height="1.909" fill="#263238"/>
                <rect id="Rectángulo_375034" data-name="Rectángulo 375034" width="27.716" height="1.903" transform="translate(0 3.95)" fill="#263238"/>
                <rect id="Rectángulo_375035" data-name="Rectángulo 375035" width="41.267" height="1.926" transform="translate(0 7.883)" fill="#263238"/>
                <rect id="Rectángulo_375036" data-name="Rectángulo 375036" width="35.142" height="1.926" transform="translate(0 11.718)" fill="#263238"/>
              </g>
            </g>
            <g id="Grupo_1070658" data-name="Grupo 1070658" transform="translate(-21 59.643)">
              <rect id="Rectángulo_375017" data-name="Rectángulo 375017" width="75.652" height="98.908" rx="13.11" transform="translate(7.039 -0.001)" fill="#525a65" stroke="#263238" stroke-miterlimit="10" stroke-width="1.1"/>
              <rect id="Rectángulo_375018" data-name="Rectángulo 375018" width="75.652" height="98.908" rx="13.11" transform="translate(7.039 -0.001)" opacity="0.2"/>
              <g id="Grupo_1070657" data-name="Grupo 1070657" transform="translate(0 7.478)">
                <path id="Trazado_816131" data-name="Trazado 816131" d="M67.11,165.887V249.63a7.585,7.585,0,0,0,7.588,7.588h60.481a7.579,7.579,0,0,0,7.577-7.588V165.887a7.577,7.577,0,0,0-7.577-7.577H74.7A7.583,7.583,0,0,0,67.11,165.887Z" transform="translate(-67.11 -158.31)" fill="#fff" stroke="#263238" stroke-linecap="round" stroke-linejoin="round" stroke-width="1.1"/>
                <path id="Trazado_816132" data-name="Trazado 816132" d="M67.1,165.887v4.482h75.652v-4.482a7.577,7.577,0,0,0-7.577-7.577H74.694a7.583,7.583,0,0,0-7.588,7.577Z" transform="translate(-67.1 -158.31)" fill="#525a65" stroke="#263238" stroke-miterlimit="10" stroke-width="1.1"/>
                <rect id="Rectángulo_375019" data-name="Rectángulo 375019" width="18.612" height="3.123" transform="translate(49.925 17.253)" fill="#78f0f4"/>
                <rect id="Rectángulo_375020" data-name="Rectángulo 375020" width="18.612" height="3.123" transform="translate(49.925 45.241)" fill="#78f0f4"/>
                <rect id="Rectángulo_375021" data-name="Rectángulo 375021" width="18.612" height="3.123" transform="translate(49.925 70.62)" fill="#78f0f4"/>
                <g id="Grupo_1070654" data-name="Grupo 1070654" transform="translate(15.68 24.98)">
                  <rect id="Rectángulo_375022" data-name="Rectángulo 375022" width="52.858" height="2.29" fill="#263238"/>
                  <rect id="Rectángulo_375023" data-name="Rectángulo 375023" width="43.326" height="2.233" transform="translate(9.532 4.384)" fill="#263238"/>
                  <rect id="Rectángulo_375024" data-name="Rectángulo 375024" width="49" height="2.233" transform="translate(3.858 8.693)" fill="#263238"/>
                  <rect id="Rectángulo_375025" data-name="Rectángulo 375025" width="49" height="2.233" transform="translate(3.858 12.996)" fill="#263238"/>
                </g>
                <g id="Grupo_1070655" data-name="Grupo 1070655" transform="translate(15.68 50.359)">
                  <rect id="Rectángulo_375026" data-name="Rectángulo 375026" width="52.858" height="2.29" fill="#263238"/>
                  <rect id="Rectángulo_375027" data-name="Rectángulo 375027" width="43.326" height="2.233" transform="translate(9.532 4.384)" fill="#263238"/>
                  <rect id="Rectángulo_375028" data-name="Rectángulo 375028" width="49" height="2.233" transform="translate(3.858 8.693)" fill="#263238"/>
                </g>
                <g id="Grupo_1070656" data-name="Grupo 1070656" transform="translate(15.68 78.231)">
                  <rect id="Rectángulo_375029" data-name="Rectángulo 375029" width="52.858" height="2.29" fill="#263238"/>
                  <rect id="Rectángulo_375030" data-name="Rectángulo 375030" width="43.326" height="2.233" transform="translate(9.532 4.384)" fill="#263238"/>
                  <rect id="Rectángulo_375031" data-name="Rectángulo 375031" width="49" height="2.233" transform="translate(3.858 8.693)" fill="#263238"/>
                </g>
              </g>
            </g>
          </g>
        </g>
        <g id="Character" transform="translate(73.237 30.683)">
          <g id="Grupo_1070663" data-name="Grupo 1070663">
            <path id="Trazado_816138" data-name="Trazado 816138" d="M254.867,396.174s-24.117,6.919-27.486,8.108c-3.06,1.081-11.368,3.992-17.6,3.094a13.218,13.218,0,0,1-1.78-.383c-6.312-1.88-9.148-3.634-9.971-7.6-.832-3.984,2.312-6.886,5.339-8.757s19.452-3.826,19.452-3.826l3.967,1.164h.008l28.068,8.208Z" transform="translate(-197.897 -202.763)" fill="#92e3a9"/>
            <path id="Trazado_816139" data-name="Trazado 816139" d="M209.784,407.376a13.219,13.219,0,0,1-1.78-.383c-6.312-1.88-9.148-3.634-9.971-7.6-.832-3.984,2.312-6.886,5.339-8.757s19.452-3.826,19.452-3.826l3.967,1.164c-3.584,1.655-16.965,2.57-19.876,4.25s-4.333,4.84-2.6,9.115c.915,2.279,3.376,4.474,5.489,6.046Z" transform="translate(-197.897 -202.763)" fill="#fff"/>
            <path id="Trazado_816140" data-name="Trazado 816140" d="M251.268,397.362s-18.113,4.69-25.3,7.693-20.882,4.316-25.764-1.879-.566-11.526,4.316-12.707,14.753-3.06,20.142-2.312" transform="translate(-197.924 -202.961)" fill="none" stroke="#263238" stroke-linecap="round" stroke-linejoin="round" stroke-width="1.1"/>
            <path id="Trazado_816141" data-name="Trazado 816141" d="M211.258,407.286s-9.215-5.056-6.154-12.134c2.262-5.223,14.554-4.092,20.641-6.952" transform="translate(-199.005 -202.997)" fill="none" stroke="#263238" stroke-linecap="round" stroke-linejoin="round" stroke-width="1.1"/>
            <path id="Trazado_816142" data-name="Trazado 816142" d="M344.552,408.4c-.249,2.47-1.123,4.832-3.618,6.3a14.1,14.1,0,0,1-7.41,1.53c-8.458-.108-24.359-6.154-24.359-6.154l-14.886-8.225,7.743-12.258,2.121-3.36,5.48,1.231s4.532,2.57,9.09,4.616,15.626,2.478,19.518,5.63S344.977,404.295,344.552,408.4Z" transform="translate(-214.124 -202.667)" fill="#92e3a9"/>
            <path id="Trazado_816143" data-name="Trazado 816143" d="M346.118,408.4c-.249,2.47-1.123,4.832-3.618,6.3a11.143,11.143,0,0,0-.424-7.435c-1.655-3.734-7.069-7.027-14.2-7.576-7.11-.549-12.566-3.884-15.419-5.364-2.229-1.156-6.927-3.676-8.882-4.732l2.121-3.36,5.48,1.231s4.532,2.57,9.09,4.616,15.626,2.478,19.518,5.63,6.745,6.578,6.32,10.687Z" transform="translate(-215.69 -202.667)" fill="#fff"/>
            <path id="Trazado_816144" data-name="Trazado 816144" d="M297.927,405.165a93.859,93.859,0,0,0,34.846,11.9c2.711.324,5.863.374,7.676-1.663a5.635,5.635,0,0,0,1.247-4.25c-.324-3.826-3.543-6.853-7.069-8.366s-7.418-1.88-11.161-2.719a44.041,44.041,0,0,1-10.728-3.925c-2.695-1.405-5.3-3.11-8.266-3.734s-6.5.133-8.092,2.719" transform="translate(-214.478 -203.67)" fill="none" stroke="#263238" stroke-linecap="round" stroke-linejoin="round" stroke-width="1.1"/>
            <path id="Trazado_816145" data-name="Trazado 816145" d="M341.011,415.688a9.935,9.935,0,0,0,5.447-7.036c.541-3.6-1.514-7.227-4.4-9.439s-6.5-3.26-10.071-4-7.21-1.239-10.612-2.561c-5.214-2.037-10.362-6.063-15.776-4.632" transform="translate(-216.03 -202.916)" fill="none" stroke="#263238" stroke-linecap="round" stroke-linejoin="round" stroke-width="1.1"/>
            <path id="Trazado_816146" data-name="Trazado 816146" d="M300.2,248.755l-25.19-9.589-.308-.116s.091-.674.166-1.638c.158-2.013.241-5.281-.707-6.4-1.405-1.638-5.389-.266-9.264-2.046s-11.061,1.405-11.061,1.405-5.181-.956-7.468,2.786c-1.164,3.019-.765,7.51-.765,7.51s-.166.067-.474.175c-3,1.123-19.327,7.268-22.787,9.73-3.817,2.7-8.034,30.455-9.4,38.6s-3.767,15.493-2.545,18.3c1.223,2.794,18.77,16.308,28.858,19.8s45.9,2.47,45.9,2.47.59-.158,1.622-.482c6.054-1.946,27.544-9.955,38.937-28.841,0,0-11.036-36.2-25.515-51.67Zm-68.061,46.68c-1.855,1.314-.865,6.4-.865,6.4l-3.152-2.778,7.917-19.469,3.376,14.945S234,294.129,232.141,295.435ZM295.479,307.8c-.873.449,2.5-8.907.9-11.028s-6.412-1.921-6.412-1.921l.416-2.561c.058-.283,2.853-14.628,2.853-14.628l.948-1.131s9.8,16.8,11.551,22.712c0,0-10.678,8.549-10.246,8.549Z" transform="translate(-199.946 -176.098)" fill="#66707e"/>
            <path id="Trazado_816147" data-name="Trazado 816147" d="M258.366,179.858l-13,13.805s-1.8,1.588-1.081,5.589,2.37,7.443,3.626,7.709a17.77,17.77,0,0,0,3.01.266s2.786,6.038,4.757,8.408c0,0,.69,9.323.324,11.909,0,0,4.674,4.083,9.073,4.6s11.194-6.221,11.194-6.221l1.688-8.25s3.992-6.054,4.258-7.668,2.1-1.2,2.994-2a15.157,15.157,0,0,0,3.31-7.709c.341-3.36.366-7.219-3.535-6.088-3.385-.906-1.264-8.059-1.264-8.059l-5.946-5.248-19.41-1.056Z" transform="translate(-205.679 -167.919)" fill="#fff"/>
            <path id="Trazado_816148" data-name="Trazado 816148" d="M282.1,239.166a12.48,12.48,0,0,1-.674,1.505c-2.146,4.042-11.493,11.751-11.493,11.751l-2.828-8.691-1.547,8.691c-3.119-1.356-12.633-9.605-12.633-9.605s-.324-.773-.715-1.971c.316-.108.474-.175.474-.175s-.407-4.5.765-7.51c2.287-3.742,7.468-2.786,7.468-2.786s7.185-3.185,11.061-1.405,7.859.407,9.264,2.046.541,8.034.541,8.034l.308.116Z" transform="translate(-207.041 -176.098)" fill="#fff" opacity="0.5"/>
            <path id="Trazado_816149" data-name="Trazado 816149" d="M312.461,250.574l-25.19-9.589-.308-.116s.091-.674.166-1.638l-.524,3.268-3.726,5.065a102.079,102.079,0,0,1,11.626,5.123,10.2,10.2,0,0,1,5.339,10.179L295.2,302.576l-1.9,22.546,5.747,5.963c6.054-1.946,27.544-9.955,38.937-28.841,0,0-11.036-36.2-25.515-51.67Zm-4.724,59.046c-.873.449,2.5-8.907.9-11.028s-6.412-1.921-6.412-1.921l.416-2.561c.058-.283,2.853-14.628,2.853-14.628l.948-1.131s9.8,16.8,11.551,22.712c0,0-10.678,8.549-10.246,8.549Z" transform="translate(-212.205 -177.916)" opacity="0.2"/>
            <path id="Trazado_816150" data-name="Trazado 816150" d="M242.219,301.914l-3.917-13.09s-7.019-23.951-11.843-29.864l1.264,16.849s-4.133,20.126-7.959,26.105-4.649,7.468,0,7.468,15.959,9.015,15.959,9.015l-.873-7.526,7.36-8.965Zm-9.847,5.065-3.152-2.778,7.917-19.469,3.376,14.945s-5.422-.407-7.277.9S232.373,306.979,232.373,306.979Z" transform="translate(-201.042 -181.238)" opacity="0.2"/>
            <path id="Trazado_816151" data-name="Trazado 816151" d="M258.02,222.89s.724,7.061,0,10.287" transform="translate(-208.019 -175.165)" fill="none" stroke="#263238" stroke-linecap="round" stroke-linejoin="round" stroke-width="1.1"/>
            <path id="Trazado_816152" data-name="Trazado 816152" d="M283.65,232.755a30.339,30.339,0,0,1,.782-6.745" transform="translate(-212.335 -175.69)" fill="none" stroke="#263238" stroke-linecap="round" stroke-linejoin="round" stroke-width="1.1"/>
            <path id="Trazado_816153" data-name="Trazado 816153" d="M280.116,186.19s4.275,5.364,4.05,9.414-.549,8.874-.441,13.581-7.56,14.562-11.5,15.444-7.335,1.1-9.855-1.422-5.04-6.021-8.325-10.512-2.52-14.346-2.52-14.346" transform="translate(-206.913 -168.986)" fill="none" stroke="#263238" stroke-linecap="round" stroke-linejoin="round" stroke-width="1.1"/>
            <path id="Trazado_816154" data-name="Trazado 816154" d="M273.479,205.32a22.3,22.3,0,0,0-.333,4.466,5.046,5.046,0,0,0,1.1,3.493c.474.482,1.156.865,1.247,1.539a1.628,1.628,0,0,1-.873,1.455,12.3,12.3,0,0,0-1.539.915" transform="translate(-210.555 -172.207)" fill="none" stroke="#263238" stroke-linecap="round" stroke-linejoin="round" stroke-width="1.1"/>
            <path id="Trazado_816155" data-name="Trazado 816155" d="M265.4,220.21s.491,3.185,4.765,3.85" transform="translate(-209.262 -174.714)" fill="none" stroke="#263238" stroke-linecap="round" stroke-linejoin="round" stroke-width="1.1"/>
            <path id="Trazado_816156" data-name="Trazado 816156" d="M265.58,207.9c0,.923-.4,1.663-.89,1.663s-.89-.748-.89-1.663.4-1.663.89-1.663S265.58,206.988,265.58,207.9Z" transform="translate(-208.993 -172.362)" fill="#263238"/>
            <path id="Trazado_816157" data-name="Trazado 816157" d="M280.89,208.383c0,.923-.4,1.663-.89,1.663s-.89-.748-.89-1.663.4-1.663.89-1.663S280.89,207.468,280.89,208.383Z" transform="translate(-211.57 -172.443)" fill="#263238"/>
            <path id="Trazado_816158" data-name="Trazado 816158" d="M278.16,203.524s4.142-4.142,7.643.474" transform="translate(-211.41 -171.617)" fill="none" stroke="#263238" stroke-linecap="round" stroke-linejoin="round" stroke-width="2.21"/>
            <path id="Trazado_816159" data-name="Trazado 816159" d="M266.26,203.705s-2.628-2.944-6.77,0" transform="translate(-208.267 -171.715)" fill="none" stroke="#263238" stroke-linecap="round" stroke-linejoin="round" stroke-width="2.21"/>
            <path id="Trazado_816160" data-name="Trazado 816160" d="M258.346,226.774s2.536,6.986,8.2,8.973,13.181-8.308,13.181-8.308l-.391-1.339s-4.923,6.4-10.4,5.306-10.9-8.516-10.9-8.516l.324,3.875Z" transform="translate(-208.021 -175.165)" fill="#263238"/>
            <path id="Trazado_816161" data-name="Trazado 816161" d="M250.956,209.641s-3.376,1.189-4.275-1.439-3.975-9.556-1.281-11.859,4.857,3.044,4.857,3.044" transform="translate(-205.713 -170.598)" fill="none" stroke="#263238" stroke-linecap="round" stroke-linejoin="round" stroke-width="1.1"/>
            <path id="Trazado_816162" data-name="Trazado 816162" d="M290.26,211.258s3.135.632,4.033-2,3.975-9.555,1.281-11.859-4.857,3.044-4.857,3.044" transform="translate(-213.447 -170.776)" fill="none" stroke="#263238" stroke-linecap="round" stroke-linejoin="round" stroke-width="1.1"/>
            <path id="Trazado_816163" data-name="Trazado 816163" d="M249.515,201.045a4.7,4.7,0,0,0,2.961-1.746,7.544,7.544,0,0,0,.865-2.653,31.168,31.168,0,0,0,.466-5.347,7.036,7.036,0,0,1,.191-2.087,5.411,5.411,0,0,1,1.131-1.855c1.181-1.38,2.595-2.545,3.717-3.975a6.6,6.6,0,0,0,1.638-5.023,22.83,22.83,0,0,0,18.687,4.832c5.938-1.164,11.643-6.379,10.953-12.932a5.32,5.32,0,0,0-4.183-4.566c-2.936-.732-5.572.832-8.233,1.838-4.848,1.83-9.6-1.314-14.5-1.838-4.191-.449-9.339.067-11.518,4.233,0,0-7.526.882-10.828,7.069s2.969,14.745,2.969,14.745,2.52-3.052,5.763,3.127l-.075,6.179Z" transform="translate(-204.97 -165.503)" fill="#263238"/>
            <path id="Trazado_816164" data-name="Trazado 816164" d="M286.416,183.76s-1.946,10.146,3.135,15.061c0,0,1.114-3.052,2.237-3.792a11.756,11.756,0,0,0-.89-11.26c-3.717-5.9-4.483,0-4.483,0Z" transform="translate(-212.739 -168.137)" fill="#263238"/>
            <path id="Trazado_816165" data-name="Trazado 816165" d="M289.725,170.41a9.6,9.6,0,0,1-5.8,6.054c-7.052,2.869-13.9-.316-20.966-.94-5.772-.507-12.134,4.69-12.533,10.612" transform="translate(-206.742 -166.329)" fill="none" stroke="#fff" stroke-linecap="round" stroke-linejoin="round" stroke-width="1.1" opacity="0.2"/>
            <path id="Trazado_816166" data-name="Trazado 816166" d="M245.16,185.238a12.318,12.318,0,0,1,7.51-10.878" transform="translate(-205.854 -166.994)" fill="none" stroke="#fff" stroke-linecap="round" stroke-linejoin="round" stroke-width="1.1" opacity="0.2"/>
            <path id="Trazado_816167" data-name="Trazado 816167" d="M256.07,233.953a32.1,32.1,0,0,0,10.986,7.51s8.441-2.445,12.741-8.333" transform="translate(-207.691 -176.889)" fill="none" stroke="#263238" stroke-linecap="round" stroke-linejoin="round" stroke-width="1.1"/>
            <circle id="Elipse_9150" data-name="Elipse 9150" cx="7.468" cy="7.468" r="7.468" transform="matrix(0.909, -0.417, 0.417, 0.909, 43.976, 31.853)" fill="none" stroke="#263238" stroke-linecap="round" stroke-linejoin="round" stroke-width="1.1"/>
            <circle id="Elipse_9151" data-name="Elipse 9151" cx="7.468" cy="7.468" r="7.468" transform="translate(62.237 29.056) rotate(-7)" fill="none" stroke="#263238" stroke-linecap="round" stroke-linejoin="round" stroke-width="1.1"/>
            <path id="Trazado_816168" data-name="Trazado 816168" d="M257.138,230.77a5.845,5.845,0,0,0-3.593,2.786c-1.322,2.329-.524,9.655-.524,9.655s6.828,6.753,12.641,9.605l1.713-9.639,2.661,9.639s9-6.362,11.493-11.743c0,0,.815-6.271,0-8.333a2.868,2.868,0,0,0-2.686-1.963" transform="translate(-207.138 -176.492)" fill="none" stroke="#263238" stroke-linecap="round" stroke-linejoin="round" stroke-width="1.1"/>
            <path id="Trazado_816169" data-name="Trazado 816169" d="M243.9,303.214s-2.661-17.88-6.212-25.174" transform="translate(-204.597 -184.45)" fill="none" stroke="#263238" stroke-linecap="round" stroke-linejoin="round" stroke-width="1.1"/>
            <path id="Trazado_816170" data-name="Trazado 816170" d="M228.46,258.96a71.651,71.651,0,0,1,5.522,9.24" transform="translate(-203.043 -181.238)" fill="none" stroke="#263238" stroke-linecap="round" stroke-linejoin="round" stroke-width="1.1"/>
            <path id="Trazado_816171" data-name="Trazado 816171" d="M312.77,273.244a51.644,51.644,0,0,1,2.936-8.724" transform="translate(-217.237 -182.174)" fill="none" stroke="#263238" stroke-linecap="round" stroke-linejoin="round" stroke-width="1.1"/>
            <path id="Trazado_816172" data-name="Trazado 816172" d="M306.13,303.784s1.921-12.258,4.216-22.354" transform="translate(-216.119 -185.021)" fill="none" stroke="#263238" stroke-linecap="round" stroke-linejoin="round" stroke-width="1.1"/>
            <path id="Trazado_816173" data-name="Trazado 816173" d="M310.06,286.6a14.061,14.061,0,0,1,7.435-5.081" transform="translate(-216.781 -185.036)" fill="none" stroke="#263238" stroke-linecap="round" stroke-linejoin="round" stroke-width="1.1"/>
            <path id="Trazado_816174" data-name="Trazado 816174" d="M287.78,241.2s15.5,6.187,25.506,9.705c0,0,12.308,11.576,25.506,51.67,0,0-12.1,20.342-35.1,26.862" transform="translate(-213.03 -178.248)" fill="none" stroke="#263238" stroke-linecap="round" stroke-linejoin="round" stroke-width="1.1"/>
            <path id="Trazado_816175" data-name="Trazado 816175" d="M311.72,322.359l11.111-9.281s5.88-4.466,11.992-1.414" transform="translate(-217.061 -189.932)" fill="none" stroke="#263238" stroke-linecap="round" stroke-linejoin="round" stroke-width="1.1"/>
            <path id="Trazado_816176" data-name="Trazado 816176" d="M311.2,286.28s9.19,13.539,11.543,22.712" transform="translate(-216.973 -185.837)" fill="none" stroke="#263238" stroke-linecap="round" stroke-linejoin="round" stroke-width="1.1"/>
            <path id="Trazado_816177" data-name="Trazado 816177" d="M232.947,316.675l-3.252-3.1s-4.832-.84-10.3,2.819" transform="translate(-201.517 -190.419)" fill="none" stroke="#263238" stroke-linecap="round" stroke-linejoin="round" stroke-width="1.1"/>
            <path id="Trazado_816178" data-name="Trazado 816178" d="M231.78,309.517s4.042-13.265,8.025-20.117" transform="translate(-203.602 -186.363)" fill="none" stroke="#263238" stroke-linecap="round" stroke-linejoin="round" stroke-width="1.1"/>
            <path id="Trazado_816179" data-name="Trazado 816179" d="M245.655,243.16s-22.3,8.366-24.483,10.8-10.5,49.233-10.711,54.589c-.2,4.79,17.173,15.543,25.747,20.076" transform="translate(-200.012 -178.578)" fill="none" stroke="#263238" stroke-linecap="round" stroke-linejoin="round" stroke-width="1.1"/>
            <rect id="Rectángulo_375037" data-name="Rectángulo 375037" width="36.268" height="25.772" rx="6.53" transform="translate(95.533 31.292)" fill="#fff" stroke="#263238" stroke-linecap="round" stroke-linejoin="round" stroke-width="1.1"/>
            <path id="Trazado_816180" data-name="Trazado 816180" d="M325.427,212.45l-6.977,4.383,6.47,5.738" transform="translate(-218.194 -173.407)" fill="none" stroke="#263238" stroke-linecap="round" stroke-linejoin="round" stroke-width="1.1"/>
            <path id="Trazado_816181" data-name="Trazado 816181" d="M341.925,223.079l6.271-5.339L340.96,213" transform="translate(-221.983 -173.5)" fill="none" stroke="#263238" stroke-linecap="round" stroke-linejoin="round" stroke-width="1.1"/>
            <line id="Línea_3700" data-name="Línea 3700" y1="16.15" x2="5.156" transform="translate(110.619 36.723)" fill="none" stroke="#263238" stroke-linecap="round" stroke-linejoin="round" stroke-width="1.1"/>
            <path id="Trazado_816182" data-name="Trazado 816182" d="M272.237,261.864a1.464,1.464,0,1,1-1.464-1.464A1.466,1.466,0,0,1,272.237,261.864Z" transform="translate(-209.92 -181.48)" fill="#263238"/>
            <g id="Grupo_1070662" data-name="Grupo 1070662" transform="translate(30.683 118.755)">
              <path id="Trazado_816183" data-name="Trazado 816183" d="M293.346,355.9H242.6a1.189,1.189,0,0,1-1.189-1.189h0a1.189,1.189,0,0,1,1.189-1.189h50.746a1.189,1.189,0,0,1,1.189,1.189h0A1.189,1.189,0,0,1,293.346,355.9Z" transform="translate(-235.905 -315.913)" fill="#263238"/>
              <path id="Trazado_816184" data-name="Trazado 816184" d="M294,344.343l6.8-31.935a3.4,3.4,0,0,0-3.327-4.108H238.192a3.4,3.4,0,0,0-3.335,4.058l6.1,30.87a3.393,3.393,0,0,0,3.26,2.736l46.389,1.065a3.4,3.4,0,0,0,3.4-2.686Z" transform="translate(-234.791 -308.3)" fill="#fff" stroke="#263238" stroke-linecap="round" stroke-linejoin="round" stroke-width="1.1"/>
              <path id="Trazado_816185" data-name="Trazado 816185" d="M278.064,329.482a4.732,4.732,0,1,1-4.732-4.732A4.735,4.735,0,0,1,278.064,329.482Z" transform="translate(-240.483 -311.07)" fill="#263238"/>
              <line id="Línea_3701" data-name="Línea 3701" x2="7.044" transform="translate(46.878 3.035)" fill="none" stroke="#263238" stroke-linecap="round" stroke-linejoin="round" stroke-width="1.1"/>
              <line id="Línea_3702" data-name="Línea 3702" x2="26.745" transform="translate(13.239 3.035)" fill="none" stroke="#263238" stroke-linecap="round" stroke-linejoin="round" stroke-width="1.1"/>
            </g>
            <path id="Trazado_816186" data-name="Trazado 816186" d="M288.669,383.7l-5.406,14.188s-13.78-3.476-31.444-7.094c-18.462-3.784-37.748-8.682-47.753-26.23a9.949,9.949,0,0,1-1.464-7.061c1.447-6.063,9.331-7.709,14.529-8.316a97.11,97.11,0,0,1,9.838-.557c1.672-.025,7.194-.9,8.533.083a38.808,38.808,0,0,0,6.42,3.8c2.952,1.256,46.048-1.123,46.048-1.123a15.38,15.38,0,0,0,1.356-5.173c6.778-3.443,22.463-6.362,29.091-5.073,10.42,2.029,16.5,8.108,15.344,14.479S309.6,379.078,288.677,383.71Z" transform="translate(-198.658 -195.023)" fill="#263238"/>
            <path id="Trazado_816187" data-name="Trazado 816187" d="M294.424,387.351s-13.107-3.476-23.818-10.712-19.078-15.635-34.006-13.9" transform="translate(-204.413 -198.672)" fill="none" stroke="#fff" stroke-linecap="round" stroke-linejoin="round" stroke-width="1.1"/>
            <path id="Trazado_816188" data-name="Trazado 816188" d="M274.53,372.874c6.77-1.946,11.734-6.32,17.165-10.529a116.881,116.881,0,0,1,18.371-12.075" transform="translate(-210.799 -196.611)" fill="none" stroke="#fff" stroke-linecap="round" stroke-linejoin="round" stroke-width="1.1"/>
            <line id="Línea_3703" data-name="Línea 3703" x2="1.979" transform="translate(61.352 36.723)" fill="none" stroke="#263238" stroke-linecap="round" stroke-linejoin="round" stroke-width="1.1"/>
          </g>
        </g>
      </g>
    </g>
  </g>
</svg>
