<svg xmlns="http://www.w3.org/2000/svg" xmlns:xlink="http://www.w3.org/1999/xlink" width="122.456" height="126.883" viewBox="0 0 122.456 126.883">
  <defs>
    <clipPath id="clip-path">
      <rect id="Rectángulo_376236" data-name="Rectángulo 376236" width="122.456" height="121.619" transform="translate(0 -12)" fill="#bec2c8"/>
    </clipPath>
    <clipPath id="clip-path-2">
      <rect id="Rectángulo_376235" data-name="Rectángulo 376235" width="122.456" height="116.05" fill="#bec2c8"/>
    </clipPath>
    <clipPath id="clip-path-3">
      <rect id="Rectángulo_376230" data-name="Rectángulo 376230" width="122.456" height="110.575" fill="#bec2c8"/>
    </clipPath>
    <clipPath id="clip-path-4">
      <rect id="Rectángulo_376232" data-name="Rectángulo 376232" width="13.116" height="8.164" fill="#bec2c8"/>
    </clipPath>
    <clipPath id="clip-path-5">
      <rect id="Rectángulo_376231" data-name="Rectángulo 376231" width="22.39" height="16.827" fill="#bec2c8"/>
    </clipPath>
    <clipPath id="clip-path-6">
      <rect id="Rectángulo_376233" data-name="Rectángulo 376233" width="5.066" height="4.711" fill="#bec2c8"/>
    </clipPath>
    <clipPath id="clip-path-7">
      <rect id="Rectángulo_376234" data-name="Rectángulo 376234" width="14.437" height="7.618" fill="#bec2c8"/>
    </clipPath>
  </defs>
  <g id="Grupo_1072594" data-name="Grupo 1072594" transform="translate(-1242.057 -3183.808)">
    <g id="Grupo_1072541" data-name="Grupo 1072541" transform="translate(1236.757 3190.544)">
      <g id="Grupo_1072558" data-name="Grupo 1072558" transform="translate(5.3 5.264)" clip-path="url(#clip-path)">
        <g id="Grupo_1072557" data-name="Grupo 1072557" transform="translate(0 -6.734)">
          <g id="Grupo_1072556" data-name="Grupo 1072556" clip-path="url(#clip-path-2)">
            <g id="Grupo_1072543" data-name="Grupo 1072543" transform="translate(0 5.778)" opacity="0.5" style="mix-blend-mode: multiply;isolation: isolate">
              <g id="Grupo_1072542" data-name="Grupo 1072542">
                <g id="Grupo_1072541-2" data-name="Grupo 1072541" clip-path="url(#clip-path-3)">
                  <path id="Trazado_821337" data-name="Trazado 821337" d="M92.6,92.033c-21,21-48.642,26.117-69.645,5.115-28.5-28.5-31.545-49.314-3.05-77.809,33.011-33.011,40.416-18.074,82.221,2.705C139.061,40.4,119.413,65.222,92.6,92.033" transform="translate(0 0.001)" fill="#bec2c8"/>
                </g>
              </g>
            </g>
            <g id="Grupo_1072549" data-name="Grupo 1072549" transform="translate(11.927 13.507)" opacity="0.5" style="mix-blend-mode: multiply;isolation: isolate">
              <g id="Grupo_1072548" data-name="Grupo 1072548">
                <g id="Grupo_1072547" data-name="Grupo 1072547" clip-path="url(#clip-path-4)">
                  <path id="Trazado_821339" data-name="Trazado 821339" d="M156.9,108.059a3.29,3.29,0,0,0,2.781,1.586,6.976,6.976,0,0,0,3.221-.8,25.021,25.021,0,0,0,5.321-3.546,4.593,4.593,0,0,0,1.323-1.5,1.662,1.662,0,0,0-.222-1.873,2.29,2.29,0,0,0-1.621-.448c-2.489.008-12.936,2.532-10.8,6.573" transform="translate(-156.618 -101.487)" fill="#bec2c8"/>
                </g>
              </g>
            </g>
            <g id="Grupo_1072560" data-name="Grupo 1072560" transform="translate(68.848)">
              <g id="Grupo_1072546" data-name="Grupo 1072546" transform="translate(7.334 0)" opacity="0.5" style="mix-blend-mode: multiply;isolation: isolate">
                <g id="Grupo_1072545" data-name="Grupo 1072545">
                  <g id="Grupo_1072544" data-name="Grupo 1072544" clip-path="url(#clip-path-5)">
                    <path id="Trazado_821338" data-name="Trazado 821338" d="M1129.942,61.5c.479.271,1.19.489,1.487.026a.891.891,0,0,0,.065-.667,4.581,4.581,0,0,0-1.637-2.248c-2.932-2.645-5.878-5.284-9.007-7.7-1.579-1.217-3.2-2.379-4.889-3.445-1.213-.767-3.354-2.558-4.868-2.5-2.791.108-2.208,3.478-.651,4.672,2.195,1.683,5.012,2.539,7.31,4.11,3.982,2.724,7.986,5.37,12.189,7.747" transform="translate(-1109.138 -44.97)" fill="#bec2c8"/>
                  </g>
                </g>
              </g>
              <g id="Grupo_1072552" data-name="Grupo 1072552" transform="translate(0 0.622)" opacity="0.5" style="mix-blend-mode: multiply;isolation: isolate">
                <g id="Grupo_1072551" data-name="Grupo 1072551">
                  <g id="Grupo_1072550" data-name="Grupo 1072550" clip-path="url(#clip-path-6)">
                    <path id="Trazado_821340" data-name="Trazado 821340" d="M1014.158,53.269a1.118,1.118,0,0,0-1.1.037.8.8,0,0,0-.217.756,2.033,2.033,0,0,0,.356.737,13.446,13.446,0,0,0,.83,1.077,5.381,5.381,0,0,0,2.566,1.916,1.159,1.159,0,0,0,.849-.035,1.066,1.066,0,0,0,.444-1.023c-.1-1.478-2.49-3.014-3.732-3.464" transform="translate(-1012.827 -53.144)" fill="#bec2c8"/>
                  </g>
                </g>
              </g>
            </g>
            <g id="Grupo_1072555" data-name="Grupo 1072555" transform="translate(80.916 107.249)" opacity="0.5" style="mix-blend-mode: multiply;isolation: isolate">
              <g id="Grupo_1072554" data-name="Grupo 1072554">
                <g id="Grupo_1072553" data-name="Grupo 1072553" clip-path="url(#clip-path-7)">
                  <path id="Trazado_821341" data-name="Trazado 821341" d="M1075.479,1333.142a7.438,7.438,0,0,0-2.916-.631c-1.6-.125-3.368-.2-4.606.817l-.455-.011a26.534,26.534,0,0,0-2.765,1.68,5.607,5.607,0,0,0-1.936,1.956,2.225,2.225,0,0,0,.289,2.577,3.28,3.28,0,0,0,2.781.417,56.227,56.227,0,0,0,8.134-1.947c1.287-.411,2.766-1.111,2.942-2.45a2.535,2.535,0,0,0-1.469-2.409" transform="translate(-1062.527 -1332.44)" fill="#bec2c8"/>
                </g>
              </g>
            </g>
          </g>
        </g>
      </g>
    </g>
    <g id="Grupo_1072542-2" data-name="Grupo 1072542" transform="translate(3.33 5)">
      <g id="regresion-lineal" transform="translate(1241.75 3189.543)">
        <rect id="Rectángulo_376226" data-name="Rectángulo 376226" width="90.855" height="90.855" rx="10" transform="translate(16.108 19.718)" fill="#f8af23"/>
        <path id="Trazado_821282" data-name="Trazado 821282" d="M214.382,23.991h-4.246a4.47,4.47,0,0,1,4.47,4.47v81.915a4.47,4.47,0,0,1-4.47,4.47h4.246a4.47,4.47,0,0,0,4.47-4.47V28.461A4.47,4.47,0,0,0,214.382,23.991Z" transform="translate(-111.889 -4.273)" fill="#f8d323"/>
        <path id="Trazado_821283" data-name="Trazado 821283" d="M113.237,111.4H26.9a3.651,3.651,0,0,1-3.651-3.651V21.415a3.651,3.651,0,1,1,7.3,0V104.1h82.684a3.651,3.651,0,0,1,0,7.3Z" transform="translate(-8.533 -0.829)" fill="#63bce7"/>
        <path id="Trazado_821284" data-name="Trazado 821284" d="M27.5,107.752V21.417a3.644,3.644,0,0,1,1.529-2.965,3.647,3.647,0,0,0-5.775,2.965v86.335A3.651,3.651,0,0,0,26.9,111.4h4.246a3.651,3.651,0,0,1-3.651-3.651Z" transform="translate(-8.533 -0.831)" fill="#6377e7"/>
        <circle id="Elipse_10445" data-name="Elipse 10445" cx="3.501" cy="3.501" r="3.501" transform="translate(34.892 73.584)" fill="#9e9e9e"/>
        <circle id="Elipse_10446" data-name="Elipse 10446" cx="3.501" cy="3.501" r="3.501" transform="translate(40.032 55.444)" fill="#9e9e9e"/>
        <circle id="Elipse_10447" data-name="Elipse 10447" cx="3.501" cy="3.501" r="3.501" transform="translate(49.274 85.201)" fill="#9e9e9e"/>
        <circle id="Elipse_10448" data-name="Elipse 10448" cx="3.501" cy="3.501" r="3.501" transform="translate(68.417 80.586)" fill="#9e9e9e"/>
        <circle id="Elipse_10449" data-name="Elipse 10449" cx="3.501" cy="3.501" r="3.501" transform="translate(69.052 63.754)" fill="#9e9e9e"/>
        <circle id="Elipse_10450" data-name="Elipse 10450" cx="3.501" cy="3.501" r="3.501" transform="translate(86.334 60.253)" fill="#9e9e9e"/>
        <circle id="Elipse_10451" data-name="Elipse 10451" cx="3.501" cy="3.501" r="3.501" transform="translate(89.43 43.187)" fill="#9e9e9e"/>
        <circle id="Elipse_10452" data-name="Elipse 10452" cx="3.501" cy="3.501" r="3.501" transform="translate(52.775 51.943)" fill="#9e9e9e"/>
        <circle id="Elipse_10453" data-name="Elipse 10453" cx="3.501" cy="3.501" r="3.501" transform="translate(63.277 31.645)" fill="#9e9e9e"/>
        <circle id="Elipse_10454" data-name="Elipse 10454" cx="3.501" cy="3.501" r="3.501" transform="translate(80.753 27.084)" fill="#9e9e9e"/>
        <g id="Grupo_1072537" data-name="Grupo 1072537" transform="translate(7.82 16.264)">
          <path id="Trazado_821285" data-name="Trazado 821285" d="M16.539,236.736H8.493a.67.67,0,0,0,0,1.341h8.045a.67.67,0,0,0,0-1.341Z" transform="translate(-7.822 -138.194)" fill="#3f3679"/>
          <path id="Trazado_821286" data-name="Trazado 821286" d="M235.9,236.736H227.85a.67.67,0,0,0,0,1.341H235.9a.67.67,0,1,0,0-1.341Z" transform="translate(-129.135 -138.194)" fill="#3f3679"/>
          <path id="Trazado_821287" data-name="Trazado 821287" d="M117.572,236.736H36.691a.67.67,0,1,0,0,1.341h80.881a.67.67,0,0,0,0-1.341Z" transform="translate(-23.416 -138.194)" fill="#3f3679"/>
          <path id="Trazado_821288" data-name="Trazado 821288" d="M115.251,110.573a.67.67,0,0,0-.67-.67h-6.756a4.3,4.3,0,0,0-.191-6.148V24.187a5.146,5.146,0,0,0-5.14-5.14H22.4a4.319,4.319,0,0,0-8.355,1.538v86.335a4.3,4.3,0,0,0,1.2,2.98H8.49a.67.67,0,0,0,0,1.341h106.09a.67.67,0,0,0,.67-.67Zm-8.958-7.666a4.291,4.291,0,0,0-1.59-.307H92.369V95.174a.67.67,0,1,0-1.341,0V102.6H82.894V95.174a.67.67,0,0,0-1.341,0V102.6H73.418V95.174a.67.67,0,0,0-1.341,0V102.6H63.949V95.174a.67.67,0,1,0-1.341,0V102.6H54.474V95.174a.67.67,0,0,0-1.341,0V102.6H45V95.174a.67.67,0,0,0-1.341,0V102.6H35.523V95.174a.67.67,0,0,0-1.341,0V102.6H23.764l81.818-80.617a3.774,3.774,0,0,1,.711,2.2Zm-3.8-82.518a3.777,3.777,0,0,1,2.13.656L22.69,101.775V88.1h7.447a.67.67,0,0,0,0-1.341H22.69V78.623h7.447a.67.67,0,0,0,0-1.341H22.69V69.147h7.447a.67.67,0,1,0,0-1.341H22.69V59.672h7.447a.67.67,0,1,0,0-1.341H22.69V50.2h7.447a.67.67,0,1,0,0-1.341H22.69V40.729h7.447a.67.67,0,1,0,0-1.341H22.69V31.253h7.447a.67.67,0,1,0,0-1.341H22.69V20.586c0-.067-.007-.132-.01-.2ZM18.368,109.9a2.984,2.984,0,0,1-2.981-2.981V20.586a2.981,2.981,0,1,1,5.962,0V103.27a.67.67,0,0,0,.67.67H104.7a2.981,2.981,0,0,1,0,5.962Z" transform="translate(-7.82 -16.264)" fill="#3f3679"/>
          <path id="Trazado_821289" data-name="Trazado 821289" d="M71.061,151.35a4.171,4.171,0,1,0-4.171-4.171A4.171,4.171,0,0,0,71.061,151.35Zm0-7a2.831,2.831,0,1,1-2.831,2.831,2.831,2.831,0,0,1,2.831-2.831Z" transform="translate(-40.488 -86.358)" fill="#3f3679"/>
          <path id="Trazado_821290" data-name="Trazado 821290" d="M82.561,110.766a4.171,4.171,0,1,0-4.171-4.171,4.171,4.171,0,0,0,4.171,4.171Zm0-7a2.831,2.831,0,1,1-2.831,2.831,2.831,2.831,0,0,1,2.831-2.831Z" transform="translate(-46.848 -63.914)" fill="#3f3679"/>
          <path id="Trazado_821291" data-name="Trazado 821291" d="M103.238,169a4.171,4.171,0,1,0,4.171,4.171A4.171,4.171,0,0,0,103.238,169Zm0,7a2.831,2.831,0,1,1,2.831-2.831A2.831,2.831,0,0,1,103.238,176Z" transform="translate(-58.283 -100.733)" fill="#3f3679"/>
          <path id="Trazado_821292" data-name="Trazado 821292" d="M146.068,158.673a4.171,4.171,0,1,0,4.171,4.171,4.171,4.171,0,0,0-4.171-4.171Zm0,7a2.831,2.831,0,1,1,2.831-2.831,2.831,2.831,0,0,1-2.831,2.831Z" transform="translate(-81.97 -95.022)" fill="#3f3679"/>
          <path id="Trazado_821293" data-name="Trazado 821293" d="M147.488,121.014a4.171,4.171,0,1,0,4.172,4.172A4.171,4.171,0,0,0,147.488,121.014Zm0,7a2.831,2.831,0,1,1,2.831-2.831,2.83,2.83,0,0,1-2.831,2.831Z" transform="translate(-82.755 -74.195)" fill="#3f3679"/>
          <path id="Trazado_821294" data-name="Trazado 821294" d="M186.154,113.18a4.171,4.171,0,1,0,4.171,4.171,4.171,4.171,0,0,0-4.171-4.171Zm0,7a2.831,2.831,0,1,1,2.831-2.831A2.831,2.831,0,0,1,186.154,120.183Z" transform="translate(-104.139 -69.863)" fill="#3f3679"/>
          <path id="Trazado_821295" data-name="Trazado 821295" d="M193.081,75a4.171,4.171,0,1,0,4.171,4.171A4.171,4.171,0,0,0,193.081,75Zm0,7a2.831,2.831,0,1,1,2.831-2.831A2.831,2.831,0,0,1,193.081,82Z" transform="translate(-107.97 -48.748)" fill="#3f3679"/>
          <path id="Trazado_821296" data-name="Trazado 821296" d="M111.07,102.933a4.171,4.171,0,1,0-4.171-4.171A4.171,4.171,0,0,0,111.07,102.933Zm0-7a2.831,2.831,0,1,1-2.831,2.831,2.831,2.831,0,0,1,2.831-2.831Z" transform="translate(-62.615 -59.582)" fill="#3f3679"/>
          <path id="Trazado_821297" data-name="Trazado 821297" d="M134.568,57.519a4.171,4.171,0,1,0-4.172-4.172A4.171,4.171,0,0,0,134.568,57.519Zm0-7a2.831,2.831,0,1,1-2.831,2.831,2.831,2.831,0,0,1,2.831-2.831Z" transform="translate(-75.609 -34.466)" fill="#3f3679"/>
          <path id="Trazado_821298" data-name="Trazado 821298" d="M173.666,47.314a4.171,4.171,0,1,0-4.172-4.172A4.171,4.171,0,0,0,173.666,47.314Zm0-7a2.831,2.831,0,1,1-2.831,2.831,2.831,2.831,0,0,1,2.831-2.831Z" transform="translate(-97.232 -28.822)" fill="#3f3679"/>
        </g>
      </g>
      <g id="Grupo_1072539" data-name="Grupo 1072539" transform="translate(-1 321.729)">
        <g id="Trazado_821329" data-name="Trazado 821329" transform="translate(1245.948 2936.5)" fill="none">
          <path d="M15.609,0A15.609,15.609,0,1,1,0,15.609,15.609,15.609,0,0,1,15.609,0Z" stroke="none"/>
          <path d="M 15.60876655578613 3 C 12.24084663391113 3 9.074506759643555 4.311540603637695 6.693027496337891 6.693031311035156 C 4.31153678894043 9.07451057434082 2.999996185302734 12.2408504486084 2.999996185302734 15.60878086090088 C 2.999996185302734 18.97671127319336 4.31153678894043 22.14305114746094 6.693027496337891 24.5245304107666 C 9.074506759643555 26.90602111816406 12.24084663391113 28.21755981445312 15.60876655578613 28.21755981445312 C 18.97668647766113 28.21755981445312 22.14302635192871 26.90602111816406 24.52450561523438 24.5245304107666 C 26.90599632263184 22.14305114746094 28.21753692626953 18.97671127319336 28.21753692626953 15.60878086090088 C 28.21753692626953 12.2408504486084 26.90599632263184 9.07451057434082 24.52450561523438 6.693031311035156 C 22.14302635192871 4.311540603637695 18.97668647766113 3 15.60876655578613 3 M 15.60876655578613 0 C 24.22924613952637 0 31.21753692626953 6.988290786743164 31.21753692626953 15.60878086090088 C 31.21753692626953 24.22927093505859 24.22924613952637 31.21756172180176 15.60876655578613 31.21756172180176 C 6.988286972045898 31.21756172180176 -3.814697265625e-06 24.22927093505859 -3.814697265625e-06 15.60878086090088 C -3.814697265625e-06 6.988290786743164 6.988286972045898 0 15.60876655578613 0 Z" stroke="none" fill="#fff"/>
        </g>
        <line id="Línea_3785" data-name="Línea 3785" y1="25.838" x2="22.489" transform="translate(1244.092 2947.085)" fill="none" stroke="#78f0f4" stroke-linecap="round" stroke-miterlimit="10" stroke-width="2" stroke-dasharray="5 7"/>
      </g>
      <path id="Trazado_821331" data-name="Trazado 821331" d="M13.141,0,8.356,4.786,3.571,0,0,3.572,4.785,8.357,0,13.142l3.571,3.571,4.785-4.785,4.785,4.785,3.571-3.571L11.927,8.357l4.785-4.785Z" transform="translate(1340.288 3220.451)" fill="#25eff6"/>
    </g>
  </g>
</svg>
