<svg xmlns="http://www.w3.org/2000/svg" width="819" height="304.814" viewBox="0 0 819 304.814">
  <g id="Grupo_1073761" data-name="Grupo 1073761" transform="translate(-601 -5132.079)">
    <path id="Trazado_823057" data-name="Trazado 823057" d="M0,0H819V304.814H0Z" transform="translate(601 5132.079)" fill="#e0e8f1"/>
    <path id="Captura_de_pantalla_2023-07-14_133325" data-name="Captura de pantalla 2023-07-14 133325" d="M0,0H801V286.65H0Z" transform="translate(610.097 5141.59)" fill="#fff"/>
    <path id="Captura_de_pantalla_2023-07-14_133325-2" data-name="Captura de pantalla 2023-07-14 133325" d="M0,0H291.021V195.176H0Z" transform="translate(672.5 5187.414)" fill="#e5e5e5"/>
    <path id="Trazado_823058" data-name="Trazado 823058" d="M7.266-4.929H2.644V-1.15H8.013V0H1.238V-10.664h6.7v1.15h-5.3v3.435H7.266Zm6.9,2.827a1,1,0,0,0-.414-.853,3.983,3.983,0,0,0-1.443-.524,6.822,6.822,0,0,1-1.633-.527,2.324,2.324,0,0,1-.894-.732A1.752,1.752,0,0,1,9.492-5.75,2.056,2.056,0,0,1,10.316-7.4a3.218,3.218,0,0,1,2.106-.674,3.311,3.311,0,0,1,2.186.7,2.21,2.21,0,0,1,.839,1.78H14.084a1.223,1.223,0,0,0-.472-.959,1.77,1.77,0,0,0-1.19-.4,1.852,1.852,0,0,0-1.157.322,1.014,1.014,0,0,0-.417.842.822.822,0,0,0,.388.74,4.776,4.776,0,0,0,1.4.476,7.308,7.308,0,0,1,1.644.542,2.4,2.4,0,0,1,.934.758,1.864,1.864,0,0,1,.3,1.08,2.028,2.028,0,0,1-.85,1.7,3.564,3.564,0,0,1-2.2.641A3.991,3.991,0,0,1,10.781-.19a2.74,2.74,0,0,1-1.146-.941,2.268,2.268,0,0,1-.414-1.307h1.355a1.4,1.4,0,0,0,.546,1.08,2.117,2.117,0,0,0,1.344.4A2.185,2.185,0,0,0,13.7-1.271.956.956,0,0,0,14.165-2.1Zm4.958-7.742v1.919H20.6v1.047H19.124v4.921a1.1,1.1,0,0,0,.2.715A.832.832,0,0,0,20-1a3.281,3.281,0,0,0,.645-.088V0A3.951,3.951,0,0,1,19.6.146,1.687,1.687,0,0,1,18.23-.4a2.36,2.36,0,0,1-.461-1.56V-6.877H16.326V-7.925h1.443V-9.844ZM27.078,0a2.846,2.846,0,0,1-.19-.835,3.023,3.023,0,0,1-2.256.981,2.8,2.8,0,0,1-1.923-.663A2.145,2.145,0,0,1,21.958-2.2,2.24,2.24,0,0,1,22.9-4.12,4.437,4.437,0,0,1,25.547-4.8h1.318v-.623a1.522,1.522,0,0,0-.425-1.132,1.707,1.707,0,0,0-1.252-.421,1.976,1.976,0,0,0-1.216.366,1.079,1.079,0,0,0-.491.886H22.119a1.87,1.87,0,0,1,.421-1.146,2.874,2.874,0,0,1,1.143-.875,3.844,3.844,0,0,1,1.586-.322,3.133,3.133,0,0,1,2.146.685A2.47,2.47,0,0,1,28.22-5.5v3.647A4.459,4.459,0,0,0,28.5-.117V0ZM24.829-1.033a2.381,2.381,0,0,0,1.208-.33,1.994,1.994,0,0,0,.828-.857V-3.845H25.8q-2.49,0-2.49,1.458a1.234,1.234,0,0,0,.425,1A1.633,1.633,0,0,0,24.829-1.033Zm5.186-3a4.642,4.642,0,0,1,.864-2.933,2.733,2.733,0,0,1,2.263-1.11,2.748,2.748,0,0,1,2.2.952V-11.25H36.7V0H35.457l-.066-.85a2.759,2.759,0,0,1-2.263,1A2.707,2.707,0,0,1,30.883-.981a4.7,4.7,0,0,1-.868-2.944Zm1.355.154a3.515,3.515,0,0,0,.557,2.109A1.8,1.8,0,0,0,33.464-1a1.977,1.977,0,0,0,1.882-1.157V-5.8a1.992,1.992,0,0,0-1.868-1.121,1.808,1.808,0,0,0-1.553.769A3.87,3.87,0,0,0,31.37-3.875Zm7.075-.161A4.681,4.681,0,0,1,38.9-6.13a3.415,3.415,0,0,1,1.274-1.436,3.469,3.469,0,0,1,1.864-.505,3.342,3.342,0,0,1,2.618,1.121,4.311,4.311,0,0,1,1,2.981v.1A4.722,4.722,0,0,1,45.216-1.8,3.365,3.365,0,0,1,43.949-.366a3.509,3.509,0,0,1-1.893.513A3.334,3.334,0,0,1,39.445-.974a4.29,4.29,0,0,1-1-2.966Zm1.362.161a3.39,3.39,0,0,0,.612,2.117,1.957,1.957,0,0,0,1.637.8A1.945,1.945,0,0,0,43.7-1.769,3.707,3.707,0,0,0,44.3-4.036a3.384,3.384,0,0,0-.619-2.113,1.968,1.968,0,0,0-1.644-.809,1.946,1.946,0,0,0-1.619.8A3.68,3.68,0,0,0,39.807-3.875ZM51.973-2.1a1,1,0,0,0-.414-.853,3.983,3.983,0,0,0-1.443-.524,6.822,6.822,0,0,1-1.633-.527,2.324,2.324,0,0,1-.894-.732A1.752,1.752,0,0,1,47.3-5.75,2.056,2.056,0,0,1,48.124-7.4a3.218,3.218,0,0,1,2.106-.674,3.311,3.311,0,0,1,2.186.7,2.21,2.21,0,0,1,.839,1.78H51.892a1.223,1.223,0,0,0-.472-.959,1.77,1.77,0,0,0-1.19-.4,1.852,1.852,0,0,0-1.157.322,1.014,1.014,0,0,0-.417.842.822.822,0,0,0,.388.74,4.776,4.776,0,0,0,1.4.476,7.308,7.308,0,0,1,1.644.542,2.4,2.4,0,0,1,.934.758,1.864,1.864,0,0,1,.3,1.08,2.028,2.028,0,0,1-.85,1.7,3.564,3.564,0,0,1-2.2.641A3.991,3.991,0,0,1,48.589-.19a2.74,2.74,0,0,1-1.146-.941,2.268,2.268,0,0,1-.414-1.307h1.355a1.4,1.4,0,0,0,.546,1.08,2.117,2.117,0,0,0,1.344.4,2.185,2.185,0,0,0,1.234-.311A.956.956,0,0,0,51.973-2.1ZM61.985-.959A1.952,1.952,0,0,0,63.252-1.4a1.546,1.546,0,0,0,.6-1.1h1.282a2.457,2.457,0,0,1-.469,1.3,3.087,3.087,0,0,1-1.154.981,3.329,3.329,0,0,1-1.527.366A3.265,3.265,0,0,1,59.41-.934a4.3,4.3,0,0,1-.956-2.955v-.227a4.771,4.771,0,0,1,.425-2.058,3.236,3.236,0,0,1,1.219-1.4,3.464,3.464,0,0,1,1.879-.5,3.178,3.178,0,0,1,2.216.8A2.853,2.853,0,0,1,65.134-5.2H63.853a1.867,1.867,0,0,0-.582-1.263,1.811,1.811,0,0,0-1.293-.494,1.9,1.9,0,0,0-1.6.743,3.491,3.491,0,0,0-.568,2.15v.256A3.422,3.422,0,0,0,60.374-1.7,1.906,1.906,0,0,0,61.985-.959ZM66.3-4.036a4.681,4.681,0,0,1,.458-2.095,3.415,3.415,0,0,1,1.274-1.436A3.469,3.469,0,0,1,69.9-8.071a3.342,3.342,0,0,1,2.618,1.121,4.311,4.311,0,0,1,1,2.981v.1A4.722,4.722,0,0,1,73.07-1.8,3.365,3.365,0,0,1,71.8-.366,3.509,3.509,0,0,1,69.91.146,3.334,3.334,0,0,1,67.3-.974a4.29,4.29,0,0,1-1-2.966Zm1.362.161a3.39,3.39,0,0,0,.612,2.117,1.957,1.957,0,0,0,1.637.8,1.945,1.945,0,0,0,1.641-.809,3.707,3.707,0,0,0,.608-2.267,3.384,3.384,0,0,0-.619-2.113A1.968,1.968,0,0,0,69.9-6.958a1.946,1.946,0,0,0-1.619.8A3.68,3.68,0,0,0,67.661-3.875Zm8.833-4.05.044,1a2.888,2.888,0,0,1,2.373-1.143q2.512,0,2.534,2.834V0H80.09V-5.244A1.824,1.824,0,0,0,79.7-6.511a1.57,1.57,0,0,0-1.2-.41,1.956,1.956,0,0,0-1.157.352,2.387,2.387,0,0,0-.776.923V0H75.212V-7.925Zm11.982,0,.037.879a2.927,2.927,0,0,1,2.351-1.025A2.266,2.266,0,0,1,93.127-6.8a3,3,0,0,1,1.029-.923,3.039,3.039,0,0,1,1.5-.352q2.607,0,2.651,2.761V0H96.951V-5.229A1.82,1.82,0,0,0,96.563-6.5a1.71,1.71,0,0,0-1.3-.421,1.8,1.8,0,0,0-1.252.45,1.827,1.827,0,0,0-.579,1.212V0H92.065V-5.193a1.512,1.512,0,0,0-1.692-1.729A1.813,1.813,0,0,0,88.55-5.786V0H87.195V-7.925ZM105.242,0a2.846,2.846,0,0,1-.19-.835A3.023,3.023,0,0,1,102.8.146a2.8,2.8,0,0,1-1.923-.663,2.145,2.145,0,0,1-.751-1.681,2.24,2.24,0,0,1,.941-1.923,4.437,4.437,0,0,1,2.648-.685h1.318v-.623a1.522,1.522,0,0,0-.425-1.132,1.707,1.707,0,0,0-1.252-.421,1.976,1.976,0,0,0-1.216.366,1.079,1.079,0,0,0-.491.886h-1.362a1.87,1.87,0,0,1,.421-1.146,2.874,2.874,0,0,1,1.143-.875,3.844,3.844,0,0,1,1.586-.322,3.133,3.133,0,0,1,2.146.685,2.47,2.47,0,0,1,.806,1.886v3.647a4.459,4.459,0,0,0,.278,1.736V0Zm-2.249-1.033a2.381,2.381,0,0,0,1.208-.33,1.994,1.994,0,0,0,.828-.857V-3.845h-1.062q-2.49,0-2.49,1.458a1.234,1.234,0,0,0,.425,1A1.633,1.633,0,0,0,102.993-1.033Zm8.108-.952,1.846-5.94h1.45l-3.186,9.148Q110.471,3.2,108.86,3.2l-.256-.022-.505-.1v-1.1l.366.029a1.8,1.8,0,0,0,1.073-.278,2.014,2.014,0,0,0,.634-1.018l.3-.806-2.827-7.837h1.479Zm4.146-2.051A4.681,4.681,0,0,1,115.7-6.13a3.415,3.415,0,0,1,1.274-1.436,3.469,3.469,0,0,1,1.864-.505,3.342,3.342,0,0,1,2.618,1.121,4.311,4.311,0,0,1,1,2.981v.1a4.722,4.722,0,0,1-.443,2.076,3.365,3.365,0,0,1-1.267,1.432,3.509,3.509,0,0,1-1.893.513,3.334,3.334,0,0,1-2.611-1.121,4.29,4.29,0,0,1-1-2.966Zm1.362.161a3.39,3.39,0,0,0,.612,2.117,1.957,1.957,0,0,0,1.637.8,1.945,1.945,0,0,0,1.641-.809,3.707,3.707,0,0,0,.608-2.267,3.384,3.384,0,0,0-.619-2.113,1.968,1.968,0,0,0-1.644-.809,1.946,1.946,0,0,0-1.619.8A3.68,3.68,0,0,0,116.609-3.875Zm11.382-2.834a4.061,4.061,0,0,0-.667-.051,1.786,1.786,0,0,0-1.809,1.135V0H124.16V-7.925h1.318l.022.916a2.11,2.11,0,0,1,1.89-1.062,1.384,1.384,0,0,1,.6.1Zm4.629,2.681a4.642,4.642,0,0,1,.864-2.933,2.733,2.733,0,0,1,2.263-1.11,2.748,2.748,0,0,1,2.2.952V-11.25h1.355V0h-1.245L138-.85a2.759,2.759,0,0,1-2.263,1,2.707,2.707,0,0,1-2.245-1.128,4.7,4.7,0,0,1-.868-2.944Zm1.355.154a3.515,3.515,0,0,0,.557,2.109A1.8,1.8,0,0,0,136.069-1a1.977,1.977,0,0,0,1.882-1.157V-5.8a1.992,1.992,0,0,0-1.868-1.121,1.808,1.808,0,0,0-1.553.769A3.87,3.87,0,0,0,133.975-3.875ZM142.881,0h-1.355V-7.925h1.355Zm-1.465-10.027a.809.809,0,0,1,.2-.557.756.756,0,0,1,.6-.227.768.768,0,0,1,.6.227.8.8,0,0,1,.205.557.774.774,0,0,1-.205.549.782.782,0,0,1-.6.22.77.77,0,0,1-.6-.22A.782.782,0,0,1,141.416-10.027ZM149.663-2.1a1,1,0,0,0-.414-.853,3.983,3.983,0,0,0-1.443-.524,6.822,6.822,0,0,1-1.633-.527,2.324,2.324,0,0,1-.894-.732,1.752,1.752,0,0,1-.289-1.011,2.056,2.056,0,0,1,.824-1.648,3.218,3.218,0,0,1,2.106-.674,3.311,3.311,0,0,1,2.186.7,2.21,2.21,0,0,1,.839,1.78h-1.362a1.223,1.223,0,0,0-.472-.959,1.77,1.77,0,0,0-1.19-.4,1.852,1.852,0,0,0-1.157.322,1.014,1.014,0,0,0-.417.842.822.822,0,0,0,.388.74,4.776,4.776,0,0,0,1.4.476,7.308,7.308,0,0,1,1.644.542,2.4,2.4,0,0,1,.934.758,1.864,1.864,0,0,1,.3,1.08,2.028,2.028,0,0,1-.85,1.7,3.564,3.564,0,0,1-2.2.641,3.991,3.991,0,0,1-1.685-.337,2.74,2.74,0,0,1-1.146-.941,2.268,2.268,0,0,1-.414-1.307h1.355a1.4,1.4,0,0,0,.546,1.08,2.117,2.117,0,0,0,1.344.4,2.185,2.185,0,0,0,1.234-.311A.956.956,0,0,0,149.663-2.1Zm4.958-7.742v1.919H156.1v1.047h-1.479v4.921a1.1,1.1,0,0,0,.2.715.832.832,0,0,0,.674.238,3.281,3.281,0,0,0,.645-.088V0a3.951,3.951,0,0,1-1.04.146,1.687,1.687,0,0,1-1.37-.549,2.36,2.36,0,0,1-.461-1.56V-6.877h-1.443V-7.925h1.443V-9.844ZM162.576,0a2.846,2.846,0,0,1-.19-.835,3.023,3.023,0,0,1-2.256.981,2.8,2.8,0,0,1-1.923-.663,2.145,2.145,0,0,1-.751-1.681A2.24,2.24,0,0,1,158.4-4.12a4.437,4.437,0,0,1,2.648-.685h1.318v-.623a1.522,1.522,0,0,0-.425-1.132,1.707,1.707,0,0,0-1.252-.421,1.976,1.976,0,0,0-1.216.366,1.079,1.079,0,0,0-.491.886h-1.362a1.87,1.87,0,0,1,.421-1.146,2.874,2.874,0,0,1,1.143-.875,3.844,3.844,0,0,1,1.586-.322,3.133,3.133,0,0,1,2.146.685,2.47,2.47,0,0,1,.806,1.886v3.647A4.459,4.459,0,0,0,164-.117V0Zm-2.249-1.033a2.381,2.381,0,0,0,1.208-.33,1.994,1.994,0,0,0,.828-.857V-3.845H161.3q-2.49,0-2.49,1.458a1.234,1.234,0,0,0,.425,1A1.633,1.633,0,0,0,160.327-1.033Zm6.8-6.892.044,1a2.888,2.888,0,0,1,2.373-1.143q2.512,0,2.534,2.834V0H170.72V-5.244a1.824,1.824,0,0,0-.392-1.267,1.57,1.57,0,0,0-1.2-.41,1.956,1.956,0,0,0-1.157.352,2.387,2.387,0,0,0-.776.923V0h-1.355V-7.925ZM177.3-.959a1.952,1.952,0,0,0,1.267-.439,1.546,1.546,0,0,0,.6-1.1h1.282a2.457,2.457,0,0,1-.469,1.3,3.087,3.087,0,0,1-1.154.981A3.329,3.329,0,0,1,177.3.146a3.265,3.265,0,0,1-2.574-1.08,4.3,4.3,0,0,1-.956-2.955v-.227a4.771,4.771,0,0,1,.425-2.058,3.236,3.236,0,0,1,1.219-1.4,3.464,3.464,0,0,1,1.879-.5,3.178,3.178,0,0,1,2.216.8,2.853,2.853,0,0,1,.941,2.073h-1.282a1.867,1.867,0,0,0-.582-1.263,1.811,1.811,0,0,0-1.293-.494,1.9,1.9,0,0,0-1.6.743,3.491,3.491,0,0,0-.568,2.15v.256a3.422,3.422,0,0,0,.564,2.109A1.906,1.906,0,0,0,177.3-.959ZM183.442,0h-1.355V-7.925h1.355Zm-1.465-10.027a.809.809,0,0,1,.2-.557.756.756,0,0,1,.6-.227.768.768,0,0,1,.6.227.8.8,0,0,1,.205.557.774.774,0,0,1-.205.549.782.782,0,0,1-.6.22.77.77,0,0,1-.6-.22A.782.782,0,0,1,181.978-10.027ZM190.5,0a2.846,2.846,0,0,1-.19-.835,3.023,3.023,0,0,1-2.256.981,2.8,2.8,0,0,1-1.923-.663,2.145,2.145,0,0,1-.751-1.681,2.24,2.24,0,0,1,.941-1.923,4.437,4.437,0,0,1,2.648-.685h1.318v-.623a1.522,1.522,0,0,0-.425-1.132,1.707,1.707,0,0,0-1.252-.421,1.976,1.976,0,0,0-1.216.366,1.079,1.079,0,0,0-.491.886h-1.362a1.87,1.87,0,0,1,.421-1.146,2.874,2.874,0,0,1,1.143-.875,3.844,3.844,0,0,1,1.586-.322,3.133,3.133,0,0,1,2.146.685,2.47,2.47,0,0,1,.806,1.886v3.647a4.459,4.459,0,0,0,.278,1.736V0Zm-2.249-1.033a2.381,2.381,0,0,0,1.208-.33,1.994,1.994,0,0,0,.828-.857V-3.845h-1.062q-2.49,0-2.49,1.458a1.234,1.234,0,0,0,.425,1A1.633,1.633,0,0,0,188.254-1.033Z" transform="translate(716.472 5174.209)" fill="#12263f"/>
    <path id="Trazado_823059" data-name="Trazado 823059" d="M7.349,0H.827V-.909L4.272-4.737A8.185,8.185,0,0,0,5.329-6.149a2.356,2.356,0,0,0,.291-1.125,1.786,1.786,0,0,0-.472-1.278,1.649,1.649,0,0,0-1.258-.5,1.953,1.953,0,0,0-1.466.537A2.05,2.05,0,0,0,1.9-7.021H.636a2.936,2.936,0,0,1,.885-2.222A3.282,3.282,0,0,1,3.89-10.09a3.153,3.153,0,0,1,2.194.728,2.483,2.483,0,0,1,.807,1.938q0,1.47-1.873,3.5L2.352-1.032h5Z" transform="translate(652.097 5215.645)" fill="#12263f"/>
    <path id="Trazado_823060" data-name="Trazado 823060" d="M4.983,0H3.712V-8.429l-2.55.937V-8.641L4.785-10h.2Z" transform="translate(652.097 5249.763)" fill="#12263f"/>
    <path id="Trazado_823061" data-name="Trazado 823061" d="M7.068-4.245a5.784,5.784,0,0,1-.759,3.3A2.7,2.7,0,0,1,3.938.137,2.718,2.718,0,0,1,1.579-.919,5.49,5.49,0,0,1,.786-4.074V-5.763a5.655,5.655,0,0,1,.759-3.261A2.719,2.719,0,0,1,3.924-10.09,2.744,2.744,0,0,1,6.289-9.061a5.458,5.458,0,0,1,.779,3.175ZM5.8-5.975a4.634,4.634,0,0,0-.451-2.341,1.553,1.553,0,0,0-1.429-.735,1.532,1.532,0,0,0-1.415.731A4.525,4.525,0,0,0,2.051-6.07v2.023a4.708,4.708,0,0,0,.468,2.382A1.55,1.55,0,0,0,3.938-.9,1.529,1.529,0,0,0,5.329-1.62,4.538,4.538,0,0,0,5.8-3.9Z" transform="translate(652.097 5283.881)" fill="#12263f"/>
    <path id="Trazado_823062" data-name="Trazado 823062" d="M3.589-3.712H.253V-4.744H3.589ZM8.846,0H7.574V-8.429l-2.55.937V-8.641L8.647-10h.2Z" transform="translate(650.097 5315.999)" fill="#12263f"/>
    <path id="Trazado_823063" data-name="Trazado 823063" d="M3.589-3.712H.253V-4.744H3.589ZM11.211,0H4.689V-.909L8.135-4.737A8.185,8.185,0,0,0,9.191-6.149a2.356,2.356,0,0,0,.291-1.125A1.786,1.786,0,0,0,9.01-8.552a1.649,1.649,0,0,0-1.258-.5,1.953,1.953,0,0,0-1.466.537,2.05,2.05,0,0,0-.523,1.494H4.5a2.936,2.936,0,0,1,.885-2.222,3.282,3.282,0,0,1,2.369-.848,3.153,3.153,0,0,1,2.194.728,2.483,2.483,0,0,1,.807,1.938q0,1.47-1.873,3.5L6.214-1.032h5Z" transform="translate(650.097 5349.117)" fill="#12263f"/>
    <path id="Trazado_823064" data-name="Trazado 823064" d="M3.753-9.953,5.5-1.846l4.566-8.107h1.688L10.021,0H8.743l.684-3.937.813-4.006L5.729,0H4.744L2.967-8.1,2.352-3.808,1.688,0H.4L2.133-9.953ZM16.83-.731a2.856,2.856,0,0,1-2.208.868,1.843,1.843,0,0,1-1.569-.759,2.9,2.9,0,0,1-.379-2L13.467-7.4H14.7l-.8,4.8a3.187,3.187,0,0,0-.014.588,1.223,1.223,0,0,0,.294.772,1,1,0,0,0,.725.3A2.219,2.219,0,0,0,16.96-2.01L17.89-7.4h1.237L17.842,0H16.673Zm7.458-5.537-.581-.062a2.117,2.117,0,0,0-1.873,1.073L20.925,0H19.688l1.285-7.4,1.2-.007-.185.861a2.211,2.211,0,0,1,1.853-1,2.27,2.27,0,0,1,.588.1Zm.417,2.557a5.755,5.755,0,0,1,.622-2.037,3.527,3.527,0,0,1,1.2-1.36,2.736,2.736,0,0,1,1.565-.431,2.31,2.31,0,0,1,1.9.9L30.7-10.5h1.237L30.119,0H28.991l.13-.793a2.727,2.727,0,0,1-2.16.93,2.043,2.043,0,0,1-1.634-.8,3.5,3.5,0,0,1-.656-2.082A6.648,6.648,0,0,1,24.705-3.712Zm1.189.707a2.563,2.563,0,0,0,.349,1.516,1.258,1.258,0,0,0,1.08.553A2.235,2.235,0,0,0,29.23-2.015l.588-3.414a1.535,1.535,0,0,0-1.49-1.038,1.875,1.875,0,0,0-1.289.44,2.849,2.849,0,0,0-.848,1.29A5.322,5.322,0,0,0,25.895-3.005ZM35.273.137a2.667,2.667,0,0,1-2.16-1.019,3.505,3.505,0,0,1-.656-2.536l.034-.294a4.921,4.921,0,0,1,.653-2.01,3.8,3.8,0,0,1,1.309-1.371,3.054,3.054,0,0,1,1.668-.441,2.352,2.352,0,0,1,1.791.759,3.121,3.121,0,0,1,.711,1.982A5.793,5.793,0,0,1,38.6-3.9l-.075.567H33.688a2.5,2.5,0,0,0,.332,1.709A1.57,1.57,0,0,0,35.376-.9,2.631,2.631,0,0,0,37.4-1.88l.711.6a3.253,3.253,0,0,1-1.2,1.049A3.4,3.4,0,0,1,35.273.137ZM36.06-6.5a1.807,1.807,0,0,0-1.336.52,3.693,3.693,0,0,0-.906,1.606l3.6.007.027-.109a2.024,2.024,0,0,0-.277-1.432A1.3,1.3,0,0,0,36.06-6.5Zm7.875.232-.581-.062A2.117,2.117,0,0,0,41.48-5.257L40.571,0H39.334l1.285-7.4,1.2-.007-.185.861a2.211,2.211,0,0,1,1.853-1,2.27,2.27,0,0,1,.588.1Z" transform="translate(667.378 5406.763)" fill="#12263f"/>
    <path id="Trazado_823065" data-name="Trazado 823065" d="M6.214-2.6H2.181L.82,0H-.554L4.854-9.953H5.981L7.95,0H6.686ZM2.748-3.678H6.022L5.2-8.319ZM13.72-2q.1-.766-.841-1.08l-1.285-.376Q9.967-4.02,10.021-5.318a2.048,2.048,0,0,1,.892-1.6A3.177,3.177,0,0,1,12.9-7.533a2.649,2.649,0,0,1,1.822.653,2.068,2.068,0,0,1,.673,1.665l-1.23-.007a1.154,1.154,0,0,0-.349-.9,1.379,1.379,0,0,0-.964-.362,1.8,1.8,0,0,0-1.107.314,1.151,1.151,0,0,0-.5.807q-.089.643.786.937l.622.171a4.005,4.005,0,0,1,1.8.854A1.632,1.632,0,0,1,14.95-2.1,2.074,2.074,0,0,1,14.5-.9a2.58,2.58,0,0,1-1.094.783,3.658,3.658,0,0,1-1.456.25A2.885,2.885,0,0,1,10.008-.55,2.124,2.124,0,0,1,9.27-2.283l1.237.007a1.311,1.311,0,0,0,.4,1A1.515,1.515,0,0,0,11.99-.9a2.132,2.132,0,0,0,1.169-.284A1.091,1.091,0,0,0,13.72-2Zm7.068,0q.1-.766-.841-1.08l-1.285-.376Q17.035-4.02,17.09-5.318a2.048,2.048,0,0,1,.892-1.6,3.177,3.177,0,0,1,1.986-.612,2.649,2.649,0,0,1,1.822.653,2.068,2.068,0,0,1,.673,1.665l-1.23-.007a1.154,1.154,0,0,0-.349-.9,1.379,1.379,0,0,0-.964-.362,1.8,1.8,0,0,0-1.107.314,1.151,1.151,0,0,0-.5.807q-.089.643.786.937l.622.171a4.005,4.005,0,0,1,1.8.854A1.632,1.632,0,0,1,22.019-2.1a2.074,2.074,0,0,1-.451,1.2,2.58,2.58,0,0,1-1.094.783,3.658,3.658,0,0,1-1.456.25A2.885,2.885,0,0,1,17.076-.55a2.124,2.124,0,0,1-.738-1.733l1.237.007a1.311,1.311,0,0,0,.4,1A1.515,1.515,0,0,0,19.059-.9a2.132,2.132,0,0,0,1.169-.284A1.091,1.091,0,0,0,20.788-2ZM27.8,0a1.657,1.657,0,0,1-.048-.39l.021-.39a3.032,3.032,0,0,1-2.16.916,2.21,2.21,0,0,1-1.589-.619A1.872,1.872,0,0,1,23.468-2,2.277,2.277,0,0,1,24.5-3.832a4.38,4.38,0,0,1,2.526-.66l1.292.007.082-.588a1.352,1.352,0,0,0-.256-1.049,1.237,1.237,0,0,0-.974-.4,1.908,1.908,0,0,0-1.125.311,1.324,1.324,0,0,0-.6.858L24.2-5.346A1.983,1.983,0,0,1,24.705-6.5a2.943,2.943,0,0,1,1.142-.779,3.688,3.688,0,0,1,1.442-.263,2.452,2.452,0,0,1,1.8.7,2.173,2.173,0,0,1,.54,1.788l-.6,3.664-.034.526a2.58,2.58,0,0,0,.082.745L29.06,0ZM25.86-.957a2.158,2.158,0,0,0,1.125-.284,2.847,2.847,0,0,0,.913-.824l.267-1.524L27.228-3.6a3.547,3.547,0,0,0-1.791.369,1.36,1.36,0,0,0-.7,1.046,1.059,1.059,0,0,0,.243.865A1.156,1.156,0,0,0,25.86-.957Zm9.57.226a2.856,2.856,0,0,1-2.208.868,1.843,1.843,0,0,1-1.569-.759,2.9,2.9,0,0,1-.379-2L32.067-7.4H33.3l-.8,4.8a3.187,3.187,0,0,0-.014.588,1.223,1.223,0,0,0,.294.772,1,1,0,0,0,.725.3A2.219,2.219,0,0,0,35.561-2.01L36.49-7.4h1.237L36.442,0H35.273Zm4.2.731H38.4l1.818-10.5h1.237Zm5.291-9.187L44.6-7.4h1.347l-.171.978H44.44l-.772,4.6a1.6,1.6,0,0,0-.007.328.521.521,0,0,0,.581.533,3.544,3.544,0,0,0,.6-.068l-.1,1.032a3.366,3.366,0,0,1-.9.123,1.292,1.292,0,0,1-1.107-.543,2.1,2.1,0,0,1-.287-1.425l.752-4.58H41.9l.171-.978h1.306l.314-1.791Z" transform="translate(736.389 5406.763)" fill="#12263f"/>
    <path id="Trazado_823066" data-name="Trazado 823066" d="M8.969-9.953,7.82-3.22A3.822,3.822,0,0,1,6.48-.749,3.934,3.934,0,0,1,3.808.144,3.462,3.462,0,0,1,2.109-.3,2.54,2.54,0,0,1,1.046-1.48,3.229,3.229,0,0,1,.82-3.213l1.148-6.74H3.233L2.092-3.2a2.183,2.183,0,0,0,.355,1.645A1.777,1.777,0,0,0,3.876-.93a2.461,2.461,0,0,0,1.753-.564,2.734,2.734,0,0,0,.9-1.7L7.677-9.953Zm4.717,3.685L13.1-6.33a2.117,2.117,0,0,0-1.873,1.073L10.322,0H9.085L10.37-7.4l1.2-.007-.185.861a2.211,2.211,0,0,1,1.853-1,2.27,2.27,0,0,1,.588.1Zm6.774,2.6a5.763,5.763,0,0,1-.622,2.044A3.484,3.484,0,0,1,18.662-.273a2.676,2.676,0,0,1-1.531.417,2.284,2.284,0,0,1-1.989-1L14.889,0H13.747l1.825-10.5H16.81l-.745,3.924a2.719,2.719,0,0,1,2.16-.957,2.063,2.063,0,0,1,1.661.786,3.46,3.46,0,0,1,.629,2.092,6.443,6.443,0,0,1-.041.848Zm-1.176-.714A2.633,2.633,0,0,0,18.949-5.9a1.282,1.282,0,0,0-1.087-.556A2.252,2.252,0,0,0,15.907-5.3l-.554,3.216A1.574,1.574,0,0,0,16.892-.93a1.8,1.8,0,0,0,1.268-.43,2.81,2.81,0,0,0,.824-1.28A5.756,5.756,0,0,0,19.284-4.378ZM25.963,0a1.657,1.657,0,0,1-.048-.39l.021-.39a3.032,3.032,0,0,1-2.16.916,2.21,2.21,0,0,1-1.589-.619A1.872,1.872,0,0,1,21.629-2a2.277,2.277,0,0,1,1.029-1.835,4.38,4.38,0,0,1,2.526-.66l1.292.007.082-.588A1.352,1.352,0,0,0,26.3-6.122a1.237,1.237,0,0,0-.974-.4A1.908,1.908,0,0,0,24.2-6.21a1.324,1.324,0,0,0-.6.858l-1.244.007A1.983,1.983,0,0,1,22.866-6.5a2.943,2.943,0,0,1,1.142-.779A3.688,3.688,0,0,1,25.45-7.54a2.452,2.452,0,0,1,1.8.7,2.173,2.173,0,0,1,.54,1.788l-.6,3.664-.034.526a2.58,2.58,0,0,0,.082.745L27.221,0ZM24.021-.957a2.158,2.158,0,0,0,1.125-.284,2.847,2.847,0,0,0,.913-.824l.267-1.524L25.389-3.6a3.547,3.547,0,0,0-1.791.369,1.36,1.36,0,0,0-.7,1.046,1.059,1.059,0,0,0,.243.865A1.156,1.156,0,0,0,24.021-.957ZM31.35-7.4l-.178.937a2.916,2.916,0,0,1,2.27-1.066,1.835,1.835,0,0,1,1.545.725,2.815,2.815,0,0,1,.369,1.962L34.549,0H33.312l.813-4.862a2.592,2.592,0,0,0,.007-.621A1.022,1.022,0,0,0,33-6.46a2.329,2.329,0,0,0-1.955,1.188L30.133,0H28.9l1.285-7.4ZM38.609-3.9,37.933,0H36.647l1.729-9.953,3.322.007a3.249,3.249,0,0,1,2.372.817,2.57,2.57,0,0,1,.718,2.17A3.1,3.1,0,0,1,43.651-4.71a4.128,4.128,0,0,1-2.676.82Zm.185-1.073,2.215.007a2.694,2.694,0,0,0,1.716-.526,2.106,2.106,0,0,0,.786-1.463,1.65,1.65,0,0,0-.349-1.364,1.755,1.755,0,0,0-1.333-.55l-2.358-.007ZM49.109-7.533a2.666,2.666,0,0,1,1.593.506,2.874,2.874,0,0,1,.981,1.357A4.2,4.2,0,0,1,51.9-3.78l-.014.15a4.975,4.975,0,0,1-.643,1.952A3.77,3.77,0,0,1,49.916-.321a3.234,3.234,0,0,1-1.784.458,2.671,2.671,0,0,1-1.589-.506,2.809,2.809,0,0,1-.974-1.34,4.314,4.314,0,0,1-.219-1.866,5.04,5.04,0,0,1,.622-2.064,3.858,3.858,0,0,1,1.336-1.418A3.2,3.2,0,0,1,49.109-7.533ZM46.594-3.568a4.2,4.2,0,0,0,0,.9,2.194,2.194,0,0,0,.482,1.285,1.447,1.447,0,0,0,1.1.5,1.971,1.971,0,0,0,1.135-.3,2.554,2.554,0,0,0,.875-.981,4.131,4.131,0,0,0,.458-1.456,6.558,6.558,0,0,0,.021-1.06A2.277,2.277,0,0,0,50.169-6,1.479,1.479,0,0,0,49.062-6.5a2.016,2.016,0,0,0-1.627.752,3.715,3.715,0,0,0-.827,2.023Zm12.92-.1a5.868,5.868,0,0,1-.608,2.03,3.455,3.455,0,0,1-1.169,1.35,2.676,2.676,0,0,1-1.545.427,2.463,2.463,0,0,1-1.969-.868L53.56,2.844H52.322L54.1-7.4,55.221-7.4l-.137.827a2.806,2.806,0,0,1,2.194-.957,2.063,2.063,0,0,1,1.661.786,3.46,3.46,0,0,1,.629,2.092,7.361,7.361,0,0,1-.034.848ZM58.3-3.8l.034-.573A2.6,2.6,0,0,0,57.952-5.9a1.334,1.334,0,0,0-1.1-.556A2.194,2.194,0,0,0,55-5.443L54.38-1.9a1.548,1.548,0,0,0,1.5,1.01,1.946,1.946,0,0,0,1.569-.72A4.18,4.18,0,0,0,58.3-3.8Z" transform="translate(810.389 5406.763)" fill="#12263f"/>
    <path id="Trazado_823067" data-name="Trazado 823067" d="M4.683-4.02h-2.3L1.688,0H.4L2.126-9.953l2.994.007a3.337,3.337,0,0,1,2.386.794A2.477,2.477,0,0,1,8.2-7.01a2.836,2.836,0,0,1-.68,1.649,3.716,3.716,0,0,1-1.61,1.074l1.545,4.2L7.444,0H6.077ZM2.57-5.1l1.887.007a2.635,2.635,0,0,0,1.661-.523,2.036,2.036,0,0,0,.793-1.4,1.608,1.608,0,0,0-.342-1.34,1.826,1.826,0,0,0-1.354-.513L3.227-8.873ZM13.166,0a1.657,1.657,0,0,1-.048-.39l.021-.39a3.032,3.032,0,0,1-2.16.916A2.21,2.21,0,0,1,9.389-.482,1.872,1.872,0,0,1,8.832-2,2.277,2.277,0,0,1,9.861-3.832a4.38,4.38,0,0,1,2.526-.66l1.292.007.082-.588A1.352,1.352,0,0,0,13.5-6.122a1.237,1.237,0,0,0-.974-.4,1.908,1.908,0,0,0-1.125.311,1.324,1.324,0,0,0-.6.858l-1.244.007A1.983,1.983,0,0,1,10.069-6.5a2.943,2.943,0,0,1,1.142-.779,3.688,3.688,0,0,1,1.442-.263,2.452,2.452,0,0,1,1.8.7,2.173,2.173,0,0,1,.54,1.788l-.6,3.664-.034.526a2.58,2.58,0,0,0,.082.745L14.424,0ZM11.225-.957a2.158,2.158,0,0,0,1.125-.284,2.847,2.847,0,0,0,.913-.824l.267-1.524L12.592-3.6a3.547,3.547,0,0,0-1.791.369,1.36,1.36,0,0,0-.7,1.046,1.059,1.059,0,0,0,.243.865A1.156,1.156,0,0,0,11.225-.957ZM22.8-3.664a5.868,5.868,0,0,1-.608,2.03,3.455,3.455,0,0,1-1.169,1.35,2.676,2.676,0,0,1-1.545.427,2.463,2.463,0,0,1-1.969-.868l-.663,3.568H15.606L17.384-7.4,18.5-7.4l-.137.827a2.806,2.806,0,0,1,2.194-.957,2.063,2.063,0,0,1,1.661.786,3.46,3.46,0,0,1,.629,2.092,7.361,7.361,0,0,1-.034.848ZM21.581-3.8l.034-.573A2.6,2.6,0,0,0,21.236-5.9a1.334,1.334,0,0,0-1.1-.556,2.194,2.194,0,0,0-1.853,1.017L17.664-1.9a1.548,1.548,0,0,0,1.5,1.01,1.946,1.946,0,0,0,1.569-.72A4.18,4.18,0,0,0,21.581-3.8ZM26.988.137a2.667,2.667,0,0,1-2.16-1.019,3.505,3.505,0,0,1-.656-2.536l.034-.294a4.921,4.921,0,0,1,.653-2.01,3.8,3.8,0,0,1,1.309-1.371,3.054,3.054,0,0,1,1.668-.441,2.352,2.352,0,0,1,1.791.759,3.121,3.121,0,0,1,.711,1.982,5.793,5.793,0,0,1-.027.889l-.075.567H25.4a2.5,2.5,0,0,0,.332,1.709A1.57,1.57,0,0,0,27.091-.9a2.631,2.631,0,0,0,2.023-.984l.711.6a3.253,3.253,0,0,1-1.2,1.049A3.4,3.4,0,0,1,26.988.137ZM27.774-6.5a1.807,1.807,0,0,0-1.336.52,3.693,3.693,0,0,0-.906,1.606l3.6.007.027-.109a2.024,2.024,0,0,0-.277-1.432A1.3,1.3,0,0,0,27.774-6.5Z" transform="translate(916.51 5406.763)" fill="#12263f"/>
    <path id="Trazado_821466" data-name="Trazado 821466" d="M-4813.6-6473.618h287.944" transform="translate(5486.097 11683.763)" fill="#fff" stroke="#fff" stroke-width="1"/>
    <path id="Trazado_821467" data-name="Trazado 821467" d="M-4813.6-6473.618h287.944" transform="translate(5486.097 11717.881)" fill="#fff" stroke="#fff" stroke-width="1"/>
    <path id="Trazado_821468" data-name="Trazado 821468" d="M-4813.6-6473.618h287.944" transform="translate(5486.097 11751.999)" fill="#fff" stroke="#fff" stroke-width="1"/>
    <path id="Trazado_821469" data-name="Trazado 821469" d="M-4813.6-6473.618h287.944" transform="translate(5486.097 11785.117)" fill="#fff" stroke="#fff" stroke-width="1"/>
    <path id="Trazado_821470" data-name="Trazado 821470" d="M-4813.6-6473.618h287.944" transform="translate(5486.097 11818.235)" fill="#fff" stroke="#fff" stroke-width="1"/>
    <path id="Trazado_821471" data-name="Trazado 821471" d="M-4799.219-6495.349v194.3" transform="translate(5489.097 11682.763)" fill="#fff" stroke="#fff" stroke-width="1"/>
    <path id="Trazado_821586" data-name="Trazado 821586" d="M-4799.219-6495.349v194.3" transform="translate(5555.975 11682.763)" fill="#fff" stroke="#fff" stroke-width="1"/>
    <path id="Trazado_821588" data-name="Trazado 821588" d="M-4799.219-6495.349v194.3" transform="translate(5640.607 11682.763)" fill="#fff" stroke="#fff" stroke-width="1"/>
    <path id="Trazado_821591" data-name="Trazado 821591" d="M-4799.219-6495.349v194.3" transform="translate(5731.872 11682.763)" fill="#fff" stroke="#fff" stroke-width="1"/>
    <path id="Trazado_821587" data-name="Trazado 821587" d="M-4799.219-6495.349v194.3" transform="translate(5520.975 11682.763)" fill="#fff" stroke="#fff" stroke-width="1"/>
    <path id="Trazado_821589" data-name="Trazado 821589" d="M-4799.219-6495.349v194.3" transform="translate(5594.975 11682.763)" fill="#fff" stroke="#fff" stroke-width="1"/>
    <path id="Trazado_821590" data-name="Trazado 821590" d="M-4799.219-6495.349v194.3" transform="translate(5686.24 11682.763)" fill="#fff" stroke="#fff" stroke-width="1"/>
    <path id="Trazado_821189" data-name="Trazado 821189" d="M-4693.665-8143.058v6.364" transform="translate(5383.542 13526.834)" fill="none" stroke="#12263f" stroke-width="1"/>
    <path id="Trazado_821592" data-name="Trazado 821592" d="M-4693.665-8143.058v6.364" transform="translate(5450.421 13526.834)" fill="none" stroke="#12263f" stroke-width="1"/>
    <path id="Trazado_821593" data-name="Trazado 821593" d="M-4693.665-8143.058v6.364" transform="translate(5535.053 13526.834)" fill="none" stroke="#12263f" stroke-width="1"/>
    <path id="Trazado_821594" data-name="Trazado 821594" d="M-4693.665-8143.058v6.364" transform="translate(5626.318 13526.834)" fill="none" stroke="#12263f" stroke-width="1"/>
    <path id="Trazado_821595" data-name="Trazado 821595" d="M-4796.219-6449.866l66.065-10.884,84.043,32.65,91.3-15.116" transform="translate(5486.097 11672.763)" fill="none" stroke="#3682b0" stroke-width="1.5"/>
    <g id="Grupo_1072677" data-name="Grupo 1072677" transform="translate(-145 -28.327)">
      <g id="Rectángulo_376278" data-name="Rectángulo 376278" transform="translate(1008.097 5223.089)" fill="#ddd" stroke="#aaa" stroke-width="1">
        <rect width="78" height="30" stroke="none"/>
        <rect x="0.5" y="0.5" width="77" height="29" fill="none"/>
      </g>
      <text id="Vermont" transform="translate(1045.371 5233.313)" fill="#12263f" font-size="9" font-family="Roboto-Regular, Roboto"><tspan x="0" y="0">Vermont</tspan></text>
      <text id="Florida" transform="translate(1045.371 5247.166)" fill="#12263f" font-size="9" font-family="Roboto-Regular, Roboto"><tspan x="0" y="0">Florida</tspan></text>
      <path id="Trazado_821596" data-name="Trazado 821596" d="M-4443.964-6465.75h28.8" transform="translate(5456.388 11696.798)" fill="none" stroke="#eb3b20" stroke-width="1.5"/>
      <path id="Trazado_821597" data-name="Trazado 821597" d="M-4443.964-6465.75h28.8" transform="translate(5456.388 11710.65)" fill="none" stroke="#3682b0" stroke-width="1.5"/>
    </g>
    <path id="Trazado_822976" data-name="Trazado 822976" d="M-4693.665-8143.058v6.364" transform="translate(-7471.487 9903.81) rotate(90)" fill="none" stroke="#12263f" stroke-width="1"/>
    <path id="Trazado_822977" data-name="Trazado 822977" d="M-4693.665-8143.058v6.364" transform="translate(-7471.487 9937.927) rotate(90)" fill="none" stroke="#12263f" stroke-width="1"/>
    <path id="Trazado_822978" data-name="Trazado 822978" d="M-4693.665-8143.058v6.364" transform="translate(-7471.487 9972.046) rotate(90)" fill="none" stroke="#12263f" stroke-width="1"/>
    <path id="Trazado_822979" data-name="Trazado 822979" d="M-4693.665-8143.058v6.364" transform="translate(-7471.487 10005.163) rotate(90)" fill="none" stroke="#12263f" stroke-width="1"/>
    <path id="Trazado_822980" data-name="Trazado 822980" d="M-4693.665-8143.058v6.364" transform="translate(-7471.487 10038.282) rotate(90)" fill="none" stroke="#12263f" stroke-width="1"/>
    <path id="Captura_de_pantalla_2023-07-14_133325-3" data-name="Captura de pantalla 2023-07-14 133325" d="M0,0H291.021V195.176H0Z" transform="translate(1080.5 5187.414)" fill="#e5e5e5"/>
    <path id="Trazado_823068" data-name="Trazado 823068" d="M7.266-4.929H2.644V-1.15H8.013V0H1.238V-10.664h6.7v1.15h-5.3v3.435H7.266Zm6.9,2.827a1,1,0,0,0-.414-.853,3.983,3.983,0,0,0-1.443-.524,6.822,6.822,0,0,1-1.633-.527,2.324,2.324,0,0,1-.894-.732A1.752,1.752,0,0,1,9.492-5.75,2.056,2.056,0,0,1,10.316-7.4a3.218,3.218,0,0,1,2.106-.674,3.311,3.311,0,0,1,2.186.7,2.21,2.21,0,0,1,.839,1.78H14.084a1.223,1.223,0,0,0-.472-.959,1.77,1.77,0,0,0-1.19-.4,1.852,1.852,0,0,0-1.157.322,1.014,1.014,0,0,0-.417.842.822.822,0,0,0,.388.74,4.776,4.776,0,0,0,1.4.476,7.308,7.308,0,0,1,1.644.542,2.4,2.4,0,0,1,.934.758,1.864,1.864,0,0,1,.3,1.08,2.028,2.028,0,0,1-.85,1.7,3.564,3.564,0,0,1-2.2.641A3.991,3.991,0,0,1,10.781-.19a2.74,2.74,0,0,1-1.146-.941,2.268,2.268,0,0,1-.414-1.307h1.355a1.4,1.4,0,0,0,.546,1.08,2.117,2.117,0,0,0,1.344.4A2.185,2.185,0,0,0,13.7-1.271.956.956,0,0,0,14.165-2.1Zm4.958-7.742v1.919H20.6v1.047H19.124v4.921a1.1,1.1,0,0,0,.2.715A.832.832,0,0,0,20-1a3.281,3.281,0,0,0,.645-.088V0A3.951,3.951,0,0,1,19.6.146,1.687,1.687,0,0,1,18.23-.4a2.36,2.36,0,0,1-.461-1.56V-6.877H16.326V-7.925h1.443V-9.844ZM27.078,0a2.846,2.846,0,0,1-.19-.835,3.023,3.023,0,0,1-2.256.981,2.8,2.8,0,0,1-1.923-.663A2.145,2.145,0,0,1,21.958-2.2,2.24,2.24,0,0,1,22.9-4.12,4.437,4.437,0,0,1,25.547-4.8h1.318v-.623a1.522,1.522,0,0,0-.425-1.132,1.707,1.707,0,0,0-1.252-.421,1.976,1.976,0,0,0-1.216.366,1.079,1.079,0,0,0-.491.886H22.119a1.87,1.87,0,0,1,.421-1.146,2.874,2.874,0,0,1,1.143-.875,3.844,3.844,0,0,1,1.586-.322,3.133,3.133,0,0,1,2.146.685A2.47,2.47,0,0,1,28.22-5.5v3.647A4.459,4.459,0,0,0,28.5-.117V0ZM24.829-1.033a2.381,2.381,0,0,0,1.208-.33,1.994,1.994,0,0,0,.828-.857V-3.845H25.8q-2.49,0-2.49,1.458a1.234,1.234,0,0,0,.425,1A1.633,1.633,0,0,0,24.829-1.033Zm5.186-3a4.642,4.642,0,0,1,.864-2.933,2.733,2.733,0,0,1,2.263-1.11,2.748,2.748,0,0,1,2.2.952V-11.25H36.7V0H35.457l-.066-.85a2.759,2.759,0,0,1-2.263,1A2.707,2.707,0,0,1,30.883-.981a4.7,4.7,0,0,1-.868-2.944Zm1.355.154a3.515,3.515,0,0,0,.557,2.109A1.8,1.8,0,0,0,33.464-1a1.977,1.977,0,0,0,1.882-1.157V-5.8a1.992,1.992,0,0,0-1.868-1.121,1.808,1.808,0,0,0-1.553.769A3.87,3.87,0,0,0,31.37-3.875Zm7.075-.161A4.681,4.681,0,0,1,38.9-6.13a3.415,3.415,0,0,1,1.274-1.436,3.469,3.469,0,0,1,1.864-.505,3.342,3.342,0,0,1,2.618,1.121,4.311,4.311,0,0,1,1,2.981v.1A4.722,4.722,0,0,1,45.216-1.8,3.365,3.365,0,0,1,43.949-.366a3.509,3.509,0,0,1-1.893.513A3.334,3.334,0,0,1,39.445-.974a4.29,4.29,0,0,1-1-2.966Zm1.362.161a3.39,3.39,0,0,0,.612,2.117,1.957,1.957,0,0,0,1.637.8A1.945,1.945,0,0,0,43.7-1.769,3.707,3.707,0,0,0,44.3-4.036a3.384,3.384,0,0,0-.619-2.113,1.968,1.968,0,0,0-1.644-.809,1.946,1.946,0,0,0-1.619.8A3.68,3.68,0,0,0,39.807-3.875ZM51.973-2.1a1,1,0,0,0-.414-.853,3.983,3.983,0,0,0-1.443-.524,6.822,6.822,0,0,1-1.633-.527,2.324,2.324,0,0,1-.894-.732A1.752,1.752,0,0,1,47.3-5.75,2.056,2.056,0,0,1,48.124-7.4a3.218,3.218,0,0,1,2.106-.674,3.311,3.311,0,0,1,2.186.7,2.21,2.21,0,0,1,.839,1.78H51.892a1.223,1.223,0,0,0-.472-.959,1.77,1.77,0,0,0-1.19-.4,1.852,1.852,0,0,0-1.157.322,1.014,1.014,0,0,0-.417.842.822.822,0,0,0,.388.74,4.776,4.776,0,0,0,1.4.476,7.308,7.308,0,0,1,1.644.542,2.4,2.4,0,0,1,.934.758,1.864,1.864,0,0,1,.3,1.08,2.028,2.028,0,0,1-.85,1.7,3.564,3.564,0,0,1-2.2.641A3.991,3.991,0,0,1,48.589-.19a2.74,2.74,0,0,1-1.146-.941,2.268,2.268,0,0,1-.414-1.307h1.355a1.4,1.4,0,0,0,.546,1.08,2.117,2.117,0,0,0,1.344.4,2.185,2.185,0,0,0,1.234-.311A.956.956,0,0,0,51.973-2.1ZM61.985-.959A1.952,1.952,0,0,0,63.252-1.4a1.546,1.546,0,0,0,.6-1.1h1.282a2.457,2.457,0,0,1-.469,1.3,3.087,3.087,0,0,1-1.154.981,3.329,3.329,0,0,1-1.527.366A3.265,3.265,0,0,1,59.41-.934a4.3,4.3,0,0,1-.956-2.955v-.227a4.771,4.771,0,0,1,.425-2.058,3.236,3.236,0,0,1,1.219-1.4,3.464,3.464,0,0,1,1.879-.5,3.178,3.178,0,0,1,2.216.8A2.853,2.853,0,0,1,65.134-5.2H63.853a1.867,1.867,0,0,0-.582-1.263,1.811,1.811,0,0,0-1.293-.494,1.9,1.9,0,0,0-1.6.743,3.491,3.491,0,0,0-.568,2.15v.256A3.422,3.422,0,0,0,60.374-1.7,1.906,1.906,0,0,0,61.985-.959ZM66.3-4.036a4.681,4.681,0,0,1,.458-2.095,3.415,3.415,0,0,1,1.274-1.436A3.469,3.469,0,0,1,69.9-8.071a3.342,3.342,0,0,1,2.618,1.121,4.311,4.311,0,0,1,1,2.981v.1A4.722,4.722,0,0,1,73.07-1.8,3.365,3.365,0,0,1,71.8-.366,3.509,3.509,0,0,1,69.91.146,3.334,3.334,0,0,1,67.3-.974a4.29,4.29,0,0,1-1-2.966Zm1.362.161a3.39,3.39,0,0,0,.612,2.117,1.957,1.957,0,0,0,1.637.8,1.945,1.945,0,0,0,1.641-.809,3.707,3.707,0,0,0,.608-2.267,3.384,3.384,0,0,0-.619-2.113A1.968,1.968,0,0,0,69.9-6.958a1.946,1.946,0,0,0-1.619.8A3.68,3.68,0,0,0,67.661-3.875Zm8.833-4.05.044,1a2.888,2.888,0,0,1,2.373-1.143q2.512,0,2.534,2.834V0H80.09V-5.244A1.824,1.824,0,0,0,79.7-6.511a1.57,1.57,0,0,0-1.2-.41,1.956,1.956,0,0,0-1.157.352,2.387,2.387,0,0,0-.776.923V0H75.212V-7.925Zm11.982,0,.037.879a2.927,2.927,0,0,1,2.351-1.025A2.266,2.266,0,0,1,93.127-6.8a3,3,0,0,1,1.029-.923,3.039,3.039,0,0,1,1.5-.352q2.607,0,2.651,2.761V0H96.951V-5.229A1.82,1.82,0,0,0,96.563-6.5a1.71,1.71,0,0,0-1.3-.421,1.8,1.8,0,0,0-1.252.45,1.827,1.827,0,0,0-.579,1.212V0H92.065V-5.193a1.512,1.512,0,0,0-1.692-1.729A1.813,1.813,0,0,0,88.55-5.786V0H87.195V-7.925ZM103.638.146a3.463,3.463,0,0,1-2.622-1.058A3.928,3.928,0,0,1,100-3.743v-.249a4.756,4.756,0,0,1,.45-2.106,3.514,3.514,0,0,1,1.26-1.45,3.167,3.167,0,0,1,1.754-.524,2.968,2.968,0,0,1,2.4,1.018,4.408,4.408,0,0,1,.857,2.915v.564H101.36a2.817,2.817,0,0,0,.685,1.893,2.153,2.153,0,0,0,1.666.721,2.36,2.36,0,0,0,1.216-.293,3.055,3.055,0,0,0,.872-.776l.828.645A3.328,3.328,0,0,1,103.638.146Zm-.168-7.1a1.807,1.807,0,0,0-1.377.6,2.9,2.9,0,0,0-.688,1.674h3.97v-.1a2.581,2.581,0,0,0-.557-1.6A1.7,1.7,0,0,0,103.469-6.958Zm6.108-.967.044,1a2.888,2.888,0,0,1,2.373-1.143q2.512,0,2.534,2.834V0h-1.355V-5.244a1.824,1.824,0,0,0-.392-1.267,1.57,1.57,0,0,0-1.2-.41,1.956,1.956,0,0,0-1.157.352,2.387,2.387,0,0,0-.776.923V0H108.3V-7.925Zm6.636,3.889a4.681,4.681,0,0,1,.458-2.095,3.415,3.415,0,0,1,1.274-1.436,3.469,3.469,0,0,1,1.864-.505,3.342,3.342,0,0,1,2.618,1.121,4.311,4.311,0,0,1,1,2.981v.1a4.722,4.722,0,0,1-.443,2.076,3.365,3.365,0,0,1-1.267,1.432,3.509,3.509,0,0,1-1.893.513,3.334,3.334,0,0,1-2.611-1.121,4.29,4.29,0,0,1-1-2.966Zm1.362.161a3.39,3.39,0,0,0,.612,2.117,1.957,1.957,0,0,0,1.637.8,1.945,1.945,0,0,0,1.641-.809,3.707,3.707,0,0,0,.608-2.267,3.384,3.384,0,0,0-.619-2.113,1.968,1.968,0,0,0-1.644-.809,1.946,1.946,0,0,0-1.619.8A3.68,3.68,0,0,0,117.576-3.875Zm11.382-2.834a4.061,4.061,0,0,0-.667-.051,1.786,1.786,0,0,0-1.809,1.135V0h-1.355V-7.925h1.318l.022.916a2.11,2.11,0,0,1,1.89-1.062,1.384,1.384,0,0,1,.6.1Zm4.629,2.681a4.642,4.642,0,0,1,.864-2.933,2.733,2.733,0,0,1,2.263-1.11,2.748,2.748,0,0,1,2.2.952V-11.25h1.355V0h-1.245l-.066-.85a2.759,2.759,0,0,1-2.263,1,2.707,2.707,0,0,1-2.245-1.128,4.7,4.7,0,0,1-.868-2.944Zm1.355.154a3.515,3.515,0,0,0,.557,2.109A1.8,1.8,0,0,0,137.036-1a1.977,1.977,0,0,0,1.882-1.157V-5.8a1.992,1.992,0,0,0-1.868-1.121,1.808,1.808,0,0,0-1.553.769A3.87,3.87,0,0,0,134.941-3.875ZM143.848,0h-1.355V-7.925h1.355Zm-1.465-10.027a.809.809,0,0,1,.2-.557.756.756,0,0,1,.6-.227.768.768,0,0,1,.6.227.8.8,0,0,1,.205.557.774.774,0,0,1-.205.549.782.782,0,0,1-.6.22.77.77,0,0,1-.6-.22A.782.782,0,0,1,142.383-10.027ZM150.63-2.1a1,1,0,0,0-.414-.853,3.983,3.983,0,0,0-1.443-.524,6.822,6.822,0,0,1-1.633-.527,2.324,2.324,0,0,1-.894-.732,1.752,1.752,0,0,1-.289-1.011,2.056,2.056,0,0,1,.824-1.648,3.218,3.218,0,0,1,2.106-.674,3.311,3.311,0,0,1,2.186.7,2.21,2.21,0,0,1,.839,1.78h-1.362a1.223,1.223,0,0,0-.472-.959,1.77,1.77,0,0,0-1.19-.4,1.852,1.852,0,0,0-1.157.322,1.014,1.014,0,0,0-.417.842.822.822,0,0,0,.388.74,4.776,4.776,0,0,0,1.4.476,7.308,7.308,0,0,1,1.644.542,2.4,2.4,0,0,1,.934.758,1.864,1.864,0,0,1,.3,1.08,2.028,2.028,0,0,1-.85,1.7,3.564,3.564,0,0,1-2.2.641,3.991,3.991,0,0,1-1.685-.337,2.74,2.74,0,0,1-1.146-.941,2.268,2.268,0,0,1-.414-1.307h1.355a1.4,1.4,0,0,0,.546,1.08,2.117,2.117,0,0,0,1.344.4,2.185,2.185,0,0,0,1.234-.311A.956.956,0,0,0,150.63-2.1Zm4.958-7.742v1.919h1.479v1.047h-1.479v4.921a1.1,1.1,0,0,0,.2.715A.832.832,0,0,0,156.46-1a3.281,3.281,0,0,0,.645-.088V0a3.951,3.951,0,0,1-1.04.146,1.687,1.687,0,0,1-1.37-.549,2.36,2.36,0,0,1-.461-1.56V-6.877h-1.443V-7.925h1.443V-9.844ZM163.542,0a2.846,2.846,0,0,1-.19-.835A3.023,3.023,0,0,1,161.1.146a2.8,2.8,0,0,1-1.923-.663,2.145,2.145,0,0,1-.751-1.681,2.24,2.24,0,0,1,.941-1.923,4.437,4.437,0,0,1,2.648-.685h1.318v-.623a1.522,1.522,0,0,0-.425-1.132,1.707,1.707,0,0,0-1.252-.421,1.976,1.976,0,0,0-1.216.366,1.079,1.079,0,0,0-.491.886h-1.362a1.87,1.87,0,0,1,.421-1.146,2.874,2.874,0,0,1,1.143-.875,3.844,3.844,0,0,1,1.586-.322,3.133,3.133,0,0,1,2.146.685,2.47,2.47,0,0,1,.806,1.886v3.647a4.459,4.459,0,0,0,.278,1.736V0Zm-2.249-1.033a2.381,2.381,0,0,0,1.208-.33,1.994,1.994,0,0,0,.828-.857V-3.845h-1.062q-2.49,0-2.49,1.458a1.234,1.234,0,0,0,.425,1A1.633,1.633,0,0,0,161.294-1.033Zm6.8-6.892.044,1a2.888,2.888,0,0,1,2.373-1.143q2.512,0,2.534,2.834V0h-1.355V-5.244a1.824,1.824,0,0,0-.392-1.267,1.57,1.57,0,0,0-1.2-.41,1.956,1.956,0,0,0-1.157.352,2.387,2.387,0,0,0-.776.923V0h-1.355V-7.925ZM178.264-.959a1.952,1.952,0,0,0,1.267-.439,1.546,1.546,0,0,0,.6-1.1h1.282a2.457,2.457,0,0,1-.469,1.3,3.087,3.087,0,0,1-1.154.981,3.329,3.329,0,0,1-1.527.366,3.265,3.265,0,0,1-2.574-1.08,4.3,4.3,0,0,1-.956-2.955v-.227a4.771,4.771,0,0,1,.425-2.058,3.236,3.236,0,0,1,1.219-1.4,3.464,3.464,0,0,1,1.879-.5,3.178,3.178,0,0,1,2.216.8,2.853,2.853,0,0,1,.941,2.073h-1.282a1.867,1.867,0,0,0-.582-1.263,1.811,1.811,0,0,0-1.293-.494,1.9,1.9,0,0,0-1.6.743,3.491,3.491,0,0,0-.568,2.15v.256a3.422,3.422,0,0,0,.564,2.109A1.906,1.906,0,0,0,178.264-.959ZM184.409,0h-1.355V-7.925h1.355Zm-1.465-10.027a.809.809,0,0,1,.2-.557.756.756,0,0,1,.6-.227.768.768,0,0,1,.6.227.8.8,0,0,1,.205.557.774.774,0,0,1-.205.549.782.782,0,0,1-.6.22.77.77,0,0,1-.6-.22A.782.782,0,0,1,182.944-10.027ZM191.47,0a2.846,2.846,0,0,1-.19-.835,3.023,3.023,0,0,1-2.256.981A2.8,2.8,0,0,1,187.1-.516,2.145,2.145,0,0,1,186.35-2.2a2.24,2.24,0,0,1,.941-1.923,4.437,4.437,0,0,1,2.648-.685h1.318v-.623a1.522,1.522,0,0,0-.425-1.132,1.707,1.707,0,0,0-1.252-.421,1.976,1.976,0,0,0-1.216.366,1.079,1.079,0,0,0-.491.886h-1.362a1.87,1.87,0,0,1,.421-1.146,2.874,2.874,0,0,1,1.143-.875,3.844,3.844,0,0,1,1.586-.322,3.133,3.133,0,0,1,2.146.685,2.47,2.47,0,0,1,.806,1.886v3.647a4.459,4.459,0,0,0,.278,1.736V0Zm-2.249-1.033a2.381,2.381,0,0,0,1.208-.33,1.994,1.994,0,0,0,.828-.857V-3.845H190.2q-2.49,0-2.49,1.458a1.234,1.234,0,0,0,.425,1A1.633,1.633,0,0,0,189.221-1.033Z" transform="translate(1124.472 5174.209)" fill="#12263f"/>
    <path id="Trazado_823069" data-name="Trazado 823069" d="M3.333-3.447H.235v-.958h3.1Zm10.036-.5a5.371,5.371,0,0,1-.7,3.066,2.506,2.506,0,0,1-2.2,1,2.524,2.524,0,0,1-2.19-.981,5.1,5.1,0,0,1-.736-2.929V-5.351a5.251,5.251,0,0,1,.7-3.028,2.525,2.525,0,0,1,2.209-.99,2.548,2.548,0,0,1,2.2.955,5.068,5.068,0,0,1,.724,2.948ZM12.194-5.548a4.3,4.3,0,0,0-.419-2.174A1.442,1.442,0,0,0,10.448-8.4a1.423,1.423,0,0,0-1.314.679,4.2,4.2,0,0,0-.425,2.088v1.879a4.372,4.372,0,0,0,.435,2.212,1.439,1.439,0,0,0,1.317.714A1.42,1.42,0,0,0,11.753-1.5a4.214,4.214,0,0,0,.441-2.12ZM15.019-.616a.735.735,0,0,1,.181-.508.689.689,0,0,1,.543-.2.71.71,0,0,1,.549.2.721.721,0,0,1,.187.508.681.681,0,0,1-.187.489.723.723,0,0,1-.549.2.7.7,0,0,1-.543-.2A.7.7,0,0,1,15.019-.616ZM22.9-9.249v1h-.216a3.092,3.092,0,0,0-2.184.813,3.381,3.381,0,0,0-.939,2.215,2.507,2.507,0,0,1,1.993-.838,2.4,2.4,0,0,1,1.927.851,3.281,3.281,0,0,1,.72,2.2A3.27,3.27,0,0,1,23.426-.73a2.678,2.678,0,0,1-2.085.857A2.638,2.638,0,0,1,19.189-.892a4.038,4.038,0,0,1-.825-2.625v-.451a6.084,6.084,0,0,1,1.089-3.9,4,4,0,0,1,3.24-1.381ZM21.36-5.084a1.874,1.874,0,0,0-1.111.362,1.885,1.885,0,0,0-.7.908v.432a3.032,3.032,0,0,0,.514,1.841,1.541,1.541,0,0,0,1.282.7,1.493,1.493,0,0,0,1.247-.584,2.423,2.423,0,0,0,.454-1.53,2.424,2.424,0,0,0-.46-1.539A1.475,1.475,0,0,0,21.36-5.084Z" transform="translate(1032.01 5207)" fill="#12263f"/>
    <path id="Trazado_823070" data-name="Trazado 823070" d="M3.333-3.447H.235v-.958h3.1ZM11.432,0H10.251V-7.827l-2.368.87V-8.023l3.364-1.263h.184Zm3.586-.616a.735.735,0,0,1,.181-.508.689.689,0,0,1,.543-.2.71.71,0,0,1,.549.2.721.721,0,0,1,.187.508.681.681,0,0,1-.187.489.723.723,0,0,1-.549.2.7.7,0,0,1-.543-.2A.7.7,0,0,1,15.019-.616ZM22.153,0H20.973V-7.827l-2.368.87V-8.023l3.364-1.263h.184Z" transform="translate(1032.01 5310.002)" fill="#12263f"/>
    <path id="Trazado_823071" data-name="Trazado 823071" d="M3.753-9.953,5.5-1.846l4.566-8.107h1.688L10.021,0H8.743l.684-3.937.813-4.006L5.729,0H4.744L2.967-8.1,2.352-3.808,1.688,0H.4L2.133-9.953ZM16.83-.731a2.856,2.856,0,0,1-2.208.868,1.843,1.843,0,0,1-1.569-.759,2.9,2.9,0,0,1-.379-2L13.467-7.4H14.7l-.8,4.8a3.187,3.187,0,0,0-.014.588,1.223,1.223,0,0,0,.294.772,1,1,0,0,0,.725.3A2.219,2.219,0,0,0,16.96-2.01L17.89-7.4h1.237L17.842,0H16.673Zm7.458-5.537-.581-.062a2.117,2.117,0,0,0-1.873,1.073L20.925,0H19.688l1.285-7.4,1.2-.007-.185.861a2.211,2.211,0,0,1,1.853-1,2.27,2.27,0,0,1,.588.1Zm.417,2.557a5.755,5.755,0,0,1,.622-2.037,3.527,3.527,0,0,1,1.2-1.36,2.736,2.736,0,0,1,1.565-.431,2.31,2.31,0,0,1,1.9.9L30.7-10.5h1.237L30.119,0H28.991l.13-.793a2.727,2.727,0,0,1-2.16.93,2.043,2.043,0,0,1-1.634-.8,3.5,3.5,0,0,1-.656-2.082A6.648,6.648,0,0,1,24.705-3.712Zm1.189.707a2.563,2.563,0,0,0,.349,1.516,1.258,1.258,0,0,0,1.08.553A2.235,2.235,0,0,0,29.23-2.015l.588-3.414a1.535,1.535,0,0,0-1.49-1.038,1.875,1.875,0,0,0-1.289.44,2.849,2.849,0,0,0-.848,1.29A5.322,5.322,0,0,0,25.895-3.005ZM35.273.137a2.667,2.667,0,0,1-2.16-1.019,3.505,3.505,0,0,1-.656-2.536l.034-.294a4.921,4.921,0,0,1,.653-2.01,3.8,3.8,0,0,1,1.309-1.371,3.054,3.054,0,0,1,1.668-.441,2.352,2.352,0,0,1,1.791.759,3.121,3.121,0,0,1,.711,1.982A5.793,5.793,0,0,1,38.6-3.9l-.075.567H33.688a2.5,2.5,0,0,0,.332,1.709A1.57,1.57,0,0,0,35.376-.9,2.631,2.631,0,0,0,37.4-1.88l.711.6a3.253,3.253,0,0,1-1.2,1.049A3.4,3.4,0,0,1,35.273.137ZM36.06-6.5a1.807,1.807,0,0,0-1.336.52,3.693,3.693,0,0,0-.906,1.606l3.6.007.027-.109a2.024,2.024,0,0,0-.277-1.432A1.3,1.3,0,0,0,36.06-6.5Zm7.875.232-.581-.062A2.117,2.117,0,0,0,41.48-5.257L40.571,0H39.334l1.285-7.4,1.2-.007-.185.861a2.211,2.211,0,0,1,1.853-1,2.27,2.27,0,0,1,.588.1Z" transform="translate(1075.378 5406.763)" fill="#12263f"/>
    <path id="Trazado_823072" data-name="Trazado 823072" d="M6.214-2.6H2.181L.82,0H-.554L4.854-9.953H5.981L7.95,0H6.686ZM2.748-3.678H6.022L5.2-8.319ZM13.72-2q.1-.766-.841-1.08l-1.285-.376Q9.967-4.02,10.021-5.318a2.048,2.048,0,0,1,.892-1.6A3.177,3.177,0,0,1,12.9-7.533a2.649,2.649,0,0,1,1.822.653,2.068,2.068,0,0,1,.673,1.665l-1.23-.007a1.154,1.154,0,0,0-.349-.9,1.379,1.379,0,0,0-.964-.362,1.8,1.8,0,0,0-1.107.314,1.151,1.151,0,0,0-.5.807q-.089.643.786.937l.622.171a4.005,4.005,0,0,1,1.8.854A1.632,1.632,0,0,1,14.95-2.1,2.074,2.074,0,0,1,14.5-.9a2.58,2.58,0,0,1-1.094.783,3.658,3.658,0,0,1-1.456.25A2.885,2.885,0,0,1,10.008-.55,2.124,2.124,0,0,1,9.27-2.283l1.237.007a1.311,1.311,0,0,0,.4,1A1.515,1.515,0,0,0,11.99-.9a2.132,2.132,0,0,0,1.169-.284A1.091,1.091,0,0,0,13.72-2Zm7.068,0q.1-.766-.841-1.08l-1.285-.376Q17.035-4.02,17.09-5.318a2.048,2.048,0,0,1,.892-1.6,3.177,3.177,0,0,1,1.986-.612,2.649,2.649,0,0,1,1.822.653,2.068,2.068,0,0,1,.673,1.665l-1.23-.007a1.154,1.154,0,0,0-.349-.9,1.379,1.379,0,0,0-.964-.362,1.8,1.8,0,0,0-1.107.314,1.151,1.151,0,0,0-.5.807q-.089.643.786.937l.622.171a4.005,4.005,0,0,1,1.8.854A1.632,1.632,0,0,1,22.019-2.1a2.074,2.074,0,0,1-.451,1.2,2.58,2.58,0,0,1-1.094.783,3.658,3.658,0,0,1-1.456.25A2.885,2.885,0,0,1,17.076-.55a2.124,2.124,0,0,1-.738-1.733l1.237.007a1.311,1.311,0,0,0,.4,1A1.515,1.515,0,0,0,19.059-.9a2.132,2.132,0,0,0,1.169-.284A1.091,1.091,0,0,0,20.788-2ZM27.8,0a1.657,1.657,0,0,1-.048-.39l.021-.39a3.032,3.032,0,0,1-2.16.916,2.21,2.21,0,0,1-1.589-.619A1.872,1.872,0,0,1,23.468-2,2.277,2.277,0,0,1,24.5-3.832a4.38,4.38,0,0,1,2.526-.66l1.292.007.082-.588a1.352,1.352,0,0,0-.256-1.049,1.237,1.237,0,0,0-.974-.4,1.908,1.908,0,0,0-1.125.311,1.324,1.324,0,0,0-.6.858L24.2-5.346A1.983,1.983,0,0,1,24.705-6.5a2.943,2.943,0,0,1,1.142-.779,3.688,3.688,0,0,1,1.442-.263,2.452,2.452,0,0,1,1.8.7,2.173,2.173,0,0,1,.54,1.788l-.6,3.664-.034.526a2.58,2.58,0,0,0,.082.745L29.06,0ZM25.86-.957a2.158,2.158,0,0,0,1.125-.284,2.847,2.847,0,0,0,.913-.824l.267-1.524L27.228-3.6a3.547,3.547,0,0,0-1.791.369,1.36,1.36,0,0,0-.7,1.046,1.059,1.059,0,0,0,.243.865A1.156,1.156,0,0,0,25.86-.957Zm9.57.226a2.856,2.856,0,0,1-2.208.868,1.843,1.843,0,0,1-1.569-.759,2.9,2.9,0,0,1-.379-2L32.067-7.4H33.3l-.8,4.8a3.187,3.187,0,0,0-.014.588,1.223,1.223,0,0,0,.294.772,1,1,0,0,0,.725.3A2.219,2.219,0,0,0,35.561-2.01L36.49-7.4h1.237L36.442,0H35.273Zm4.2.731H38.4l1.818-10.5h1.237Zm5.291-9.187L44.6-7.4h1.347l-.171.978H44.44l-.772,4.6a1.6,1.6,0,0,0-.007.328.521.521,0,0,0,.581.533,3.544,3.544,0,0,0,.6-.068l-.1,1.032a3.366,3.366,0,0,1-.9.123,1.292,1.292,0,0,1-1.107-.543,2.1,2.1,0,0,1-.287-1.425l.752-4.58H41.9l.171-.978h1.306l.314-1.791Z" transform="translate(1144.389 5406.763)" fill="#12263f"/>
    <path id="Trazado_823073" data-name="Trazado 823073" d="M8.969-9.953,7.82-3.22A3.822,3.822,0,0,1,6.48-.749,3.934,3.934,0,0,1,3.808.144,3.462,3.462,0,0,1,2.109-.3,2.54,2.54,0,0,1,1.046-1.48,3.229,3.229,0,0,1,.82-3.213l1.148-6.74H3.233L2.092-3.2a2.183,2.183,0,0,0,.355,1.645A1.777,1.777,0,0,0,3.876-.93a2.461,2.461,0,0,0,1.753-.564,2.734,2.734,0,0,0,.9-1.7L7.677-9.953Zm4.717,3.685L13.1-6.33a2.117,2.117,0,0,0-1.873,1.073L10.322,0H9.085L10.37-7.4l1.2-.007-.185.861a2.211,2.211,0,0,1,1.853-1,2.27,2.27,0,0,1,.588.1Zm6.774,2.6a5.763,5.763,0,0,1-.622,2.044A3.484,3.484,0,0,1,18.662-.273a2.676,2.676,0,0,1-1.531.417,2.284,2.284,0,0,1-1.989-1L14.889,0H13.747l1.825-10.5H16.81l-.745,3.924a2.719,2.719,0,0,1,2.16-.957,2.063,2.063,0,0,1,1.661.786,3.46,3.46,0,0,1,.629,2.092,6.443,6.443,0,0,1-.041.848Zm-1.176-.714A2.633,2.633,0,0,0,18.949-5.9a1.282,1.282,0,0,0-1.087-.556A2.252,2.252,0,0,0,15.907-5.3l-.554,3.216A1.574,1.574,0,0,0,16.892-.93a1.8,1.8,0,0,0,1.268-.43,2.81,2.81,0,0,0,.824-1.28A5.756,5.756,0,0,0,19.284-4.378ZM25.963,0a1.657,1.657,0,0,1-.048-.39l.021-.39a3.032,3.032,0,0,1-2.16.916,2.21,2.21,0,0,1-1.589-.619A1.872,1.872,0,0,1,21.629-2a2.277,2.277,0,0,1,1.029-1.835,4.38,4.38,0,0,1,2.526-.66l1.292.007.082-.588A1.352,1.352,0,0,0,26.3-6.122a1.237,1.237,0,0,0-.974-.4A1.908,1.908,0,0,0,24.2-6.21a1.324,1.324,0,0,0-.6.858l-1.244.007A1.983,1.983,0,0,1,22.866-6.5a2.943,2.943,0,0,1,1.142-.779A3.688,3.688,0,0,1,25.45-7.54a2.452,2.452,0,0,1,1.8.7,2.173,2.173,0,0,1,.54,1.788l-.6,3.664-.034.526a2.58,2.58,0,0,0,.082.745L27.221,0ZM24.021-.957a2.158,2.158,0,0,0,1.125-.284,2.847,2.847,0,0,0,.913-.824l.267-1.524L25.389-3.6a3.547,3.547,0,0,0-1.791.369,1.36,1.36,0,0,0-.7,1.046,1.059,1.059,0,0,0,.243.865A1.156,1.156,0,0,0,24.021-.957ZM31.35-7.4l-.178.937a2.916,2.916,0,0,1,2.27-1.066,1.835,1.835,0,0,1,1.545.725,2.815,2.815,0,0,1,.369,1.962L34.549,0H33.312l.813-4.862a2.592,2.592,0,0,0,.007-.621A1.022,1.022,0,0,0,33-6.46a2.329,2.329,0,0,0-1.955,1.188L30.133,0H28.9l1.285-7.4ZM38.609-3.9,37.933,0H36.647l1.729-9.953,3.322.007a3.249,3.249,0,0,1,2.372.817,2.57,2.57,0,0,1,.718,2.17A3.1,3.1,0,0,1,43.651-4.71a4.128,4.128,0,0,1-2.676.82Zm.185-1.073,2.215.007a2.694,2.694,0,0,0,1.716-.526,2.106,2.106,0,0,0,.786-1.463,1.65,1.65,0,0,0-.349-1.364,1.755,1.755,0,0,0-1.333-.55l-2.358-.007ZM49.109-7.533a2.666,2.666,0,0,1,1.593.506,2.874,2.874,0,0,1,.981,1.357A4.2,4.2,0,0,1,51.9-3.78l-.014.15a4.975,4.975,0,0,1-.643,1.952A3.77,3.77,0,0,1,49.916-.321a3.234,3.234,0,0,1-1.784.458,2.671,2.671,0,0,1-1.589-.506,2.809,2.809,0,0,1-.974-1.34,4.314,4.314,0,0,1-.219-1.866,5.04,5.04,0,0,1,.622-2.064,3.858,3.858,0,0,1,1.336-1.418A3.2,3.2,0,0,1,49.109-7.533ZM46.594-3.568a4.2,4.2,0,0,0,0,.9,2.194,2.194,0,0,0,.482,1.285,1.447,1.447,0,0,0,1.1.5,1.971,1.971,0,0,0,1.135-.3,2.554,2.554,0,0,0,.875-.981,4.131,4.131,0,0,0,.458-1.456,6.558,6.558,0,0,0,.021-1.06A2.277,2.277,0,0,0,50.169-6,1.479,1.479,0,0,0,49.062-6.5a2.016,2.016,0,0,0-1.627.752,3.715,3.715,0,0,0-.827,2.023Zm12.92-.1a5.868,5.868,0,0,1-.608,2.03,3.455,3.455,0,0,1-1.169,1.35,2.676,2.676,0,0,1-1.545.427,2.463,2.463,0,0,1-1.969-.868L53.56,2.844H52.322L54.1-7.4,55.221-7.4l-.137.827a2.806,2.806,0,0,1,2.194-.957,2.063,2.063,0,0,1,1.661.786,3.46,3.46,0,0,1,.629,2.092,7.361,7.361,0,0,1-.034.848ZM58.3-3.8l.034-.573A2.6,2.6,0,0,0,57.952-5.9a1.334,1.334,0,0,0-1.1-.556A2.194,2.194,0,0,0,55-5.443L54.38-1.9a1.548,1.548,0,0,0,1.5,1.01,1.946,1.946,0,0,0,1.569-.72A4.18,4.18,0,0,0,58.3-3.8Z" transform="translate(1218.389 5406.763)" fill="#12263f"/>
    <path id="Trazado_823074" data-name="Trazado 823074" d="M4.683-4.02h-2.3L1.688,0H.4L2.126-9.953l2.994.007a3.337,3.337,0,0,1,2.386.794A2.477,2.477,0,0,1,8.2-7.01a2.836,2.836,0,0,1-.68,1.649,3.716,3.716,0,0,1-1.61,1.074l1.545,4.2L7.444,0H6.077ZM2.57-5.1l1.887.007a2.635,2.635,0,0,0,1.661-.523,2.036,2.036,0,0,0,.793-1.4,1.608,1.608,0,0,0-.342-1.34,1.826,1.826,0,0,0-1.354-.513L3.227-8.873ZM13.166,0a1.657,1.657,0,0,1-.048-.39l.021-.39a3.032,3.032,0,0,1-2.16.916A2.21,2.21,0,0,1,9.389-.482,1.872,1.872,0,0,1,8.832-2,2.277,2.277,0,0,1,9.861-3.832a4.38,4.38,0,0,1,2.526-.66l1.292.007.082-.588A1.352,1.352,0,0,0,13.5-6.122a1.237,1.237,0,0,0-.974-.4,1.908,1.908,0,0,0-1.125.311,1.324,1.324,0,0,0-.6.858l-1.244.007A1.983,1.983,0,0,1,10.069-6.5a2.943,2.943,0,0,1,1.142-.779,3.688,3.688,0,0,1,1.442-.263,2.452,2.452,0,0,1,1.8.7,2.173,2.173,0,0,1,.54,1.788l-.6,3.664-.034.526a2.58,2.58,0,0,0,.082.745L14.424,0ZM11.225-.957a2.158,2.158,0,0,0,1.125-.284,2.847,2.847,0,0,0,.913-.824l.267-1.524L12.592-3.6a3.547,3.547,0,0,0-1.791.369,1.36,1.36,0,0,0-.7,1.046,1.059,1.059,0,0,0,.243.865A1.156,1.156,0,0,0,11.225-.957ZM22.8-3.664a5.868,5.868,0,0,1-.608,2.03,3.455,3.455,0,0,1-1.169,1.35,2.676,2.676,0,0,1-1.545.427,2.463,2.463,0,0,1-1.969-.868l-.663,3.568H15.606L17.384-7.4,18.5-7.4l-.137.827a2.806,2.806,0,0,1,2.194-.957,2.063,2.063,0,0,1,1.661.786,3.46,3.46,0,0,1,.629,2.092,7.361,7.361,0,0,1-.034.848ZM21.581-3.8l.034-.573A2.6,2.6,0,0,0,21.236-5.9a1.334,1.334,0,0,0-1.1-.556,2.194,2.194,0,0,0-1.853,1.017L17.664-1.9a1.548,1.548,0,0,0,1.5,1.01,1.946,1.946,0,0,0,1.569-.72A4.18,4.18,0,0,0,21.581-3.8ZM26.988.137a2.667,2.667,0,0,1-2.16-1.019,3.505,3.505,0,0,1-.656-2.536l.034-.294a4.921,4.921,0,0,1,.653-2.01,3.8,3.8,0,0,1,1.309-1.371,3.054,3.054,0,0,1,1.668-.441,2.352,2.352,0,0,1,1.791.759,3.121,3.121,0,0,1,.711,1.982,5.793,5.793,0,0,1-.027.889l-.075.567H25.4a2.5,2.5,0,0,0,.332,1.709A1.57,1.57,0,0,0,27.091-.9a2.631,2.631,0,0,0,2.023-.984l.711.6a3.253,3.253,0,0,1-1.2,1.049A3.4,3.4,0,0,1,26.988.137ZM27.774-6.5a1.807,1.807,0,0,0-1.336.52,3.693,3.693,0,0,0-.906,1.606l3.6.007.027-.109a2.024,2.024,0,0,0-.277-1.432A1.3,1.3,0,0,0,27.774-6.5Z" transform="translate(1324.51 5406.763)" fill="#12263f"/>
    <path id="Trazado_821466-2" data-name="Trazado 821466" d="M-4813.6-6473.618h287.944" transform="translate(5894.097 11676.118)" fill="#fff" stroke="#fff" stroke-width="1"/>
    <path id="Trazado_821470-2" data-name="Trazado 821470" d="M-4525.653-6473.618" transform="translate(5894.097 11818.235)" fill="#fff" stroke="#fff" stroke-width="1"/>
    <path id="Trazado_821471-2" data-name="Trazado 821471" d="M-4799.219-6495.349v194.3" transform="translate(5897.097 11682.763)" fill="#fff" stroke="#fff" stroke-width="1"/>
    <path id="Trazado_821586-2" data-name="Trazado 821586" d="M-4799.219-6495.349v194.3" transform="translate(5963.975 11682.763)" fill="#fff" stroke="#fff" stroke-width="1"/>
    <path id="Trazado_821588-2" data-name="Trazado 821588" d="M-4799.219-6495.349v194.3" transform="translate(6048.607 11682.763)" fill="#fff" stroke="#fff" stroke-width="1"/>
    <path id="Trazado_821591-2" data-name="Trazado 821591" d="M-4799.219-6495.349v194.3" transform="translate(6139.872 11682.763)" fill="#fff" stroke="#fff" stroke-width="1"/>
    <path id="Trazado_821587-2" data-name="Trazado 821587" d="M-4799.219-6495.349v194.3" transform="translate(5928.975 11682.763)" fill="#fff" stroke="#fff" stroke-width="1"/>
    <path id="Trazado_821589-2" data-name="Trazado 821589" d="M-4799.219-6495.349v194.3" transform="translate(6002.975 11682.763)" fill="#fff" stroke="#fff" stroke-width="1"/>
    <path id="Trazado_821590-2" data-name="Trazado 821590" d="M-4799.219-6495.349v194.3" transform="translate(6094.24 11682.763)" fill="#fff" stroke="#fff" stroke-width="1"/>
    <path id="Trazado_821189-2" data-name="Trazado 821189" d="M-4693.665-8143.058v6.364" transform="translate(5791.542 13526.834)" fill="none" stroke="#12263f" stroke-width="1"/>
    <path id="Trazado_821592-2" data-name="Trazado 821592" d="M-4693.665-8143.058v6.364" transform="translate(5858.421 13526.834)" fill="none" stroke="#12263f" stroke-width="1"/>
    <path id="Trazado_821593-2" data-name="Trazado 821593" d="M-4693.665-8143.058v6.364" transform="translate(5943.053 13526.834)" fill="none" stroke="#12263f" stroke-width="1"/>
    <path id="Trazado_821594-2" data-name="Trazado 821594" d="M-4693.665-8143.058v6.364" transform="translate(6034.318 13526.834)" fill="none" stroke="#12263f" stroke-width="1"/>
    <path id="Trazado_821598" data-name="Trazado 821598" d="M-4693.665-8143.058v6.364" transform="translate(-7064.487 9896.164) rotate(90)" fill="none" stroke="#12263f" stroke-width="1"/>
    <path id="Trazado_823075" data-name="Trazado 823075" d="M3.333-3.447H.235v-.958h3.1Zm10.036-.5a5.371,5.371,0,0,1-.7,3.066,2.506,2.506,0,0,1-2.2,1,2.524,2.524,0,0,1-2.19-.981,5.1,5.1,0,0,1-.736-2.929V-5.351a5.251,5.251,0,0,1,.7-3.028,2.525,2.525,0,0,1,2.209-.99,2.548,2.548,0,0,1,2.2.955,5.068,5.068,0,0,1,.724,2.948ZM12.194-5.548a4.3,4.3,0,0,0-.419-2.174A1.442,1.442,0,0,0,10.448-8.4a1.423,1.423,0,0,0-1.314.679,4.2,4.2,0,0,0-.425,2.088v1.879a4.372,4.372,0,0,0,.435,2.212,1.439,1.439,0,0,0,1.317.714A1.42,1.42,0,0,0,11.753-1.5a4.214,4.214,0,0,0,.441-2.12ZM15.019-.616a.735.735,0,0,1,.181-.508.689.689,0,0,1,.543-.2.71.71,0,0,1,.549.2.721.721,0,0,1,.187.508.681.681,0,0,1-.187.489.723.723,0,0,1-.549.2.7.7,0,0,1-.543-.2A.7.7,0,0,1,15.019-.616Zm9.242-7.966L20.433,0H19.2l3.815-8.277h-5v-.965h6.246Z" transform="translate(1032.01 5228)" fill="#12263f"/>
    <path id="Trazado_821600" data-name="Trazado 821600" d="M-4813.6-6473.618h287.944" transform="translate(5894.097 11697.118)" fill="#fff" stroke="#fff" stroke-width="1"/>
    <path id="Trazado_821599" data-name="Trazado 821599" d="M-4693.665-8143.058v6.364" transform="translate(-7064.487 9917.164) rotate(90)" fill="none" stroke="#12263f" stroke-width="1"/>
    <path id="Trazado_823076" data-name="Trazado 823076" d="M3.333-3.447H.235v-.958h3.1Zm10.036-.5a5.371,5.371,0,0,1-.7,3.066,2.506,2.506,0,0,1-2.2,1,2.524,2.524,0,0,1-2.19-.981,5.1,5.1,0,0,1-.736-2.929V-5.351a5.251,5.251,0,0,1,.7-3.028,2.525,2.525,0,0,1,2.209-.99,2.548,2.548,0,0,1,2.2.955,5.068,5.068,0,0,1,.724,2.948ZM12.194-5.548a4.3,4.3,0,0,0-.419-2.174A1.442,1.442,0,0,0,10.448-8.4a1.423,1.423,0,0,0-1.314.679,4.2,4.2,0,0,0-.425,2.088v1.879a4.372,4.372,0,0,0,.435,2.212,1.439,1.439,0,0,0,1.317.714A1.42,1.42,0,0,0,11.753-1.5a4.214,4.214,0,0,0,.441-2.12ZM15.019-.616a.735.735,0,0,1,.181-.508.689.689,0,0,1,.543-.2.71.71,0,0,1,.549.2.721.721,0,0,1,.187.508.681.681,0,0,1-.187.489.723.723,0,0,1-.549.2.7.7,0,0,1-.543-.2A.7.7,0,0,1,15.019-.616ZM23.9-6.83A2.146,2.146,0,0,1,23.534-5.6a2.483,2.483,0,0,1-.987.844,2.649,2.649,0,0,1,1.146.908,2.284,2.284,0,0,1,.422,1.352,2.415,2.415,0,0,1-.809,1.911,3.109,3.109,0,0,1-2.13.711A3.1,3.1,0,0,1,19.04-.587a2.426,2.426,0,0,1-.8-1.907,2.352,2.352,0,0,1,.409-1.352,2.548,2.548,0,0,1,1.133-.914,2.422,2.422,0,0,1-.971-.844,2.177,2.177,0,0,1-.355-1.225A2.389,2.389,0,0,1,19.2-8.684a2.81,2.81,0,0,1,1.974-.686,2.812,2.812,0,0,1,1.971.686A2.384,2.384,0,0,1,23.9-6.83ZM22.94-2.52a1.7,1.7,0,0,0-.492-1.263,1.745,1.745,0,0,0-1.285-.489,1.714,1.714,0,0,0-1.273.482,1.723,1.723,0,0,0-.479,1.27,1.641,1.641,0,0,0,.467,1.238,1.791,1.791,0,0,0,1.3.451,1.786,1.786,0,0,0,1.295-.454A1.637,1.637,0,0,0,22.94-2.52ZM21.176-8.4a1.515,1.515,0,0,0-1.12.428,1.574,1.574,0,0,0-.428,1.165,1.566,1.566,0,0,0,.422,1.139,1.5,1.5,0,0,0,1.127.435A1.5,1.5,0,0,0,22.3-5.672a1.566,1.566,0,0,0,.422-1.139,1.567,1.567,0,0,0-.438-1.149A1.494,1.494,0,0,0,21.176-8.4Z" transform="translate(1032.01 5249)" fill="#12263f"/>
    <path id="Trazado_821602" data-name="Trazado 821602" d="M-4813.6-6473.618h287.944" transform="translate(5894.097 11718.119)" fill="#fff" stroke="#fff" stroke-width="1"/>
    <path id="Trazado_821601" data-name="Trazado 821601" d="M-4693.665-8143.058v6.364" transform="translate(-7064.487 9938.164) rotate(90)" fill="none" stroke="#12263f" stroke-width="1"/>
    <path id="Trazado_823077" data-name="Trazado 823077" d="M3.333-3.447H.235v-.958h3.1Zm10.036-.5a5.371,5.371,0,0,1-.7,3.066,2.506,2.506,0,0,1-2.2,1,2.524,2.524,0,0,1-2.19-.981,5.1,5.1,0,0,1-.736-2.929V-5.351a5.251,5.251,0,0,1,.7-3.028,2.525,2.525,0,0,1,2.209-.99,2.548,2.548,0,0,1,2.2.955,5.068,5.068,0,0,1,.724,2.948ZM12.194-5.548a4.3,4.3,0,0,0-.419-2.174A1.442,1.442,0,0,0,10.448-8.4a1.423,1.423,0,0,0-1.314.679,4.2,4.2,0,0,0-.425,2.088v1.879a4.372,4.372,0,0,0,.435,2.212,1.439,1.439,0,0,0,1.317.714A1.42,1.42,0,0,0,11.753-1.5a4.214,4.214,0,0,0,.441-2.12ZM15.019-.616a.735.735,0,0,1,.181-.508.689.689,0,0,1,.543-.2.71.71,0,0,1,.549.2.721.721,0,0,1,.187.508.681.681,0,0,1-.187.489.723.723,0,0,1-.549.2.7.7,0,0,1-.543-.2A.7.7,0,0,1,15.019-.616Zm7.776-3.447a2.873,2.873,0,0,1-.879.7,2.385,2.385,0,0,1-1.12.267A2.463,2.463,0,0,1,19.4-3.485a2.558,2.558,0,0,1-.917-1.108,3.776,3.776,0,0,1-.324-1.577,3.847,3.847,0,0,1,.352-1.669,2.588,2.588,0,0,1,1-1.136,2.851,2.851,0,0,1,1.511-.394,2.581,2.581,0,0,1,2.161,1.025,4.471,4.471,0,0,1,.79,2.8v.343a5.974,5.974,0,0,1-1.066,3.939A4.1,4.1,0,0,1,19.69.006h-.229v-1h.248a3.233,3.233,0,0,0,2.234-.757A3.248,3.248,0,0,0,22.794-4.062Zm-1.809,0a1.813,1.813,0,0,0,1.089-.362,2.133,2.133,0,0,0,.727-.9v-.47a3.232,3.232,0,0,0-.5-1.879,1.5,1.5,0,0,0-1.27-.724,1.508,1.508,0,0,0-1.244.594,2.448,2.448,0,0,0-.47,1.565,2.548,2.548,0,0,0,.454,1.558A1.437,1.437,0,0,0,20.985-4.062Z" transform="translate(1032.01 5270.001)" fill="#12263f"/>
    <path id="Trazado_821603" data-name="Trazado 821603" d="M-4813.6-6473.618h287.944" transform="translate(5894.097 11739.119)" fill="#fff" stroke="#fff" stroke-width="1"/>
    <path id="Trazado_821604" data-name="Trazado 821604" d="M-4693.665-8143.058v6.364" transform="translate(-7064.487 9959.166) rotate(90)" fill="none" stroke="#12263f" stroke-width="1"/>
    <path id="Trazado_823078" data-name="Trazado 823078" d="M3.333-3.447H.235v-.958h3.1ZM11.432,0H10.251V-7.827l-2.368.87V-8.023l3.364-1.263h.184Zm3.586-.616a.735.735,0,0,1,.181-.508.689.689,0,0,1,.543-.2.71.71,0,0,1,.549.2.721.721,0,0,1,.187.508.681.681,0,0,1-.187.489.723.723,0,0,1-.549.2.7.7,0,0,1-.543-.2A.7.7,0,0,1,15.019-.616Zm9.071-3.326a5.371,5.371,0,0,1-.7,3.066,2.506,2.506,0,0,1-2.2,1,2.524,2.524,0,0,1-2.19-.981,5.1,5.1,0,0,1-.736-2.929V-5.351a5.251,5.251,0,0,1,.7-3.028,2.525,2.525,0,0,1,2.209-.99,2.548,2.548,0,0,1,2.2.955,5.068,5.068,0,0,1,.724,2.948ZM22.915-5.548A4.3,4.3,0,0,0,22.5-7.722,1.442,1.442,0,0,0,21.169-8.4a1.423,1.423,0,0,0-1.314.679,4.2,4.2,0,0,0-.425,2.088v1.879a4.372,4.372,0,0,0,.435,2.212,1.439,1.439,0,0,0,1.317.714A1.42,1.42,0,0,0,22.474-1.5a4.214,4.214,0,0,0,.441-2.12Z" transform="translate(1032.01 5290.001)" fill="#12263f"/>
    <path id="Trazado_821605" data-name="Trazado 821605" d="M-4813.6-6473.618h287.944" transform="translate(5894.097 11759.119)" fill="#fff" stroke="#fff" stroke-width="1"/>
    <path id="Trazado_821606" data-name="Trazado 821606" d="M-4693.665-8143.058v6.364" transform="translate(-7064.487 9979.166) rotate(90)" fill="none" stroke="#12263f" stroke-width="1"/>
    <path id="Trazado_821607" data-name="Trazado 821607" d="M-4813.6-6473.618h287.944" transform="translate(5894.097 11779.12)" fill="#fff" stroke="#fff" stroke-width="1"/>
    <path id="Trazado_821614" data-name="Trazado 821614" d="M-4693.665-8143.058v6.364" transform="translate(-7064.487 9999.166) rotate(90)" fill="none" stroke="#12263f" stroke-width="1"/>
    <path id="Trazado_821609" data-name="Trazado 821609" d="M-4813.6-6473.618h287.944" transform="translate(5894.097 11799.12)" fill="#fff" stroke="#fff" stroke-width="1"/>
    <path id="Trazado_823079" data-name="Trazado 823079" d="M3.333-3.447H.235v-.958h3.1ZM11.432,0H10.251V-7.827l-2.368.87V-8.023l3.364-1.263h.184Zm3.586-.616a.735.735,0,0,1,.181-.508.689.689,0,0,1,.543-.2.71.71,0,0,1,.549.2.721.721,0,0,1,.187.508.681.681,0,0,1-.187.489.723.723,0,0,1-.549.2.7.7,0,0,1-.543-.2A.7.7,0,0,1,15.019-.616ZM24.35,0H18.294V-.844l3.2-3.555a7.6,7.6,0,0,0,.981-1.311,2.188,2.188,0,0,0,.27-1.044,1.658,1.658,0,0,0-.438-1.187A1.531,1.531,0,0,0,21.138-8.4a1.814,1.814,0,0,0-1.362.5,1.9,1.9,0,0,0-.486,1.387H18.116a2.726,2.726,0,0,1,.822-2.063,3.047,3.047,0,0,1,2.2-.787,2.928,2.928,0,0,1,2.038.676,2.306,2.306,0,0,1,.749,1.8,5.287,5.287,0,0,1-1.739,3.25L19.709-.958h4.64Z" transform="translate(1032.01 5330.002)" fill="#12263f"/>
    <path id="Trazado_821608" data-name="Trazado 821608" d="M-4693.665-8143.058v6.364" transform="translate(-7064.487 10019.166) rotate(90)" fill="none" stroke="#12263f" stroke-width="1"/>
    <path id="Trazado_821611" data-name="Trazado 821611" d="M-4813.6-6473.618h287.944" transform="translate(5894.097 11819.121)" fill="#fff" stroke="#fff" stroke-width="1"/>
    <path id="Trazado_823080" data-name="Trazado 823080" d="M3.333-3.447H.235v-.958h3.1ZM11.432,0H10.251V-7.827l-2.368.87V-8.023l3.364-1.263h.184Zm3.586-.616a.735.735,0,0,1,.181-.508.689.689,0,0,1,.543-.2.71.71,0,0,1,.549.2.721.721,0,0,1,.187.508.681.681,0,0,1-.187.489.723.723,0,0,1-.549.2.7.7,0,0,1-.543-.2A.7.7,0,0,1,15.019-.616ZM20-5.192h.882a1.939,1.939,0,0,0,1.308-.438,1.463,1.463,0,0,0,.476-1.149A1.434,1.434,0,0,0,21.049-8.4a1.684,1.684,0,0,0-1.216.435,1.522,1.522,0,0,0-.454,1.152H18.205a2.358,2.358,0,0,1,.8-1.825,2.925,2.925,0,0,1,2.041-.727,2.891,2.891,0,0,1,2.05.692,2.5,2.5,0,0,1,.743,1.923,2.029,2.029,0,0,1-.39,1.168,2.357,2.357,0,0,1-1.063.844,2.271,2.271,0,0,1,1.177.8,2.221,2.221,0,0,1,.416,1.365A2.521,2.521,0,0,1,23.169-.6a3.043,3.043,0,0,1-2.114.73,3.123,3.123,0,0,1-2.117-.7,2.337,2.337,0,0,1-.816-1.86H19.3a1.511,1.511,0,0,0,.476,1.168,1.811,1.811,0,0,0,1.276.438,1.777,1.777,0,0,0,1.3-.444,1.712,1.712,0,0,0,.451-1.276,1.554,1.554,0,0,0-.5-1.238,2.157,2.157,0,0,0-1.428-.444H20Z" transform="translate(1032.01 5350.002)" fill="#12263f"/>
    <path id="Trazado_821610" data-name="Trazado 821610" d="M-4693.665-8143.058v6.364" transform="translate(-7064.487 10039.166) rotate(90)" fill="none" stroke="#12263f" stroke-width="1"/>
    <path id="Trazado_823081" data-name="Trazado 823081" d="M3.333-3.447H.235v-.958h3.1ZM11.432,0H10.251V-7.827l-2.368.87V-8.023l3.364-1.263h.184Zm3.586-.616a.735.735,0,0,1,.181-.508.689.689,0,0,1,.543-.2.71.71,0,0,1,.549.2.721.721,0,0,1,.187.508.681.681,0,0,1-.187.489.723.723,0,0,1-.549.2.7.7,0,0,1-.543-.2A.7.7,0,0,1,15.019-.616ZM23.251-3.1h1.282v.958H23.251V0H22.071V-2.146H17.862v-.692L22-9.242h1.25ZM19.2-3.1h2.875V-7.636l-.14.254Z" transform="translate(1032.01 5370)" fill="#12263f"/>
    <g id="Grupo_1072683" data-name="Grupo 1072683" transform="translate(9 -21.499)">
      <path id="Trazado_821615" data-name="Trazado 821615" d="M-4813.6-6473.618h287.944" transform="translate(5885.097 11860.117)" fill="#fff" stroke="#fff" stroke-width="1"/>
      <path id="Trazado_821612" data-name="Trazado 821612" d="M-4693.665-8143.058v6.364" transform="translate(-7073.487 10080.164) rotate(90)" fill="none" stroke="#12263f" stroke-width="1"/>
    </g>
    <path id="Trazado_821613" data-name="Trazado 821613" d="M-4778.993-6358.947l32.65,9.277,33.254,10.883,86.462,35.069,92.508-48.976" transform="translate(5467.097 11674)" fill="none" stroke="#eb3b20" stroke-width="1.5"/>
    <path id="Trazado_821616" data-name="Trazado 821616" d="M-4369.219-6329l66.5,18.9,131.206-164.459,46.557,97.346" transform="translate(5467.097 11674)" fill="none" stroke="#3682b0" stroke-width="1.5"/>
    <path id="Trazado_821617" data-name="Trazado 821617" d="M-4369.219-6325.208l65.9,12.093,131.205-153.577,45.952,126.973" transform="translate(5467.097 11674)" fill="none" stroke="#eb3b20" stroke-width="1.5"/>
    <g id="Trazado_823082" data-name="Trazado 823082" transform="translate(863.097 5194.762)" fill="#ddd">
      <path d="M 77.5 29.5 L 0.5 29.5 L 0.5 0.5 L 77.5 0.5 L 77.5 29.5 Z" stroke="none"/>
      <path d="M 1 1 L 1 29 L 77 29 L 77 1 L 1 1 M 0 0 L 78 0 L 78 30 L 0 30 L 0 0 Z" stroke="none" fill="#aaa"/>
    </g>
    <path id="Trazado_823083" data-name="Trazado 823083" d="M2.861-1.121,4.689-6.4h.923L3.239,0H2.492L.123-6.4h.918ZM8.314.088A2.078,2.078,0,0,1,6.741-.547a2.357,2.357,0,0,1-.606-1.7V-2.4a2.853,2.853,0,0,1,.27-1.263,2.108,2.108,0,0,1,.756-.87,1.9,1.9,0,0,1,1.052-.314,1.781,1.781,0,0,1,1.441.611,2.645,2.645,0,0,1,.514,1.749v.338H6.948a1.69,1.69,0,0,0,.411,1.136,1.292,1.292,0,0,0,1,.433,1.416,1.416,0,0,0,.729-.176,1.833,1.833,0,0,0,.523-.466l.5.387A2,2,0,0,1,8.314.088Zm-.1-4.263a1.084,1.084,0,0,0-.826.358,1.741,1.741,0,0,0-.413,1H9.356v-.062a1.548,1.548,0,0,0-.334-.96A1.021,1.021,0,0,0,8.213-4.175Zm5.194.149a2.436,2.436,0,0,0-.4-.031,1.071,1.071,0,0,0-1.085.681V0h-.813V-4.755H11.9l.013.549a1.266,1.266,0,0,1,1.134-.637.831.831,0,0,1,.36.062Zm1.512-.729.022.527a1.756,1.756,0,0,1,1.411-.615,1.359,1.359,0,0,1,1.358.765,1.8,1.8,0,0,1,.617-.554,1.824,1.824,0,0,1,.9-.211q1.564,0,1.591,1.657V0H20V-3.138a1.092,1.092,0,0,0-.233-.762,1.026,1.026,0,0,0-.782-.253,1.078,1.078,0,0,0-.751.27,1.1,1.1,0,0,0-.347.727V0h-.817V-3.116a.907.907,0,0,0-1.015-1.037,1.088,1.088,0,0,0-1.094.681V0H14.15V-4.755Zm6.908,2.333A2.808,2.808,0,0,1,22.1-3.678a2.049,2.049,0,0,1,.765-.861,2.081,2.081,0,0,1,1.118-.3,2.005,2.005,0,0,1,1.571.672,2.587,2.587,0,0,1,.6,1.789v.057a2.833,2.833,0,0,1-.266,1.246,2.019,2.019,0,0,1-.76.859,2.105,2.105,0,0,1-1.136.308,2,2,0,0,1-1.567-.672,2.574,2.574,0,0,1-.6-1.78Zm.817.1a2.034,2.034,0,0,0,.367,1.27,1.174,1.174,0,0,0,.982.479,1.167,1.167,0,0,0,.984-.486,2.224,2.224,0,0,0,.365-1.36,2.031,2.031,0,0,0-.371-1.268,1.181,1.181,0,0,0-.987-.486,1.167,1.167,0,0,0-.971.479A2.208,2.208,0,0,0,22.645-2.325Zm5.3-2.43.026.6A1.733,1.733,0,0,1,29.4-4.843q1.507,0,1.521,1.7V0H30.1V-3.146a1.1,1.1,0,0,0-.235-.76.942.942,0,0,0-.719-.246,1.173,1.173,0,0,0-.694.211,1.432,1.432,0,0,0-.466.554V0h-.813V-4.755Zm5.3-1.151v1.151h.888v.628h-.888v2.952a.66.66,0,0,0,.119.429.5.5,0,0,0,.4.143,1.968,1.968,0,0,0,.387-.053V0a2.371,2.371,0,0,1-.624.087,1.012,1.012,0,0,1-.822-.33,1.416,1.416,0,0,1-.277-.936V-4.126h-.866v-.628h.866V-5.906Z" transform="translate(900.371 5204.986)" fill="#12263f"/>
    <path id="Trazado_823084" data-name="Trazado 823084" d="M4.271-2.826H1.586V0H.743V-6.4H4.707v.69H1.586v2.193H4.271ZM6.473,0H5.66V-6.75h.813ZM7.559-2.421a2.808,2.808,0,0,1,.275-1.257A2.049,2.049,0,0,1,8.6-4.54a2.081,2.081,0,0,1,1.118-.3,2.005,2.005,0,0,1,1.571.672,2.587,2.587,0,0,1,.6,1.789v.057a2.833,2.833,0,0,1-.266,1.246,2.019,2.019,0,0,1-.76.859A2.105,2.105,0,0,1,9.725.088,2,2,0,0,1,8.158-.584a2.574,2.574,0,0,1-.6-1.78Zm.817.1a2.034,2.034,0,0,0,.367,1.27,1.174,1.174,0,0,0,.982.479,1.167,1.167,0,0,0,.984-.486,2.224,2.224,0,0,0,.365-1.36A2.031,2.031,0,0,0,10.7-3.689a1.181,1.181,0,0,0-.987-.486,1.167,1.167,0,0,0-.971.479A2.208,2.208,0,0,0,8.376-2.325Zm6.829-1.7a2.436,2.436,0,0,0-.4-.031,1.071,1.071,0,0,0-1.085.681V0h-.813V-4.755H13.7l.013.549a1.266,1.266,0,0,1,1.134-.637.831.831,0,0,1,.36.062ZM16.835,0h-.813V-4.755h.813Zm-.879-6.016a.485.485,0,0,1,.121-.334.454.454,0,0,1,.358-.136.461.461,0,0,1,.36.136.48.48,0,0,1,.123.334.464.464,0,0,1-.123.33.469.469,0,0,1-.36.132.462.462,0,0,1-.358-.132A.469.469,0,0,1,15.957-6.016Zm1.982,3.6a2.785,2.785,0,0,1,.519-1.76,1.64,1.64,0,0,1,1.358-.666,1.649,1.649,0,0,1,1.323.571V-6.75h.813V0H21.2l-.04-.51a1.656,1.656,0,0,1-1.358.6,1.624,1.624,0,0,1-1.347-.677,2.817,2.817,0,0,1-.521-1.767Zm.813.092a2.109,2.109,0,0,0,.334,1.266,1.08,1.08,0,0,0,.923.457A1.186,1.186,0,0,0,21.138-1.3V-3.48a1.2,1.2,0,0,0-1.121-.672,1.085,1.085,0,0,0-.932.461A2.322,2.322,0,0,0,18.751-2.325ZM26.147,0a1.708,1.708,0,0,1-.114-.5A1.814,1.814,0,0,1,24.68.088a1.678,1.678,0,0,1-1.154-.4,1.287,1.287,0,0,1-.45-1.009,1.344,1.344,0,0,1,.565-1.154,2.662,2.662,0,0,1,1.589-.411h.791v-.374a.913.913,0,0,0-.255-.679,1.024,1.024,0,0,0-.751-.253,1.185,1.185,0,0,0-.729.22.647.647,0,0,0-.294.532h-.817a1.122,1.122,0,0,1,.253-.688,1.725,1.725,0,0,1,.686-.525,2.306,2.306,0,0,1,.951-.193,1.88,1.88,0,0,1,1.288.411A1.482,1.482,0,0,1,26.833-3.3v2.188A2.676,2.676,0,0,0,27-.07V0ZM24.8-.62a1.429,1.429,0,0,0,.725-.2,1.2,1.2,0,0,0,.5-.514v-.976h-.637q-1.494,0-1.494.875a.74.74,0,0,0,.255.6A.98.98,0,0,0,24.8-.62Z" transform="translate(900.371 5218.838)" fill="#12263f"/>
    <path id="Trazado_821596-2" data-name="Trazado 821596" d="M-4443.964-6465.75h28.8" transform="translate(5311.387 11668.471)" fill="none" stroke="#eb3b20" stroke-width="1.5"/>
    <path id="Trazado_821597-2" data-name="Trazado 821597" d="M-4443.964-6465.75h28.8" transform="translate(5311.387 11682.323)" fill="none" stroke="#3682b0" stroke-width="1.5"/>
    <g id="Trazado_823085" data-name="Trazado 823085" transform="translate(1100.878 5193.5)" fill="#ddd">
      <path d="M 105.5 29.5 L 0.5 29.5 L 0.5 0.5 L 105.5 0.5 L 105.5 29.5 Z" stroke="none"/>
      <path d="M 1 1 L 1 29 L 105 29 L 105 1 L 1 1 M 0 0 L 106 0 L 106 30 L 0 30 L 0 0 Z" stroke="none" fill="#aaa"/>
    </g>
    <path id="Trazado_823086" data-name="Trazado 823086" d="M5.66,0H4.812L1.591-4.931V0H.743V-6.4h.848l3.23,4.953V-6.4H5.66ZM9,.088A2.078,2.078,0,0,1,7.431-.547a2.357,2.357,0,0,1-.606-1.7V-2.4a2.853,2.853,0,0,1,.27-1.263,2.108,2.108,0,0,1,.756-.87A1.9,1.9,0,0,1,8.9-4.843a1.781,1.781,0,0,1,1.441.611,2.645,2.645,0,0,1,.514,1.749v.338H7.638a1.69,1.69,0,0,0,.411,1.136,1.292,1.292,0,0,0,1,.433,1.416,1.416,0,0,0,.729-.176,1.833,1.833,0,0,0,.523-.466l.5.387A2,2,0,0,1,9,.088ZM8.9-4.175a1.084,1.084,0,0,0-.826.358,1.741,1.741,0,0,0-.413,1h2.382v-.062a1.548,1.548,0,0,0-.334-.96A1.021,1.021,0,0,0,8.9-4.175Zm7.106,3.054.914-3.634h.813L16.352,0h-.659L14.537-3.6,13.412,0h-.659l-1.38-4.755h.809l.936,3.56,1.107-3.56h.655ZM25.835,0h-.848V-2.958H21.762V0h-.844V-6.4h.844v2.751h3.226V-6.4h.848Zm4.307,0a1.708,1.708,0,0,1-.114-.5,1.814,1.814,0,0,1-1.354.589,1.678,1.678,0,0,1-1.154-.4,1.287,1.287,0,0,1-.45-1.009,1.344,1.344,0,0,1,.565-1.154,2.662,2.662,0,0,1,1.589-.411h.791v-.374a.913.913,0,0,0-.255-.679,1.024,1.024,0,0,0-.751-.253,1.185,1.185,0,0,0-.729.22.647.647,0,0,0-.294.532h-.817a1.122,1.122,0,0,1,.253-.688,1.725,1.725,0,0,1,.686-.525,2.306,2.306,0,0,1,.951-.193,1.88,1.88,0,0,1,1.288.411A1.482,1.482,0,0,1,30.828-3.3v2.188A2.676,2.676,0,0,0,30.995-.07V0ZM28.793-.62a1.429,1.429,0,0,0,.725-.2,1.2,1.2,0,0,0,.5-.514v-.976h-.637q-1.494,0-1.494.875a.74.74,0,0,0,.255.6A.98.98,0,0,0,28.793-.62Zm4.074-4.135.022.527A1.756,1.756,0,0,1,34.3-4.843a1.359,1.359,0,0,1,1.358.765,1.8,1.8,0,0,1,.617-.554,1.824,1.824,0,0,1,.9-.211q1.564,0,1.591,1.657V0h-.813V-3.138a1.092,1.092,0,0,0-.233-.762,1.026,1.026,0,0,0-.782-.253,1.078,1.078,0,0,0-.751.27,1.1,1.1,0,0,0-.347.727V0H35.02V-3.116A.907.907,0,0,0,34-4.153a1.088,1.088,0,0,0-1.094.681V0H32.1V-4.755Zm11.14,2.43a2.847,2.847,0,0,1-.5,1.749,1.592,1.592,0,0,1-1.345.664A1.744,1.744,0,0,1,40.8-.461v2.29H39.99V-4.755h.743l.04.527a1.675,1.675,0,0,1,1.38-.615,1.621,1.621,0,0,1,1.356.646,2.878,2.878,0,0,1,.5,1.8Zm-.813-.092a2.1,2.1,0,0,0-.343-1.27,1.1,1.1,0,0,0-.94-.466A1.2,1.2,0,0,0,40.8-3.5v2.272a1.2,1.2,0,0,0,1.116.65,1.1,1.1,0,0,0,.929-.464A2.293,2.293,0,0,0,43.194-2.417Zm4.614,1.156a.6.6,0,0,0-.248-.512,2.39,2.39,0,0,0-.866-.314,4.093,4.093,0,0,1-.98-.316,1.394,1.394,0,0,1-.536-.439A1.051,1.051,0,0,1,45-3.45a1.233,1.233,0,0,1,.494-.989,1.931,1.931,0,0,1,1.263-.4,1.987,1.987,0,0,1,1.312.417,1.326,1.326,0,0,1,.5,1.068H47.76a.734.734,0,0,0-.283-.576,1.062,1.062,0,0,0-.714-.242,1.111,1.111,0,0,0-.694.193.609.609,0,0,0-.25.505.493.493,0,0,0,.233.444,2.866,2.866,0,0,0,.842.286,4.385,4.385,0,0,1,.987.325,1.439,1.439,0,0,1,.56.455,1.118,1.118,0,0,1,.182.648A1.217,1.217,0,0,1,48.111-.3a2.138,2.138,0,0,1-1.323.385,2.394,2.394,0,0,1-1.011-.2,1.644,1.644,0,0,1-.688-.565,1.361,1.361,0,0,1-.248-.784h.813a.842.842,0,0,0,.327.648,1.27,1.27,0,0,0,.806.24,1.311,1.311,0,0,0,.74-.187A.574.574,0,0,0,47.808-1.261Zm2.685-2.918A1.728,1.728,0,0,1,51.9-4.843q1.507,0,1.521,1.7V0h-.813V-3.146a1.1,1.1,0,0,0-.235-.76.942.942,0,0,0-.719-.246,1.173,1.173,0,0,0-.694.211,1.432,1.432,0,0,0-.466.554V0H49.68V-6.75h.813ZM55.521,0h-.813V-4.755h.813Zm-.879-6.016a.485.485,0,0,1,.121-.334.454.454,0,0,1,.358-.136.461.461,0,0,1,.36.136.48.48,0,0,1,.123.334.464.464,0,0,1-.123.33.469.469,0,0,1-.36.132.462.462,0,0,1-.358-.132A.469.469,0,0,1,54.642-6.016ZM59.12-4.025a2.436,2.436,0,0,0-.4-.031,1.071,1.071,0,0,0-1.085.681V0h-.813V-4.755h.791l.013.549a1.266,1.266,0,0,1,1.134-.637.831.831,0,0,1,.36.062ZM61.84.088a2.078,2.078,0,0,1-1.573-.635,2.357,2.357,0,0,1-.606-1.7V-2.4a2.853,2.853,0,0,1,.27-1.263,2.108,2.108,0,0,1,.756-.87,1.9,1.9,0,0,1,1.052-.314,1.781,1.781,0,0,1,1.441.611,2.645,2.645,0,0,1,.514,1.749v.338H60.473a1.69,1.69,0,0,0,.411,1.136,1.292,1.292,0,0,0,1,.433,1.416,1.416,0,0,0,.729-.176,1.833,1.833,0,0,0,.523-.466l.5.387A2,2,0,0,1,61.84.088Zm-.1-4.263a1.084,1.084,0,0,0-.826.358,1.741,1.741,0,0,0-.413,1h2.382v-.062a1.548,1.548,0,0,0-.334-.96A1.021,1.021,0,0,0,61.739-4.175Z" transform="translate(1138.152 5203.723)" fill="#12263f"/>
    <path id="Trazado_823087" data-name="Trazado 823087" d="M1.648,0H.8V-6.4h.844Zm1.2-2.421a2.808,2.808,0,0,1,.275-1.257,2.049,2.049,0,0,1,.765-.861,2.081,2.081,0,0,1,1.118-.3,2.005,2.005,0,0,1,1.571.672,2.587,2.587,0,0,1,.6,1.789v.057A2.833,2.833,0,0,1,6.91-1.079a2.019,2.019,0,0,1-.76.859A2.105,2.105,0,0,1,5.014.088,2,2,0,0,1,3.448-.584a2.574,2.574,0,0,1-.6-1.78Zm.817.1a2.034,2.034,0,0,0,.367,1.27,1.174,1.174,0,0,0,.982.479A1.167,1.167,0,0,0,6-1.061a2.224,2.224,0,0,0,.365-1.36,2.031,2.031,0,0,0-.371-1.268,1.181,1.181,0,0,0-.987-.486,1.167,1.167,0,0,0-.971.479A2.208,2.208,0,0,0,3.665-2.325Zm8.741,1.2.914-3.634h.813L12.749,0h-.659L10.934-3.6,9.809,0H9.149L7.77-4.755h.809L9.514-1.2l1.107-3.56h.655ZM17.895,0a1.708,1.708,0,0,1-.114-.5,1.814,1.814,0,0,1-1.354.589,1.678,1.678,0,0,1-1.154-.4,1.287,1.287,0,0,1-.45-1.009,1.344,1.344,0,0,1,.565-1.154,2.662,2.662,0,0,1,1.589-.411h.791v-.374a.913.913,0,0,0-.255-.679,1.024,1.024,0,0,0-.751-.253,1.185,1.185,0,0,0-.729.22.647.647,0,0,0-.294.532h-.817a1.122,1.122,0,0,1,.253-.688,1.725,1.725,0,0,1,.686-.525,2.306,2.306,0,0,1,.951-.193,1.88,1.88,0,0,1,1.288.411A1.482,1.482,0,0,1,18.58-3.3v2.188A2.676,2.676,0,0,0,18.747-.07V0ZM16.545-.62a1.429,1.429,0,0,0,.725-.2,1.2,1.2,0,0,0,.5-.514v-.976H17.13q-1.494,0-1.494.875a.74.74,0,0,0,.255.6A.98.98,0,0,0,16.545-.62Z" transform="translate(1138.152 5217.576)" fill="#12263f"/>
    <path id="Trazado_821596-3" data-name="Trazado 821596" d="M-4443.964-6465.75h28.8" transform="translate(5549.168 11667.208)" fill="none" stroke="#eb3b20" stroke-width="1.5"/>
    <path id="Trazado_821597-3" data-name="Trazado 821597" d="M-4443.964-6465.75h28.8" transform="translate(5549.168 11681.061)" fill="none" stroke="#3682b0" stroke-width="1.5"/>
  </g>
</svg>
