<svg xmlns="http://www.w3.org/2000/svg" width="615" height="283" viewBox="0 0 615 283">
  <g id="Grupo_1073764" data-name="Grupo 1073764" transform="translate(6462 2752)">
    <g id="Grupo_1073763" data-name="Grupo 1073763">
      <g id="Grupo_1073762" data-name="Grupo 1073762">
        <path id="equipo-proceso-creacion" d="M0,0H615V283H0Z" transform="translate(-6462 -2752)" fill="#f6f6f6"/>
        <path id="Trazado_823057" data-name="Trazado 823057" d="M5,0c2.761,0,5,2.686,5,6s-2.239,6-5,6S0,9.314,0,6,2.239,0,5,0Z" transform="matrix(0.788, 0.616, -0.616, 0.788, -6305.072, -2691.009)" fill="#5bb200"/>
        <path id="Trazado_823058" data-name="Trazado 823058" d="M5,0c2.761,0,5,2.686,5,6s-2.239,6-5,6S0,9.314,0,6,2.239,0,5,0Z" transform="matrix(0.788, 0.616, -0.616, 0.788, -6319.072, -2667.009)" fill="#5bb200"/>
        <path id="Trazado_823059" data-name="Trazado 823059" d="M5,0c2.761,0,5,2.686,5,6s-2.239,6-5,6S0,9.314,0,6,2.239,0,5,0Z" transform="matrix(0.788, 0.616, -0.616, 0.788, -6283.072, -2684.009)" fill="#5bb200"/>
        <path id="Trazado_823060" data-name="Trazado 823060" d="M5,0c2.761,0,5,2.686,5,6s-2.239,6-5,6S0,9.314,0,6,2.239,0,5,0Z" transform="matrix(0.995, -0.105, 0.105, 0.995, -6306.425, -2645.646)" fill="#5bb200"/>
        <path id="Trazado_823061" data-name="Trazado 823061" d="M5,0c2.761,0,5,2.686,5,6s-2.239,6-5,6S0,9.314,0,6,2.239,0,5,0Z" transform="matrix(-0.995, -0.105, 0.105, -0.995, -6327.714, -2595.712)" fill="#5bb200"/>
        <path id="Trazado_823062" data-name="Trazado 823062" d="M5,0c2.761,0,5,2.686,5,6s-2.239,6-5,6S0,9.314,0,6,2.239,0,5,0Z" transform="translate(-6300.625 -2531.157) rotate(-6)" fill="#5bb200"/>
        <path id="Trazado_823063" data-name="Trazado 823063" d="M5,0c2.761,0,5,2.686,5,6s-2.239,6-5,6S0,9.314,0,6,2.239,0,5,0Z" transform="translate(-6247.625 -2534.157) rotate(-6)" fill="#5bb200"/>
        <path id="Trazado_823064" data-name="Trazado 823064" d="M5,0c2.761,0,5,2.686,5,6s-2.239,6-5,6S0,9.314,0,6,2.239,0,5,0Z" transform="translate(-6255.025 -2560.157) rotate(-6)" fill="#5bb200"/>
        <path id="Trazado_823065" data-name="Trazado 823065" d="M5,0c2.761,0,5,2.686,5,6s-2.239,6-5,6S0,9.314,0,6,2.239,0,5,0Z" transform="matrix(-0.995, -0.105, 0.105, -0.995, -6257.08, -2576.223)" fill="#5bb200"/>
        <path id="Trazado_823066" data-name="Trazado 823066" d="M5,0c2.761,0,5,2.686,5,6s-2.239,6-5,6S0,9.314,0,6,2.239,0,5,0Z" transform="matrix(-0.995, -0.105, 0.105, -0.995, -6211.08, -2557.223)" fill="#5bb200"/>
        <path id="Trazado_823067" data-name="Trazado 823067" d="M5,0c2.761,0,5,2.686,5,6s-2.239,6-5,6S0,9.314,0,6,2.239,0,5,0Z" transform="matrix(-0.995, -0.105, 0.105, -0.995, -6210.08, -2536.223)" fill="#5bb200"/>
        <path id="Trazado_823068" data-name="Trazado 823068" d="M5,0c2.761,0,5,2.686,5,6s-2.239,6-5,6S0,9.314,0,6,2.239,0,5,0Z" transform="matrix(-0.995, -0.105, 0.105, -0.995, -6346.714, -2602.712)" fill="#5bb200"/>
        <path id="Trazado_823069" data-name="Trazado 823069" d="M5,0c2.761,0,5,2.686,5,6s-2.239,6-5,6S0,9.314,0,6,2.239,0,5,0Z" transform="matrix(-0.995, -0.105, 0.105, -0.995, -6369.714, -2583.712)" fill="#5bb200"/>
        <path id="Trazado_823070" data-name="Trazado 823070" d="M5,0c2.761,0,5,2.686,5,6s-2.239,6-5,6S0,9.314,0,6,2.239,0,5,0Z" transform="matrix(-0.995, -0.105, 0.105, -0.995, -6350.714, -2568.712)" fill="#5bb200"/>
        <path id="Trazado_823071" data-name="Trazado 823071" d="M5,0c2.761,0,5,2.686,5,6s-2.239,6-5,6S0,9.314,0,6,2.239,0,5,0Z" transform="translate(-6378.66 -2571.646) rotate(-6)" fill="#5bb200"/>
        <path id="Trazado_823072" data-name="Trazado 823072" d="M5,0c2.761,0,5,2.686,5,6s-2.239,6-5,6S0,9.314,0,6,2.239,0,5,0Z" transform="matrix(-0.995, -0.105, 0.105, -0.995, -6373.515, -2521.242)" fill="#5bb200"/>
        <path id="Trazado_823073" data-name="Trazado 823073" d="M5,0c2.761,0,5,2.686,5,6s-2.239,6-5,6S0,9.314,0,6,2.239,0,5,0Z" transform="matrix(-0.995, -0.105, 0.105, -0.995, -6349.714, -2545.712)" fill="#5bb200"/>
        <path id="Trazado_823074" data-name="Trazado 823074" d="M5,0c2.761,0,5,2.686,5,6s-2.239,6-5,6S0,9.314,0,6,2.239,0,5,0Z" transform="matrix(-0.995, -0.105, 0.105, -0.995, -6328.714, -2545.712)" fill="#5bb200"/>
        <path id="Trazado_823075" data-name="Trazado 823075" d="M5,0c2.761,0,5,2.686,5,6s-2.239,6-5,6S0,9.314,0,6,2.239,0,5,0Z" transform="matrix(-0.995, -0.105, 0.105, -0.995, -6298.714, -2542.712)" fill="#5bb200"/>
        <path id="Trazado_823076" data-name="Trazado 823076" d="M5,0c2.761,0,5,2.686,5,6s-2.239,6-5,6S0,9.314,0,6,2.239,0,5,0Z" transform="matrix(-0.995, -0.105, 0.105, -0.995, -6285.08, -2562.222)" fill="#5bb200"/>
        <path id="Trazado_823077" data-name="Trazado 823077" d="M5,0c2.761,0,5,2.686,5,6s-2.239,6-5,6S0,9.314,0,6,2.239,0,5,0Z" transform="matrix(-0.995, -0.105, 0.105, -0.995, -6264.08, -2555.732)" fill="#5bb200"/>
        <path id="Trazado_823078" data-name="Trazado 823078" d="M5,0c2.761,0,5,2.686,5,6s-2.239,6-5,6S0,9.314,0,6,2.239,0,5,0Z" transform="matrix(-0.995, -0.105, 0.105, -0.995, -6258.48, -2532.202)" fill="#5bb200"/>
        <path id="Trazado_823079" data-name="Trazado 823079" d="M5,0c2.761,0,5,2.686,5,6s-2.239,6-5,6S0,9.314,0,6,2.239,0,5,0Z" transform="matrix(-0.995, -0.105, 0.105, -0.995, -6270.831, -2518.202)" fill="#5bb200"/>
        <path id="Trazado_823080" data-name="Trazado 823080" d="M5,0c2.761,0,5,2.686,5,6s-2.239,6-5,6S0,9.314,0,6,2.239,0,5,0Z" transform="matrix(-0.995, -0.105, 0.105, -0.995, -6350.714, -2525.712)" fill="#5bb200"/>
        <path id="Trazado_823081" data-name="Trazado 823081" d="M5,0c2.761,0,5,2.686,5,6s-2.239,6-5,6S0,9.314,0,6,2.239,0,5,0Z" transform="translate(-6394.66 -2565.156) rotate(-6)" fill="#5bb200"/>
        <path id="Trazado_823082" data-name="Trazado 823082" d="M5,0c2.761,0,5,2.686,5,6s-2.239,6-5,6S0,9.314,0,6,2.239,0,5,0Z" transform="translate(-6401.66 -2546.156) rotate(-6)" fill="#5bb200"/>
        <path id="Trazado_823083" data-name="Trazado 823083" d="M5,0c2.761,0,5,2.686,5,6s-2.239,6-5,6S0,9.314,0,6,2.239,0,5,0Z" transform="matrix(0.995, -0.105, 0.105, 0.995, -6289.425, -2657.646)" fill="#5bb200"/>
        <path id="Trazado_823084" data-name="Trazado 823084" d="M5,0c2.761,0,5,2.686,5,6s-2.239,6-5,6S0,9.314,0,6,2.239,0,5,0Z" transform="translate(-6263.472 -2659.55) rotate(20)" fill="#5bb200"/>
        <path id="Trazado_823085" data-name="Trazado 823085" d="M5,0c2.761,0,5,2.686,5,6s-2.239,6-5,6S0,9.314,0,6,2.239,0,5,0Z" transform="translate(-6270.472 -2677.55) rotate(20)" fill="#5bb200"/>
        <path id="Trazado_823086" data-name="Trazado 823086" d="M5,0c2.761,0,5,2.686,5,6s-2.239,6-5,6S0,9.314,0,6,2.239,0,5,0Z" transform="translate(-6265.472 -2638.55) rotate(20)" fill="#5bb200"/>
        <path id="Trazado_823087" data-name="Trazado 823087" d="M5,0c2.761,0,5,2.686,5,6s-2.239,6-5,6S0,9.314,0,6,2.239,0,5,0Z" transform="translate(-6278.076 -2627.273) rotate(160)" fill="#5bb200"/>
        <path id="Trazado_823088" data-name="Trazado 823088" d="M5,0c2.761,0,5,2.686,5,6s-2.239,6-5,6S0,9.314,0,6,2.239,0,5,0Z" transform="translate(-6249.971 -2694.55) rotate(20)" fill="#5bb200"/>
        <path id="Trazado_823089" data-name="Trazado 823089" d="M5,0c2.761,0,5,2.686,5,6s-2.239,6-5,6S0,9.314,0,6,2.239,0,5,0Z" transform="translate(-6258.574 -2691.273) rotate(160)" fill="#5bb200"/>
        <path id="Trazado_823090" data-name="Trazado 823090" d="M5,0c2.761,0,5,2.686,5,6s-2.239,6-5,6S0,9.314,0,6,2.239,0,5,0Z" transform="translate(-6286.355 -2710.55) rotate(20)" fill="#5bb200"/>
        <g id="Trazado_823030" data-name="Trazado 823030" transform="matrix(0.839, -0.545, 0.545, 0.839, -6038.164, -2650.988)" fill="none">
          <path d="M56,0c30.928,0,56,17.237,56,38.5S86.928,77,56,77,0,59.763,0,38.5,25.072,0,56,0Z" stroke="none"/>
          <path d="M 56 3 C 48.72359848022461 3 41.671630859375 3.977783203125 35.03994750976562 5.906196594238281 C 28.67929840087891 7.75579833984375 22.98041534423828 10.39433288574219 18.10161590576172 13.74851608276367 C 13.30570220947266 17.04570007324219 9.555747985839844 20.86019897460938 6.955917358398438 25.0860481262207 C 4.330963134765625 29.35273361206055 3 33.86584854125977 3 38.5 C 3 43.13415145874023 4.330963134765625 47.64726638793945 6.955917358398438 51.91394805908203 C 9.555747985839844 56.13980102539062 13.30570220947266 59.95429992675781 18.10161590576172 63.25148391723633 C 22.98041534423828 66.60566711425781 28.67929840087891 69.24420166015625 35.03994750976562 71.09380340576172 C 41.671630859375 73.022216796875 48.72359848022461 74 56 74 C 63.27640151977539 74 70.328369140625 73.022216796875 76.96005249023438 71.09380340576172 C 83.32070159912109 69.24420166015625 89.01958465576172 66.60566711425781 93.89838409423828 63.25148391723633 C 98.69429779052734 59.95429992675781 102.4442520141602 56.13980102539062 105.0440826416016 51.91394805908203 C 107.6690368652344 47.64726638793945 109 43.13415145874023 109 38.5 C 109 33.86584854125977 107.6690368652344 29.35273361206055 105.0440826416016 25.0860481262207 C 102.4442520141602 20.86019897460938 98.69429779052734 17.04570007324219 93.89838409423828 13.74851608276367 C 89.01958465576172 10.39433288574219 83.32070159912109 7.75579833984375 76.96005249023438 5.906196594238281 C 70.328369140625 3.977783203125 63.27640151977539 3 56 3 M 56 0 C 86.92793273925781 0 112 17.23703384399414 112 38.5 C 112 59.76296615600586 86.92793273925781 77 56 77 C 25.07206726074219 77 0 59.76296615600586 0 38.5 C 0 17.23703384399414 25.07206726074219 0 56 0 Z" stroke="none" fill="#39b54a"/>
        </g>
        <g id="Trazado_823031" data-name="Trazado 823031" transform="translate(-6003.769 -2566.962) rotate(-15)" fill="none">
          <path d="M57,0c31.48,0,57,15.222,57,34S88.48,68,57,68,0,52.778,0,34,25.52,0,57,0Z" stroke="none"/>
          <path d="M 57 3 C 49.55228424072266 3 42.33443450927734 3.8682861328125 35.54691314697266 5.580734252929688 C 29.04193115234375 7.221916198730469 23.21627044677734 9.561599731445312 18.23175048828125 12.53483200073242 C 13.35793304443359 15.4420166015625 9.554313659667969 18.79510116577148 6.926551818847656 22.50094985961914 C 4.321083068847656 26.17533493041992 3 30.04418182373047 3 34 C 3 37.95581817626953 4.321083068847656 41.82466888427734 6.926551818847656 45.49905014038086 C 9.554313659667969 49.20490264892578 13.35793304443359 52.5579833984375 18.23175048828125 55.46516799926758 C 23.21627044677734 58.43840026855469 29.04193115234375 60.77808380126953 35.54691314697266 62.41926574707031 C 42.33443450927734 64.1317138671875 49.55228424072266 65 57 65 C 64.44771575927734 65 71.66556549072266 64.1317138671875 78.45307922363281 62.41926574707031 C 84.95806884765625 60.77808380126953 90.78373718261719 58.43840026855469 95.76824951171875 55.46516799926758 C 100.6420669555664 52.5579833984375 104.445686340332 49.20490264892578 107.0734481811523 45.49905014038086 C 109.6789169311523 41.82466888427734 111 37.95581817626953 111 34 C 111 30.04418182373047 109.6789169311523 26.17533493041992 107.0734481811523 22.50094985961914 C 104.445686340332 18.79510116577148 100.6420669555664 15.4420166015625 95.76824951171875 12.53483200073242 C 90.78373718261719 9.561599731445312 84.95806884765625 7.221916198730469 78.45307922363281 5.580734252929688 C 71.66556549072266 3.8682861328125 64.44771575927734 3 57 3 M 57 0 C 88.48023223876953 0 114 15.22231674194336 114 34 C 114 52.77768325805664 88.48023223876953 68 57 68 C 25.51976776123047 68 0 52.77768325805664 0 34 C 0 15.22231674194336 25.51976776123047 0 57 0 Z" stroke="none" fill="#12263f"/>
        </g>
        <path id="Trazado_823032" data-name="Trazado 823032" d="M4,0C6.209,0,8,2.239,8,5s-1.791,5-4,5S0,7.761,0,5,1.791,0,4,0Z" transform="matrix(-0.995, -0.105, 0.105, -0.995, -6062.97, -2568.533)" fill="#0095c9"/>
        <path id="Trazado_823033" data-name="Trazado 823033" d="M4,0C6.209,0,8,2.239,8,5s-1.791,5-4,5S0,7.761,0,5,1.791,0,4,0Z" transform="translate(-6066.805 -2589.729) rotate(-156)" fill="#0095c9"/>
        <path id="Trazado_823034" data-name="Trazado 823034" d="M4,0C6.209,0,8,2.239,8,5s-1.791,5-4,5S0,7.761,0,5,1.791,0,4,0Z" transform="translate(-6049.133 -2576.729) rotate(-156)" fill="#0095c9"/>
        <path id="Trazado_823035" data-name="Trazado 823035" d="M4,0C6.209,0,8,2.239,8,5s-1.791,5-4,5S0,7.761,0,5,1.791,0,4,0Z" transform="translate(-6029.133 -2553.729) rotate(-156)" fill="#0095c9"/>
        <path id="Trazado_823036" data-name="Trazado 823036" d="M4,0C6.209,0,8,2.239,8,5s-1.791,5-4,5S0,7.761,0,5,1.791,0,4,0Z" transform="matrix(0.914, -0.407, 0.407, 0.914, -6038.164, -2583.865)" fill="#0095c9"/>
        <path id="Trazado_823037" data-name="Trazado 823037" d="M4,0C6.209,0,8,2.239,8,5s-1.791,5-4,5S0,7.761,0,5,1.791,0,4,0Z" transform="matrix(0.914, -0.407, 0.407, 0.914, -6037.164, -2608.865)" fill="#0095c9"/>
        <path id="Trazado_823091" data-name="Trazado 823091" d="M4,0C6.209,0,8,2.239,8,5s-1.791,5-4,5S0,7.761,0,5,1.791,0,4,0Z" transform="matrix(-0.914, -0.407, 0.407, -0.914, -5999.855, -2623.729)" fill="#98c900"/>
        <path id="Trazado_823092" data-name="Trazado 823092" d="M4,0C6.209,0,8,2.239,8,5s-1.791,5-4,5S0,7.761,0,5,1.791,0,4,0Z" transform="matrix(0.914, -0.407, 0.407, 0.914, -5989.164, -2625.842)" fill="#98c900"/>
        <path id="Trazado_823093" data-name="Trazado 823093" d="M4,0C6.209,0,8,2.239,8,5s-1.791,5-4,5S0,7.761,0,5,1.791,0,4,0Z" transform="matrix(-0.914, -0.407, 0.407, -0.914, -5970.855, -2631.706)" fill="#98c900"/>
        <path id="Trazado_823094" data-name="Trazado 823094" d="M4,0C6.209,0,8,2.239,8,5s-1.791,5-4,5S0,7.761,0,5,1.791,0,4,0Z" transform="matrix(0.914, -0.407, 0.407, 0.914, -5962.164, -2629.842)" fill="#98c900"/>
        <path id="Trazado_823095" data-name="Trazado 823095" d="M4,0C6.209,0,8,2.239,8,5s-1.791,5-4,5S0,7.761,0,5,1.791,0,4,0Z" transform="matrix(0.914, -0.407, 0.407, 0.914, -5967.852, -2658.335)" fill="#98c900"/>
        <path id="Trazado_823096" data-name="Trazado 823096" d="M4,0C6.209,0,8,2.239,8,5s-1.791,5-4,5S0,7.761,0,5,1.791,0,4,0Z" transform="matrix(-0.914, -0.407, 0.407, -0.914, -5978.543, -2652.199)" fill="#98c900"/>
        <path id="Trazado_823097" data-name="Trazado 823097" d="M4,0C6.209,0,8,2.239,8,5s-1.791,5-4,5S0,7.761,0,5,1.791,0,4,0Z" transform="matrix(-0.914, -0.407, 0.407, -0.914, -6008.543, -2643.005)" fill="#98c900"/>
        <path id="Trazado_823098" data-name="Trazado 823098" d="M4,0C6.209,0,8,2.239,8,5s-1.791,5-4,5S0,7.761,0,5,1.791,0,4,0Z" transform="matrix(0.914, -0.407, 0.407, 0.914, -6001.476, -2664.53)" fill="#98c900"/>
        <path id="Trazado_823099" data-name="Trazado 823099" d="M4,0C6.209,0,8,2.239,8,5s-1.791,5-4,5S0,7.761,0,5,1.791,0,4,0Z" transform="matrix(-0.914, -0.407, 0.407, -0.914, -5968.609, -2669.692)" fill="#98c900"/>
        <path id="Trazado_823100" data-name="Trazado 823100" d="M4,0C6.209,0,8,2.239,8,5s-1.791,5-4,5S0,7.761,0,5,1.791,0,4,0Z" transform="matrix(0.914, -0.407, 0.407, 0.914, -5946.918, -2682.828)" fill="#98c900"/>
        <path id="Trazado_823101" data-name="Trazado 823101" d="M4,0C6.209,0,8,2.239,8,5s-1.791,5-4,5S0,7.761,0,5,1.791,0,4,0Z" transform="matrix(-0.914, -0.407, 0.407, -0.914, -5929.609, -2659.692)" fill="#98c900"/>
        <path id="Trazado_823102" data-name="Trazado 823102" d="M4,0C6.209,0,8,2.239,8,5s-1.791,5-4,5S0,7.761,0,5,1.791,0,4,0Z" transform="matrix(0.914, -0.407, 0.407, 0.914, -5942.918, -2649.828)" fill="#98c900"/>
        <path id="Trazado_823038" data-name="Trazado 823038" d="M4,0C6.209,0,8,2.239,8,5s-1.791,5-4,5S0,7.761,0,5,1.791,0,4,0Z" transform="translate(-5932.398 -2558.274) rotate(72)" fill="#3a3e44"/>
        <path id="Trazado_823039" data-name="Trazado 823039" d="M4,0C6.209,0,8,2.239,8,5s-1.791,5-4,5S0,7.761,0,5,1.791,0,4,0Z" transform="matrix(-0.309, 0.951, -0.951, -0.309, -5948.926, -2557.185)" fill="#3a3e44"/>
        <path id="Trazado_823040" data-name="Trazado 823040" d="M4,0C6.209,0,8,2.239,8,5s-1.791,5-4,5S0,7.762,0,5,1.791,0,4,0Z" transform="matrix(0.309, 0.951, -0.951, 0.309, -5967.398, -2563.112)" fill="#3a3e44"/>
        <path id="Trazado_823041" data-name="Trazado 823041" d="M4,0C6.209,0,8,2.239,8,5s-1.791,5-4,5S0,7.761,0,5,1.791,0,4,0Z" transform="matrix(-0.309, 0.951, -0.951, -0.309, -5938.926, -2575.674)" fill="#3a3e44"/>
        <path id="Trazado_823042" data-name="Trazado 823042" d="M4,0C6.209,0,8,2.239,8,5s-1.791,5-4,5S0,7.761,0,5,1.791,0,4,0Z" transform="matrix(-0.309, 0.951, -0.951, -0.309, -5898.926, -2564.975)" fill="#3a3e44"/>
        <path id="Trazado_823043" data-name="Trazado 823043" d="M4,0C6.209,0,8,2.239,8,5s-1.791,5-4,5S0,7.762,0,5,1.791,0,4,0Z" transform="matrix(0.309, 0.951, -0.951, 0.309, -5912.398, -2582.064)" fill="#3a3e44"/>
        <path id="Trazado_823044" data-name="Trazado 823044" d="M4,0C6.209,0,8,2.239,8,5s-1.791,5-4,5S0,7.762,0,5,1.791,0,4,0Z" transform="matrix(-0.309, 0.951, -0.951, -0.309, -5907.926, -2543.975)" fill="#3a3e44"/>
        <path id="Trazado_823045" data-name="Trazado 823045" d="M4,0C6.209,0,8,2.239,8,5s-1.791,5-4,5S0,7.762,0,5,1.791,0,4,0Z" transform="matrix(0.309, 0.951, -0.951, 0.309, -5926.407, -2530.064)" fill="#3a3e44"/>
        <path id="Trazado_823046" data-name="Trazado 823046" d="M4,0C6.209,0,8,2.239,8,5s-1.791,5-4,5S0,7.762,0,5,1.791,0,4,0Z" transform="matrix(-0.309, 0.951, -0.951, -0.309, -5947.935, -2535.975)" fill="#3a3e44"/>
        <path id="Trazado_823047" data-name="Trazado 823047" d="M4,0C6.209,0,8,2.239,8,5s-1.791,5-4,5S0,7.762,0,5,1.791,0,4,0Z" transform="matrix(0.309, 0.951, -0.951, 0.309, -5953.381, -2526.064)" fill="#3a3e44"/>
        <path id="Trazado_823048" data-name="Trazado 823048" d="M4,0C6.209,0,8,2.239,8,5s-1.791,5-4,5S0,7.762,0,5,1.791,0,4,0Z" transform="matrix(-0.309, 0.951, -0.951, -0.309, -5971.909, -2528.975)" fill="#3a3e44"/>
        <path id="Trazado_823049" data-name="Trazado 823049" d="M4,0C6.209,0,8,2.239,8,5s-1.791,5-4,5S0,7.762,0,5,1.791,0,4,0Z" transform="matrix(0.309, 0.951, -0.951, 0.309, -5981.381, -2552.414)" fill="#3a3e44"/>
        <path id="Trazado_823050" data-name="Trazado 823050" d="M4,0C6.209,0,8,2.239,8,5s-1.791,5-4,5S0,7.761,0,5,1.791,0,4,0Z" transform="matrix(-0.914, -0.407, 0.407, -0.914, -6045.855, -2605.924)" fill="#0095c9"/>
        <path id="Trazado_823051" data-name="Trazado 823051" d="M4,0C6.209,0,8,2.239,8,5s-1.791,5-4,5S0,7.761,0,5,1.791,0,4,0Z" transform="matrix(0.914, -0.407, 0.407, 0.914, -6056.441, -2563.865)" fill="#0095c9"/>
        <path id="Trazado_823052" data-name="Trazado 823052" d="M4,0C6.209,0,8,2.239,8,5s-1.791,5-4,5S0,7.761,0,5,1.791,0,4,0Z" transform="translate(-6049.133 -2536.729) rotate(-156)" fill="#0095c9"/>
        <path id="Trazado_823053" data-name="Trazado 823053" d="M4,0C6.209,0,8,2.239,8,5s-1.791,5-4,5S0,7.761,0,5,1.791,0,4,0Z" transform="matrix(0.914, -0.407, 0.407, 0.914, -6075.441, -2540.865)" fill="#0095c9"/>
        <path id="Trazado_823054" data-name="Trazado 823054" d="M4,0C6.209,0,8,2.239,8,5s-1.791,5-4,5S0,7.761,0,5,1.791,0,4,0Z" transform="translate(-6085.133 -2545.729) rotate(-156)" fill="#0095c9"/>
        <path id="Trazado_823055" data-name="Trazado 823055" d="M4,0C6.209,0,8,2.239,8,5s-1.791,5-4,5S0,7.761,0,5,1.791,0,4,0Z" transform="matrix(0.914, -0.407, 0.407, 0.914, -6087.785, -2570.16)" fill="#0095c9"/>
        <path id="Trazado_820564" data-name="Trazado 820564" d="M-7911.007-925.674v222.616" transform="translate(1493.559 -1790.414)" fill="none" stroke="#12263f" stroke-width="2"/>
        <path id="Trazado_820565" data-name="Trazado 820565" d="M-7929.559-720.473h243.4" transform="translate(1493.559 -1790.414)" fill="none" stroke="#12263f" stroke-width="2"/>
        <path id="Trazado_820566" data-name="Trazado 820566" d="M10.714,3.056,0,0,10.689,16.575l.026-.033.026.033L21.429,0Z" transform="translate(-6406.734 -2710.953) rotate(180)" fill="#12263f"/>
        <path id="Trazado_820608" data-name="Trazado 820608" d="M10.714,3.056,0,0,10.689,16.575l.026-.033.026.033L21.429,0Z" transform="translate(-6200.89 -2499.813) rotate(-90)" fill="#12263f"/>
        <path id="Trazado_820564-2" data-name="Trazado 820564" d="M-7911.007-925.674v222.616" transform="translate(1805.24 -1790.414)" fill="none" stroke="#12263f" stroke-width="2"/>
        <path id="Trazado_820565-2" data-name="Trazado 820565" d="M-7929.559-720.473h243.4" transform="translate(1805.24 -1790.414)" fill="none" stroke="#12263f" stroke-width="2"/>
        <path id="Trazado_820566-2" data-name="Trazado 820566" d="M10.714,3.056,0,0,10.689,16.575l.026-.033.026.033L21.429,0Z" transform="translate(-6095.052 -2710.953) rotate(180)" fill="#12263f"/>
        <path id="Trazado_820608-2" data-name="Trazado 820608" d="M10.714,3.056,0,0,10.689,16.575l.026-.033.026.033L21.429,0Z" transform="translate(-5889.208 -2499.813) rotate(-90)" fill="#12263f"/>
        <g id="Trazado_823056" data-name="Trazado 823056" transform="matrix(0.259, -0.966, 0.966, 0.259, -6103.638, -2536.367)" fill="none">
          <path d="M48,0C74.51,0,96,16.118,96,36S74.51,72,48,72,0,55.882,0,36,21.49,0,48,0Z" stroke="none"/>
          <path d="M 48 3 C 41.82821655273438 3 35.84729385375977 3.904586791992188 30.22335052490234 5.688629150390625 C 24.82967376708984 7.399627685546875 19.99677276611328 9.840740203857422 15.85887908935547 12.94415283203125 C 11.78491973876953 15.99962997436523 8.597511291503906 19.5379524230957 6.385185241699219 23.46084594726562 C 4.138938903808594 27.44387817382812 3 31.66266250610352 3 36 C 3 40.33734130859375 4.138938903808594 44.55612182617188 6.385185241699219 48.53915405273438 C 8.597511291503906 52.46204376220703 11.78491973876953 56.00037002563477 15.85887908935547 59.05584716796875 C 19.99677276611328 62.15926361083984 24.82967376708984 64.60037231445312 30.22335052490234 66.31137084960938 C 35.84729385375977 68.09541320800781 41.82821655273438 69 48 69 C 54.17178344726562 69 60.15270614624023 68.09541320800781 65.77664184570312 66.31137084960938 C 71.17031860351562 64.60037231445312 76.00323486328125 62.15926361083984 80.14112091064453 59.05584716796875 C 84.21507263183594 56.00037002563477 87.40249633789062 52.46204376220703 89.61481475830078 48.53915405273438 C 91.86106109619141 44.55612182617188 93 40.33734130859375 93 36 C 93 31.66266250610352 91.86106109619141 27.44387817382812 89.61481475830078 23.46084594726562 C 87.40249633789062 19.5379524230957 84.21507263183594 15.99962997436523 80.14112091064453 12.94415283203125 C 76.00323486328125 9.840740203857422 71.17031860351562 7.399627685546875 65.77664184570312 5.688629150390625 C 60.15270614624023 3.904586791992188 54.17178344726562 3 48 3 M 48 0 C 74.50965881347656 0 96 16.11775207519531 96 36 C 96 55.88224792480469 74.50965881347656 72 48 72 C 21.49034118652344 72 0 55.88224792480469 0 36 C 0 16.11775207519531 21.49034118652344 0 48 0 Z" stroke="none" fill="#0095c9"/>
        </g>
        <path id="Trazado_823104" data-name="Trazado 823104" d="M0,0H74.16V22.662H0Z" transform="translate(-6223.055 -2613.561)" fill="#ffe323"/>
        <path id="Trazado_822996" data-name="Trazado 822996" d="M3.719,10.386,2.263,11.691,1.688,15H.4L2.133,5.047H3.418L2.57,9.894,7.643,5.047H9.3L4.669,9.5l3.1,5.5H6.337Zm7.841.9H8.313L8.5,10.256h3.247Zm4.149-6.241,1.743,8.107,4.566-8.107h1.688L21.978,15H20.7l.684-3.937L22.2,7.057,17.685,15H16.7L14.923,6.9l-.615,4.293L13.645,15H12.359l1.729-9.953Zm11.58,10.09a2.667,2.667,0,0,1-2.16-1.019,3.505,3.505,0,0,1-.656-2.536l.034-.294a4.921,4.921,0,0,1,.653-2.01,3.8,3.8,0,0,1,1.309-1.371,3.054,3.054,0,0,1,1.668-.441,2.352,2.352,0,0,1,1.791.759,3.121,3.121,0,0,1,.711,1.982,5.793,5.793,0,0,1-.027.889l-.075.567H25.7a2.5,2.5,0,0,0,.332,1.709,1.57,1.57,0,0,0,1.357.731,2.631,2.631,0,0,0,2.023-.984l.711.6a3.253,3.253,0,0,1-1.2,1.049A3.4,3.4,0,0,1,27.289,15.137ZM28.075,8.5a1.807,1.807,0,0,0-1.336.52,3.693,3.693,0,0,0-.906,1.606l3.6.007.027-.109a2.024,2.024,0,0,0-.277-1.432A1.3,1.3,0,0,0,28.075,8.5Zm7.8,6.5a1.657,1.657,0,0,1-.048-.39l.021-.39a3.032,3.032,0,0,1-2.16.916,2.21,2.21,0,0,1-1.589-.619A1.872,1.872,0,0,1,31.541,13a2.277,2.277,0,0,1,1.029-1.835,4.38,4.38,0,0,1,2.526-.66l1.292.007.082-.588a1.352,1.352,0,0,0-.256-1.049,1.237,1.237,0,0,0-.974-.4,1.908,1.908,0,0,0-1.125.311,1.324,1.324,0,0,0-.6.858l-1.244.007A1.983,1.983,0,0,1,32.778,8.5a2.943,2.943,0,0,1,1.142-.779,3.688,3.688,0,0,1,1.442-.263,2.452,2.452,0,0,1,1.8.7,2.173,2.173,0,0,1,.54,1.788l-.6,3.664-.034.526a2.58,2.58,0,0,0,.082.745L37.133,15Zm-1.941-.957a2.158,2.158,0,0,0,1.125-.284,2.847,2.847,0,0,0,.913-.824l.267-1.524L35.3,11.4a3.547,3.547,0,0,0-1.791.369,1.36,1.36,0,0,0-.7,1.046,1.059,1.059,0,0,0,.243.865A1.156,1.156,0,0,0,33.934,14.043ZM41.262,7.6l-.178.937a2.916,2.916,0,0,1,2.27-1.066,1.835,1.835,0,0,1,1.545.725,2.815,2.815,0,0,1,.369,1.962L44.461,15H43.224l.813-4.862a2.592,2.592,0,0,0,.007-.621,1.022,1.022,0,0,0-1.128-.976,2.329,2.329,0,0,0-1.955,1.188L40.045,15H38.808l1.285-7.4ZM50.948,13q.1-.766-.841-1.08l-1.285-.376Q47.2,10.98,47.25,9.682a2.048,2.048,0,0,1,.892-1.6,3.177,3.177,0,0,1,1.986-.612,2.649,2.649,0,0,1,1.822.653,2.068,2.068,0,0,1,.673,1.665l-1.23-.007a1.154,1.154,0,0,0-.349-.9,1.379,1.379,0,0,0-.964-.362,1.8,1.8,0,0,0-1.107.314,1.151,1.151,0,0,0-.5.807q-.089.643.786.937l.622.171a4.005,4.005,0,0,1,1.8.854,1.632,1.632,0,0,1,.492,1.306,2.074,2.074,0,0,1-.451,1.2,2.58,2.58,0,0,1-1.094.783,3.658,3.658,0,0,1-1.456.25,2.885,2.885,0,0,1-1.941-.687,2.124,2.124,0,0,1-.738-1.733l1.237.007a1.311,1.311,0,0,0,.4,1,1.515,1.515,0,0,0,1.087.376,2.132,2.132,0,0,0,1.169-.284A1.091,1.091,0,0,0,50.948,13Z" transform="translate(-6211.449 -2611.729)" fill="#12263f"/>
        <path id="Trazado_823103" data-name="Trazado 823103" d="M20.182,0,40.365,21.3H0Z" transform="translate(-6128.713 -2622.301) rotate(90)" fill="#ffe323"/>
      </g>
    </g>
  </g>
</svg>
